<?xml version="1.0" encoding="utf-8"?>
<!-- Generator: Adobe Illustrator 14.0.0, SVG Export Plug-In . SVG Version: 6.00 Build 43363)  -->
<!DOCTYPE svg PUBLIC "-//W3C//DTD SVG 1.1//EN" "http://www.w3.org/Graphics/SVG/1.1/DTD/svg11.dtd">
<svg version="1.1" id="Ebene_1" xmlns="http://www.w3.org/2000/svg" xmlns:xlink="http://www.w3.org/1999/xlink" x="0px" y="0px"
	 width="300px" height="150px" viewBox="0 0 300 150" enable-background="new 0 0 300 150" xml:space="preserve">
<g>
	<polygon fill="#707173" points="137.292,112.172 147.003,123.428 147.003,112.172 149.011,112.172 149.011,127.941 
		148.297,127.941 138.666,116.822 138.666,127.941 136.586,127.941 136.586,112.172 	"/>
	<polygon fill="#707173" points="154.199,127.941 154.199,112.428 154.199,112.17 163.395,112.17 163.395,114.18 156.224,114.176 
		156.224,118.445 163.334,118.445 163.334,120.451 156.224,120.451 156.224,125.934 163.334,125.934 163.334,127.941 	"/>
	<polygon fill="#707173" points="166.928,114.178 166.928,112.17 175.745,112.17 175.745,114.178 172.367,114.178 172.367,127.941 
		170.309,127.941 170.309,114.178 	"/>
	<polygon fill="#707173" points="179.29,112.498 179.2,112.172 181.29,112.172 184.234,122.615 188.359,112.172 188.536,112.172 
		189.025,112.172 193.103,122.617 196.098,112.172 198.177,112.172 193.678,127.941 193.48,127.941 193.026,127.941 188.7,116.844 
		184.293,127.941 184.121,127.941 183.638,127.941 	"/>
	<path fill="#707173" d="M209.027,111.785c2.353-0.004,4.353,0.799,5.944,2.389c1.592,1.586,2.396,3.564,2.395,5.877
		c0.002,2.291-0.798,4.266-2.391,5.863c-1.579,1.6-3.539,2.412-5.813,2.412h-0.013c-2.307,0.002-4.285-0.807-5.871-2.4
		c-1.594-1.588-2.4-3.543-2.398-5.803c0-1.508,0.368-2.914,1.091-4.205c0.727-1.285,1.722-2.303,2.978-3.035
		C206.205,112.15,207.57,111.785,209.027,111.785 M209.095,113.785c-1.079,0-2.092,0.279-3.062,0.848
		c-0.964,0.568-1.714,1.322-2.256,2.281s-0.811,2.021-0.814,3.205c0.004,1.752,0.597,3.205,1.798,4.412
		c1.21,1.203,2.634,1.795,4.335,1.797c1.13,0,2.172-0.277,3.138-0.828c0.962-0.555,1.706-1.299,2.246-2.26
		c0.537-0.957,0.806-2.014,0.809-3.195c-0.003-1.174-0.271-2.217-0.807-3.156c-0.542-0.938-1.294-1.688-2.277-2.256
		C211.221,114.064,210.193,113.785,209.095,113.785"/>
	<path fill="#707173" d="M229.275,127.941l-5.45-7.082h-0.473v7.082h-2.029v-15.514v-0.258h3.276c1.693,0,2.834,0.064,3.477,0.217
		c0.951,0.215,1.741,0.691,2.338,1.416c0.603,0.734,0.903,1.641,0.903,2.686c0,0.871-0.208,1.652-0.622,2.326
		c-0.414,0.676-1.015,1.191-1.777,1.525c-0.668,0.301-1.524,0.463-2.579,0.506l5.461,7.096H229.275z M223.353,118.852l2.356,0.02
		c0.993,0,1.716-0.1,2.148-0.271c0.439-0.178,0.767-0.451,1.013-0.828c0.246-0.387,0.365-0.807,0.367-1.285
		c-0.002-0.469-0.121-0.881-0.369-1.258c-0.255-0.377-0.567-0.637-0.967-0.799c-0.384-0.158-1.11-0.254-2.134-0.25h-2.415V118.852z"
		/>
	<polygon fill="#707173" points="245.312,127.941 239.038,121.229 239.038,127.941 236.979,127.941 236.979,112.428 
		236.979,112.172 239.038,112.172 239.038,117.553 244.734,112.172 247.523,112.172 239.962,119.285 248.036,127.941 	"/>
	<path fill="#707173" d="M250.842,124.965l-0.113-0.217l1.727-1.045l0.128,0.238c0.891,1.648,1.865,2.387,2.918,2.387
		c0.466-0.002,0.898-0.109,1.309-0.328c0.411-0.221,0.71-0.504,0.922-0.861c0.21-0.365,0.312-0.742,0.312-1.146
		c0-0.451-0.148-0.898-0.468-1.355c-0.443-0.639-1.294-1.445-2.542-2.391c-1.269-0.973-2.062-1.66-2.411-2.135
		c-0.564-0.758-0.854-1.596-0.851-2.49c-0.004-0.707,0.168-1.357,0.507-1.941c0.336-0.59,0.82-1.055,1.432-1.391
		c0.609-0.336,1.281-0.504,1.996-0.504c0.756,0,1.474,0.195,2.13,0.568c0.672,0.389,1.344,1.066,2.05,2.039l0.151,0.201
		l-1.643,1.256l-0.156-0.209c-0.556-0.746-1.037-1.232-1.382-1.436c-0.365-0.221-0.752-0.328-1.185-0.328
		c-0.559,0.002-0.979,0.166-1.318,0.488c-0.341,0.332-0.503,0.709-0.505,1.197c0,0.295,0.063,0.578,0.186,0.855
		c0.117,0.27,0.349,0.592,0.697,0.941c0.17,0.164,0.831,0.682,1.928,1.5c1.327,0.982,2.247,1.865,2.769,2.672
		c0.506,0.793,0.771,1.609,0.771,2.428c0.002,1.172-0.451,2.215-1.331,3.07c-0.876,0.857-1.964,1.295-3.212,1.295h-0.009
		c-0.97,0-1.86-0.262-2.65-0.785C252.201,127.014,251.487,126.152,250.842,124.965"/>
	<path fill="#1B171B" d="M29.169,62.667l17.99,38.834h-4.164l-6.066-12.777H20.31l-6.01,12.777H9.998l18.229-38.834H29.169z
		 M28.683,70.918l-6.61,14.059h13.189L28.683,70.918z"/>
	<path fill="#1B171B" d="M75.009,91.975l3.095,1.637c-1.016,2.004-2.188,3.623-3.518,4.855s-2.827,2.17-4.49,2.812
		c-1.662,0.643-3.542,0.963-5.644,0.963c-4.653,0-8.293-1.535-10.917-4.605c-2.626-3.07-3.938-6.545-3.938-10.418
		c0-3.643,1.11-6.889,3.334-9.738c2.817-3.628,6.588-5.441,11.313-5.441c4.864,0,8.747,1.857,11.653,5.57
		c2.064,2.623,3.113,5.896,3.15,9.822H53.374c0.069,3.338,1.129,6.072,3.177,8.205s4.576,3.199,7.587,3.199
		c1.453,0,2.865-0.254,4.242-0.762c1.373-0.508,2.54-1.186,3.504-2.025S73.888,93.848,75.009,91.975 M75.009,84.236
		c-0.49-1.973-1.205-3.545-2.141-4.727c-0.938-1.178-2.174-2.129-3.714-2.852c-1.542-0.718-3.161-1.08-4.858-1.08
		c-2.801,0-5.207,0.904-7.221,2.718c-1.471,1.318-2.583,3.297-3.334,5.939H75.009z"/>
	<path fill="#1B171B" d="M84.821,72.779h3.752v4.198c1.118-1.654,2.297-2.889,3.54-3.709c1.24-0.817,2.533-1.229,3.88-1.229
		c1.013,0,2.099,0.328,3.252,0.977l-1.914,3.118c-0.771-0.335-1.415-0.501-1.94-0.501c-1.224,0-2.404,0.505-3.54,1.519
		c-1.139,1.01-2.003,2.578-2.596,4.713c-0.456,1.635-0.682,4.943-0.682,9.924v9.715h-3.752V72.779z"/>
	<path fill="#1B171B" d="M115.342,72.039c4.396,0,8.039,1.604,10.927,4.805c2.629,2.924,3.942,6.381,3.942,10.377
		c0,4.012-1.389,7.52-4.164,10.521c-2.776,3.002-6.344,4.498-10.705,4.498c-4.378,0-7.957-1.496-10.731-4.498
		c-2.776-3.002-4.164-6.51-4.164-10.521c0-3.98,1.312-7.428,3.94-10.348C107.276,73.65,110.928,72.039,115.342,72.039
		 M115.328,75.657c-3.052,0-5.676,1.136-7.869,3.404c-2.192,2.273-3.289,5.018-3.289,8.238c0,2.078,0.498,4.012,1.501,5.811
		c0.998,1.793,2.349,3.18,4.052,4.156c1.701,0.977,3.571,1.463,5.605,1.463c2.035,0,3.903-0.486,5.604-1.463
		c1.703-0.977,3.054-2.363,4.055-4.156c1-1.799,1.499-3.732,1.499-5.811c0-3.221-1.101-5.965-3.303-8.238
		C120.982,76.793,118.363,75.657,115.328,75.657"/>
	<path fill="#1B171B" d="M137.007,61.691h3.672v16.237c1.485-1.971,3.121-3.446,4.903-4.424c1.782-0.976,3.715-1.464,5.794-1.464
		c2.132,0,4.024,0.545,5.68,1.636c1.648,1.092,2.869,2.559,3.654,4.395c0.79,1.842,1.181,4.723,1.181,8.648v14.785h-3.672V87.801
		c0-3.309-0.13-5.518-0.391-6.627c-0.458-1.9-1.283-3.33-2.482-4.289c-1.193-0.958-2.764-1.441-4.703-1.441
		c-2.22,0-4.209,0.74-5.964,2.218c-1.757,1.479-2.916,3.311-3.476,5.494c-0.351,1.406-0.524,4.01-0.524,7.814v10.533h-3.672V61.691z
		"/>
	<path fill="#1B171B" d="M171.031,60.949c0.832,0,1.546,0.302,2.139,0.9c0.594,0.597,0.889,1.32,0.889,2.163
		c0,0.828-0.295,1.54-0.889,2.141c-0.593,0.597-1.307,0.896-2.139,0.896c-0.821,0-1.524-0.299-2.117-0.896
		c-0.592-0.601-0.886-1.313-0.886-2.141c0-0.843,0.294-1.566,0.886-2.163C169.507,61.251,170.21,60.949,171.031,60.949
		 M169.208,72.779h3.67v28.725h-3.67V72.779z"/>
	<polygon fill="#1B171B" points="178.293,72.779 182.201,72.779 191.775,93.717 201.239,72.779 205.171,72.779 192.111,101.502 
		191.431,101.502 	"/>
	<path fill="#1B171B" d="M232.321,91.975l3.096,1.637c-1.017,2.004-2.188,3.623-3.517,4.855c-1.331,1.232-2.827,2.17-4.49,2.812
		c-1.661,0.643-3.543,0.963-5.646,0.963c-4.65,0-8.291-1.535-10.914-4.605c-2.628-3.07-3.94-6.545-3.94-10.418
		c0-3.643,1.111-6.889,3.331-9.738c2.819-3.628,6.589-5.441,11.315-5.441c4.866,0,8.748,1.857,11.655,5.57
		c2.064,2.623,3.112,5.896,3.148,9.822h-25.674c0.067,3.338,1.131,6.072,3.176,8.205c2.048,2.133,4.577,3.199,7.589,3.199
		c1.454,0,2.867-0.254,4.241-0.762c1.373-0.508,2.541-1.186,3.505-2.025C230.159,95.209,231.199,93.848,232.321,91.975
		 M232.321,84.236c-0.492-1.973-1.202-3.545-2.141-4.727c-0.935-1.178-2.174-2.129-3.714-2.852c-1.539-0.718-3.161-1.08-4.857-1.08
		c-2.803,0-5.209,0.904-7.22,2.718c-1.473,1.318-2.583,3.297-3.333,5.939H232.321z"/>
	<path fill="#1B171B" d="M240.971,97.352v0.623h-1.202v3.137h-0.747v-3.137h-1.185v-0.623H240.971z M245.032,101.111l-0.139-2.213
		c-0.013-0.291-0.013-0.648-0.029-1.051h-0.042c-0.092,0.332-0.218,0.773-0.314,1.121l-0.677,2.088h-0.775l-0.674-2.143
		c-0.071-0.277-0.181-0.734-0.265-1.066h-0.042c0,0.348-0.011,0.709-0.025,1.051l-0.139,2.213h-0.721l0.279-3.76h1.118l0.65,1.836
		c0.095,0.289,0.151,0.568,0.246,0.955h0.013c0.097-0.33,0.181-0.666,0.265-0.926l0.646-1.865h1.08l0.292,3.76H245.032z"/>
	<polygon fill="#FCC409" points="243.033,75.902 235.707,63.209 243.033,50.518 257.686,50.518 265.016,63.209 257.686,75.902 	"/>
	<polygon fill="#FCC409" points="243.033,47.06 235.707,34.367 243.033,21.675 257.686,21.675 265.016,34.367 257.686,47.06 	"/>
	<polygon fill="#FCC409" points="268.017,61.228 260.688,48.536 268.017,35.843 282.672,35.843 290.002,48.536 282.672,61.228 	"/>
</g>
</svg>
