<?xml version="1.0" encoding="utf-8"?>
<!-- Generator: Adobe Illustrator 14.0.0, SVG Export Plug-In . SVG Version: 6.00 Build 43363)  -->
<!DOCTYPE svg PUBLIC "-//W3C//DTD SVG 1.1//EN" "http://www.w3.org/Graphics/SVG/1.1/DTD/svg11.dtd">
<svg version="1.1" id="Logo" xmlns="http://www.w3.org/2000/svg" xmlns:xlink="http://www.w3.org/1999/xlink" x="0px" y="0px"
	 width="300px" height="150px" viewBox="149.168 42.791 300 150" enable-background="new 149.168 42.791 300 150"
	 xml:space="preserve">
<g>
	<g>
		<g>
			<g>
				<g>
					
						<linearGradient id="SVGID_2_" gradientUnits="userSpaceOnUse" x1="612.908" y1="449.8726" x2="671.3184" y2="449.8726" gradientTransform="matrix(1 0 0 1 -334.2007 -338.4561)">
						<stop  offset="0" style="stop-color:#A5B0B5"/>
						<stop  offset="1" style="stop-color:#808D91"/>
					</linearGradient>
					<path id="SVGID_1_" fill="url(#SVGID_2_)" d="M302.195,115.498l5.417-15.473c0.112-0.323,0.296-0.322,0.405,0.002l5.241,15.468
						c0.11,0.325-0.08,0.592-0.424,0.592h-10.223C302.269,116.086,302.081,115.822,302.195,115.498 M300.602,84.176
						c-0.343,0-0.721,0.264-0.839,0.587l-19.423,53.308c-0.118,0.323,0.069,0.587,0.412,0.587h14.067
						c0.343,0,0.703-0.269,0.798-0.599l2.555-8.861c0.094-0.33,0.453-0.6,0.797-0.6h17.416c0.344,0,0.703,0.27,0.798,0.6
						l2.558,8.861c0.095,0.33,0.455,0.599,0.797,0.599h14.768c0.344,0,0.528-0.263,0.408-0.586l-19.641-53.31
						c-0.118-0.322-0.496-0.586-0.84-0.586H300.602z"/>
				</g>
				<g>
					<g>
						<defs>
							<path id="SVGID_3_" d="M302.195,115.498l5.417-15.473c0.112-0.323,0.296-0.322,0.405,0.002l5.241,15.468
								c0.11,0.325-0.08,0.592-0.424,0.592h-10.223C302.269,116.086,302.081,115.822,302.195,115.498 M300.602,84.176
								c-0.343,0-0.721,0.264-0.839,0.587l-19.423,53.308c-0.118,0.323,0.069,0.587,0.412,0.587h14.067
								c0.343,0,0.703-0.269,0.798-0.599l2.555-8.861c0.094-0.33,0.453-0.6,0.797-0.6h17.416c0.344,0,0.703,0.27,0.798,0.6
								l2.558,8.861c0.095,0.33,0.455,0.599,0.797,0.599h14.768c0.344,0,0.528-0.263,0.408-0.586l-19.641-53.31
								c-0.118-0.322-0.496-0.586-0.84-0.586H300.602z"/>
						</defs>
						<clipPath id="SVGID_4_">
							<use xlink:href="#SVGID_3_"  overflow="visible"/>
						</clipPath>
						
							<linearGradient id="SVGID_6_" gradientUnits="userSpaceOnUse" x1="947.3308" y1="-586.3638" x2="947.7999" y2="-586.3638" gradientTransform="matrix(0 122.5376 122.5376 0 72159.6016 -116001.0234)">
							<stop  offset="0" style="stop-color:#A5B0B5"/>
							<stop  offset="1" style="stop-color:#808D91"/>
						</linearGradient>
						<rect x="280.223" y="84.176" clip-path="url(#SVGID_4_)" fill="url(#SVGID_6_)" width="55.611" height="54.481"/>
					</g>
				</g>
			</g>
			<g>
				<g>
					
						<linearGradient id="SVGID_7_" gradientUnits="userSpaceOnUse" x1="671.905" y1="449.7573" x2="721.3301" y2="449.7573" gradientTransform="matrix(1 0 0 1 -334.2007 -338.4561)">
						<stop  offset="0" style="stop-color:#A5B0B5"/>
						<stop  offset="1" style="stop-color:#808D91"/>
					</linearGradient>
					<path id="SVGID_5_" fill="url(#SVGID_7_)" d="M353.029,111.232c0-13.625,3.008-15.117,9.396-15.117
						c6.387,0,9.396,1.492,9.396,15.117c0,13.138-2.746,15.262-9.324,15.262C355.822,126.494,353.029,124.37,353.029,111.232
						 M338.429,111.233c0,19.03,7.623,27.893,23.996,27.893c16.775,0,23.933-8.341,23.933-27.893
						c0-19.194-7.384-27.755-23.933-27.755C345.832,83.478,338.429,92.039,338.429,111.233"/>
				</g>
				<g>
					<g>
						<defs>
							<path id="SVGID_8_" d="M353.029,111.232c0-13.625,3.008-15.117,9.396-15.117c6.387,0,9.396,1.492,9.396,15.117
								c0,13.138-2.746,15.262-9.324,15.262C355.822,126.494,353.029,124.37,353.029,111.232 M338.429,111.233
								c0,19.03,7.623,27.893,23.996,27.893c16.775,0,23.933-8.341,23.933-27.893c0-19.194-7.384-27.755-23.933-27.755
								C345.832,83.478,338.429,92.039,338.429,111.233"/>
						</defs>
						<clipPath id="SVGID_10_">
							<use xlink:href="#SVGID_8_"  overflow="visible"/>
						</clipPath>
						
							<linearGradient id="SVGID_11_" gradientUnits="userSpaceOnUse" x1="947.3328" y1="-586.8667" x2="947.801" y2="-586.8667" gradientTransform="matrix(0 122.5381 122.5381 0 72275.8438 -116001.7891)">
							<stop  offset="0" style="stop-color:#A5B0B5"/>
							<stop  offset="1" style="stop-color:#808D91"/>
						</linearGradient>
						<rect x="338.429" y="83.478" clip-path="url(#SVGID_10_)" fill="url(#SVGID_11_)" width="47.929" height="55.647"/>
					</g>
				</g>
			</g>
			<g>
				<g>
					
						<linearGradient id="SVGID_12_" gradientUnits="userSpaceOnUse" x1="582.8318" y1="470.7603" x2="776.9246" y2="470.7603" gradientTransform="matrix(1 0 0 1 -334.2007 -338.4561)">
						<stop  offset="0" style="stop-color:#A5B0B5"/>
						<stop  offset="1" style="stop-color:#808D91"/>
					</linearGradient>
					<path id="SVGID_9_" fill="url(#SVGID_12_)" d="M395.76,125.989c-0.335,0-0.61,0.275-0.61,0.61v11.412
						c0,0.335,0.275,0.609,0.61,0.609h41.615c0.336,0,0.611-0.274,0.611-0.609v-11.412c0-0.336-0.275-0.611-0.611-0.611
						L395.76,125.989z"/>
				</g>
				<g>
					<g>
						<defs>
							<path id="SVGID_14_" d="M395.76,125.989c-0.335,0-0.61,0.275-0.61,0.61v11.412c0,0.335,0.275,0.609,0.61,0.609h41.615
								c0.336,0,0.611-0.274,0.611-0.609v-11.412c0-0.336-0.275-0.611-0.611-0.611L395.76,125.989z"/>
						</defs>
						<clipPath id="SVGID_15_">
							<use xlink:href="#SVGID_14_"  overflow="visible"/>
						</clipPath>
						
							<linearGradient id="SVGID_16_" gradientUnits="userSpaceOnUse" x1="947.3347" y1="-587.3716" x2="947.7996" y2="-587.3716" gradientTransform="matrix(0 122.5348 122.5348 0 72390.0078 -115998.4453)">
							<stop  offset="0" style="stop-color:#A5B0B5"/>
							<stop  offset="1" style="stop-color:#808D91"/>
						</linearGradient>
						<rect x="395.149" y="125.988" clip-path="url(#SVGID_15_)" fill="url(#SVGID_16_)" width="42.837" height="12.632"/>
					</g>
				</g>
			</g>
			<g>
				<g>
					
						<linearGradient id="SVGID_18_" gradientUnits="userSpaceOnUse" x1="724.2214" y1="428.9478" x2="918.3142" y2="428.9478" gradientTransform="matrix(1 0 0 1 -334.2007 -338.4561)">
						<stop  offset="0" style="stop-color:#A5B0B5"/>
						<stop  offset="1" style="stop-color:#808D91"/>
					</linearGradient>
					<path id="SVGID_13_" fill="url(#SVGID_18_)" d="M395.749,84.176c-0.336,0-0.61,0.275-0.61,0.611v11.41
						c0,0.335,0.274,0.609,0.61,0.609h41.616c0.335,0,0.61-0.274,0.61-0.609v-11.41c0-0.336-0.275-0.611-0.61-0.611H395.749z"/>
				</g>
				<g>
					<g>
						<defs>
							<path id="SVGID_19_" d="M395.749,84.176c-0.336,0-0.61,0.275-0.61,0.611v11.41c0,0.335,0.274,0.609,0.61,0.609h41.616
								c0.335,0,0.61-0.274,0.61-0.609v-11.41c0-0.336-0.275-0.611-0.61-0.611H395.749z"/>
						</defs>
						<clipPath id="SVGID_20_">
							<use xlink:href="#SVGID_19_"  overflow="visible"/>
						</clipPath>
						
							<linearGradient id="SVGID_21_" gradientUnits="userSpaceOnUse" x1="947.3328" y1="-587.3706" x2="947.7974" y2="-587.3706" gradientTransform="matrix(0 122.5385 122.5385 0 72392.0625 -116002.0391)">
							<stop  offset="0" style="stop-color:#A5B0B5"/>
							<stop  offset="1" style="stop-color:#808D91"/>
						</linearGradient>
						<rect x="395.139" y="84.176" clip-path="url(#SVGID_20_)" fill="url(#SVGID_21_)" width="42.836" height="12.63"/>
					</g>
				</g>
			</g>
			<g>
				<g>
					
						<linearGradient id="SVGID_22_" gradientUnits="userSpaceOnUse" x1="653.3318" y1="449.854" x2="847.4246" y2="449.854" gradientTransform="matrix(1 0 0 1 -334.2007 -338.4561)">
						<stop  offset="0" style="stop-color:#A5B0B5"/>
						<stop  offset="1" style="stop-color:#808D91"/>
					</linearGradient>
					<path id="SVGID_17_" fill="url(#SVGID_22_)" d="M395.749,105.083c-0.336,0-0.61,0.275-0.61,0.611v11.409
						c0,0.336,0.274,0.61,0.61,0.61h41.616c0.335,0,0.61-0.274,0.61-0.61v-11.409c0-0.336-0.275-0.611-0.61-0.611H395.749z"/>
				</g>
				<g>
					<g>
						<defs>
							<path id="SVGID_23_" d="M395.749,105.083c-0.336,0-0.61,0.275-0.61,0.611v11.409c0,0.336,0.274,0.61,0.61,0.61h41.616
								c0.335,0,0.61-0.274,0.61-0.61v-11.409c0-0.336-0.275-0.611-0.61-0.611H395.749z"/>
						</defs>
						<clipPath id="SVGID_24_">
							<use xlink:href="#SVGID_23_"  overflow="visible"/>
						</clipPath>
						
							<linearGradient id="SVGID_25_" gradientUnits="userSpaceOnUse" x1="947.3347" y1="-587.3711" x2="947.7973" y2="-587.3711" gradientTransform="matrix(0 122.5365 122.5365 0 72391.0078 -115999.9062)">
							<stop  offset="0" style="stop-color:#A5B0B5"/>
							<stop  offset="1" style="stop-color:#808D91"/>
						</linearGradient>
						<rect x="395.139" y="105.083" clip-path="url(#SVGID_24_)" fill="url(#SVGID_25_)" width="42.836" height="12.63"/>
					</g>
				</g>
			</g>
			<g>
				<g>
					<g>
						<defs>
							<path id="SVGID_26_" d="M210.828,152.105l-0.02-37.354c-0.001-0.713-0.505-1.59-1.122-1.95l-32.612-18.998
								c-0.615-0.359-0.585-0.885,0.069-1.168l32.547-14.097c0.655-0.284,1.726-0.282,2.379,0.004l32.356,14.15
								c0.654,0.285,1.122,1.101,1.04,1.809l-4.098,35.443c-0.083,0.708-0.621,1.632-1.198,2.053l-28.295,20.643
								c-0.192,0.141-0.374,0.206-0.529,0.206C211.038,152.844,210.828,152.58,210.828,152.105 M209.679,62.854l-49.437,20.203
								c-0.66,0.271-1.118,1.068-1.019,1.775l7.494,52.814c0.1,0.706,0.642,1.644,1.203,2.083l41.895,32.758
								c0.562,0.439,1.481,0.439,2.043,0l41.897-32.758c0.562-0.439,1.103-1.377,1.203-2.083l7.477-52.813
								c0.101-0.707-0.358-1.506-1.019-1.775L212.08,62.854c-0.33-0.134-0.766-0.202-1.201-0.202
								C210.445,62.652,210.009,62.719,209.679,62.854"/>
						</defs>
						<clipPath id="SVGID_27_">
							<use xlink:href="#SVGID_26_"  overflow="visible"/>
						</clipPath>
						
							<linearGradient id="SVGID_28_" gradientUnits="userSpaceOnUse" x1="947.406" y1="-585.4985" x2="947.874" y2="-585.4985" gradientTransform="matrix(0 121.7008 121.7008 0 71466.3984 -115217.2812)">
							<stop  offset="0" style="stop-color:#A5B0B5"/>
							<stop  offset="1" style="stop-color:#808D91"/>
						</linearGradient>
						<rect x="159.125" y="62.652" clip-path="url(#SVGID_27_)" fill="url(#SVGID_28_)" width="103.412" height="110.277"/>
					</g>
				</g>
			</g>
			<g>
				<path fill="#EAEDEF" d="M211.932,112.84c-0.606,0.353-1.102,1.216-1.102,1.917l0.02,37.357c0,0.701,0.463,0.937,1.03,0.523
					l28.298-20.645c0.567-0.413,1.096-1.322,1.177-2.019l4.1-35.449c0.081-0.696-0.35-0.977-0.957-0.625L211.932,112.84z"/>
				<path fill="#FFFFFF" d="M209.714,78.529c0.653-0.282,1.718-0.28,2.369,0.005l32.403,14.17c0.652,0.284,0.681,0.81,0.068,1.168
					l-32.613,18.965c-0.614,0.357-1.618,0.357-2.233,0l-32.658-19.024c-0.614-0.359-0.582-0.883,0.068-1.164L209.714,78.529z"/>
			</g>
		</g>
	</g>
	<g>
		<path fill="#808D91" d="M281.144,154.895v5.151c0,0.871,0.463,1.223,1.223,1.223c0.24,0,0.535-0.042,0.703-0.111l0.086,1.013
			c-0.254,0.127-0.717,0.211-1.168,0.211c-1.435,0-2.18-0.802-2.18-2.293v-5.193h-1.168v-1.041h1.21l0.253-2.082l1.042-0.112v2.194
			h2.068v1.041H281.144z"/>
		<path fill="#808D91" d="M290.134,162.242v-5.559c0-1.125-0.605-1.746-1.901-1.746c-0.872,0-1.631,0.423-1.97,0.957v6.348h-1.322
			v-11.104l1.322-0.084v2.434l-0.014,1.126l0.029,0.014c0.604-0.634,1.463-0.928,2.35-0.928c1.83,0,2.828,1.068,2.828,2.982v5.559
			L290.134,162.242L290.134,162.242z"/>
		<path fill="#808D91" d="M293.185,157.822c0-2.631,1.154-4.108,3.461-4.108c1.999,0,3.307,1.182,3.307,3.87
			c0,0.212-0.015,0.465-0.028,0.647h-5.375c0.07,2.21,0.886,2.97,2.687,2.97c0.845,0,1.562-0.184,2.28-0.535l0.154,1.126
			c-0.705,0.379-1.576,0.619-2.589,0.619C294.324,162.41,293.185,160.96,293.185,157.822z M298.729,157.315
			c-0.028-1.772-0.859-2.447-2.069-2.447c-1.421,0-2.054,0.788-2.138,2.447H298.729z"/>
		<path fill="#808D91" d="M309.195,162.423c-2.533,0-3.659-1.238-3.659-4.347c0-3.111,1.141-4.363,3.659-4.363
			c2.532,0,3.602,1.253,3.602,4.363C312.797,161.185,311.714,162.423,309.195,162.423z M309.195,161.297
			c1.618,0,2.237-0.829,2.237-3.222c0-2.406-0.619-3.223-2.237-3.223c-1.647,0-2.279,0.816-2.279,3.223
			S307.548,161.297,309.195,161.297z"/>
		<path fill="#808D91" d="M318.325,162.396c-0.887,0-1.703-0.226-2.279-0.914l-0.028,0.013l0.014,1.141v1.688h-1.365v-10.426
			l0.956-0.069l0.283,0.872c0.604-0.619,1.477-0.986,2.49-0.986c2.054,0,3.208,1.07,3.208,4.32
			C321.603,161.129,320.337,162.396,318.325,162.396z M318.071,154.937c-0.9,0-1.604,0.353-2.039,0.985v4.305
			c0.323,0.551,0.984,1.027,1.969,1.027c1.31,0,2.224-0.633,2.224-3.223C320.224,155.599,319.478,154.937,318.071,154.937z"/>
		<path fill="#808D91" d="M322.98,157.822c0-2.631,1.153-4.108,3.461-4.108c2,0,3.308,1.182,3.308,3.87
			c0,0.212-0.014,0.465-0.029,0.647h-5.374c0.069,2.21,0.887,2.97,2.687,2.97c0.845,0,1.562-0.184,2.279-0.535l0.154,1.126
			c-0.703,0.379-1.575,0.619-2.588,0.619C324.12,162.41,322.98,160.96,322.98,157.822z M328.524,157.315
			c-0.028-1.772-0.858-2.447-2.068-2.447c-1.421,0-2.055,0.788-2.139,2.447H328.524z"/>
		<path fill="#808D91" d="M336.782,162.242v-5.546c0-1.237-0.661-1.759-1.898-1.759c-0.718,0-1.562,0.339-1.957,0.944v6.36h-1.337
			v-8.358l0.957-0.07l0.226,0.887h0.042c0.576-0.634,1.492-1,2.435-1c1.771,0,2.856,1,2.856,2.997v5.545H336.782L336.782,162.242z"
			/>
		<path fill="#808D91" d="M350.246,153.855l1.532,6.248l0.253,1.111h0.043l0.211-1.111l1.322-6.248h1.309l-2.026,8.387h-1.66
			l-1.407-5.897l-0.24-1.125h-0.042l-0.253,1.125l-1.449,5.897h-1.632l-2.125-8.387h1.338l1.392,6.206l0.227,1.11h0.042l0.239-1.11
			l1.505-6.206H350.246L350.246,153.855z"/>
		<path fill="#808D91" d="M356.152,157.822c0-2.631,1.155-4.108,3.463-4.108c1.997,0,3.306,1.182,3.306,3.87
			c0,0.212-0.014,0.465-0.028,0.647h-5.375c0.07,2.21,0.887,2.97,2.688,2.97c0.845,0,1.562-0.184,2.279-0.535l0.155,1.126
			c-0.704,0.379-1.576,0.619-2.59,0.619C357.293,162.41,356.152,160.96,356.152,157.822z M361.697,157.315
			c-0.029-1.772-0.858-2.447-2.069-2.447c-1.421,0-2.055,0.788-2.139,2.447H361.697z"/>
		<path fill="#808D91" d="M368.42,162.396c-1.041,0-1.913-0.396-2.433-1.042l-0.044,0.014l-0.209,0.873h-0.888v-11.116l1.322-0.086
			v2.464l-0.015,1.125l0.029,0.014c0.605-0.633,1.464-0.942,2.393-0.942c1.956,0,3.193,1.14,3.193,4.319
			C371.769,161.171,370.545,162.396,368.42,162.396z M368.224,154.911c-0.888,0-1.619,0.365-2.055,0.998v4.349
			c0.337,0.549,1.041,1.027,2.068,1.027c1.308,0,2.181-0.634,2.181-3.236C370.419,155.5,369.602,154.911,368.224,154.911z"/>
		<path fill="#808D91" d="M382.939,155.333c-0.494-0.226-1.099-0.381-1.704-0.381c-1.815,0-2.489,0.872-2.489,3.039
			c0,2.364,0.858,3.236,2.463,3.236c0.661,0,1.279-0.169,1.786-0.478l0.099,1.097c-0.493,0.339-1.28,0.577-2.167,0.577
			c-2.351,0-3.56-1.351-3.56-4.433c0-2.828,1.097-4.263,3.602-4.263c0.746,0,1.506,0.168,2.055,0.407L382.939,155.333z"/>
		<path fill="#808D91" d="M387.819,162.423c-2.532,0-3.658-1.238-3.658-4.347c0-3.111,1.141-4.363,3.658-4.363
			c2.533,0,3.603,1.253,3.603,4.363C391.422,161.185,390.339,162.423,387.819,162.423z M387.819,161.297
			c1.619,0,2.237-0.829,2.237-3.222c0-2.406-0.618-3.223-2.237-3.223c-1.646,0-2.279,0.816-2.279,3.223
			S386.173,161.297,387.819,161.297z"/>
		<path fill="#808D91" d="M402.761,162.242v-5.574c0-1.18-0.662-1.716-1.745-1.716c-0.901,0-1.661,0.521-1.661,1.576v5.713h-1.322
			v-5.713c0-1.14-0.718-1.59-1.646-1.59c-0.704,0-1.422,0.381-1.759,0.943v6.36h-1.337v-8.358l0.957-0.07l0.239,0.9h0.042
			c0.507-0.619,1.323-0.985,2.167-0.985c1.126,0,1.872,0.422,2.266,1.279h0.029c0.478-0.871,1.336-1.294,2.363-1.294
			c1.618,0,2.73,0.957,2.73,2.94v5.587L402.761,162.242L402.761,162.242z"/>
		<path fill="#808D91" d="M409.949,162.396c-0.888,0-1.704-0.226-2.28-0.914l-0.028,0.013l0.014,1.141v1.688h-1.365v-10.426
			l0.958-0.069l0.281,0.872c0.604-0.619,1.478-0.986,2.49-0.986c2.055,0,3.209,1.07,3.209,4.32
			C413.227,161.129,411.961,162.396,409.949,162.396z M409.695,154.937c-0.901,0-1.605,0.353-2.04,0.985v4.305
			c0.322,0.551,0.984,1.027,1.97,1.027c1.309,0,2.223-0.633,2.223-3.223C411.847,155.599,411.102,154.937,409.695,154.937z"/>
		<path fill="#808D91" d="M419.796,161.213l-0.042-0.014c-0.492,0.717-1.407,1.169-2.49,1.169c-1.533,0-2.575-0.804-2.575-2.688
			c0-1.576,1.013-2.547,3.012-2.547c0.718,0,1.407,0.141,1.928,0.323v-0.83c0-1.321-0.592-1.785-1.957-1.785
			c-0.887,0-1.604,0.153-2.35,0.507l-0.127-1.112c0.804-0.365,1.704-0.55,2.702-0.55c2.21,0,3.04,0.929,3.04,3.138v5.418h-1.014
			L419.796,161.213z M419.613,158.414c-0.211-0.127-0.83-0.311-1.675-0.311c-1.393,0-1.997,0.563-1.997,1.563
			c0,1.196,0.718,1.604,1.688,1.604c1.042,0,1.983-0.703,1.983-1.407L419.613,158.414L419.613,158.414z"/>
		<path fill="#808D91" d="M428.336,162.242v-5.546c0-1.237-0.661-1.759-1.899-1.759c-0.718,0-1.562,0.339-1.956,0.944v6.36h-1.337
			v-8.358l0.957-0.07l0.226,0.887h0.042c0.576-0.634,1.492-1,2.435-1c1.771,0,2.856,1,2.856,2.997v5.545H428.336L428.336,162.242z"
			/>
		<path fill="#808D91" d="M434.792,162.381l0.043-0.141l-3.672-8.387h1.548l2.392,6.093l0.394,1.057h0.042l0.311-1.083l1.927-6.065
			h1.436l-3.081,8.556c-0.592,1.532-1.408,2.082-2.575,2.082c-0.465,0-0.929-0.1-1.296-0.268l0.127-0.999
			c0.323,0.155,0.633,0.225,0.943,0.225C433.976,163.452,434.426,163.199,434.792,162.381z"/>
	</g>
</g>
</svg>
