<?xml version="1.0" encoding="utf-8"?>
<!-- Generator: Adobe Illustrator 14.0.0, SVG Export Plug-In . SVG Version: 6.00 Build 43363)  -->
<!DOCTYPE svg PUBLIC "-//W3C//DTD SVG 1.1//EN" "http://www.w3.org/Graphics/SVG/1.1/DTD/svg11.dtd">
<svg version="1.1" id="Ebene_1" xmlns="http://www.w3.org/2000/svg" xmlns:xlink="http://www.w3.org/1999/xlink" x="0px" y="0px"
	 width="300px" height="150px" viewBox="-27.756 -14.764 300 150" enable-background="new -27.756 -14.764 300 150"
	 xml:space="preserve">
<g>
	<path fill="#1D1D1B" d="M244.37,12.285v65.684c0,9.223-4.4,14.47-17.024,14.47c-12.626,0-17.023-5.249-17.023-14.47V12.285h-17.878
		v67.104c0,14.896,8.373,28.799,34.901,28.799c26.529,0,34.898-13.902,34.898-28.799V12.285H244.37z"/>
	<path fill="#1D1D1B" d="M147.625,27.038l12.91,44.688H134.43L147.625,27.038z M171.175,106.767h18.728l-29.794-94.482h-24.968
		l-29.794,94.482h18.728l5.958-19.578h35.043L171.175,106.767z"/>
	<polygon fill="#1D1D1B" points="78.331,106.767 78.331,68.891 101.503,68.891 101.503,53.141 78.331,53.141 78.331,28.03 
		118.905,28.03 118.905,12.285 60.457,12.285 60.457,106.767 	"/>
	<path fill="#1D1D1B" d="M0.118,28.03h15.463c12.06,0,15.323,4.824,15.323,13.902v35.186c0,9.079-3.264,13.902-15.323,13.902H0.118
		V28.03z M-17.756,12.285v94.482h35.183c23.267,0,31.354-11.915,31.354-25.394V37.678c0-13.619-8.088-25.394-31.354-25.394H-17.756z
		"/>
</g>
</svg>
