<?xml version="1.0" encoding="utf-8"?>
<!-- Generator: Adobe Illustrator 14.0.0, SVG Export Plug-In . SVG Version: 6.00 Build 43363)  -->
<!DOCTYPE svg PUBLIC "-//W3C//DTD SVG 1.1//EN" "http://www.w3.org/Graphics/SVG/1.1/DTD/svg11.dtd">
<svg version="1.1" id="Ebene_1" xmlns="http://www.w3.org/2000/svg" xmlns:xlink="http://www.w3.org/1999/xlink" x="0px" y="0px"
	 width="244.488px" height="120.472px" viewBox="0 0 244.488 120.472" enable-background="new 0 0 244.488 120.472"
	 xml:space="preserve">
<g>
	<path fill="#1D1D1B" d="M204.153,28.346V72.4c0,6.186-2.95,9.705-11.418,9.705c-8.468,0-11.418-3.52-11.418-9.705V28.346h-11.989
		v45.006c0,9.991,5.614,19.316,23.407,19.316s23.407-9.325,23.407-19.316V28.346H204.153z"/>
	<path fill="#1D1D1B" d="M139.267,38.241l8.659,29.973h-17.508L139.267,38.241z M155.062,91.716h12.56l-19.982-63.37h-16.746
		l-19.982,63.37h12.56l3.996-13.131h23.503L155.062,91.716z"/>
	<polygon fill="#1D1D1B" points="92.792,91.716 92.792,66.312 108.334,66.312 108.334,55.749 92.792,55.749 92.792,38.907 
		120.005,38.907 120.005,28.346 80.804,28.346 80.804,91.716 	"/>
	<path fill="#1D1D1B" d="M40.335,38.907h10.371c8.088,0,10.277,3.235,10.277,9.324V71.83c0,6.089-2.189,9.324-10.277,9.324H40.335
		V38.907z M28.347,28.346v63.37h23.597c15.605,0,21.029-7.992,21.029-17.032V45.378c0-9.134-5.424-17.032-21.029-17.032H28.347z"/>
</g>
</svg>
