<?xml version="1.0" encoding="utf-8"?>
<!-- Generator: Adobe Illustrator 14.0.0, SVG Export Plug-In . SVG Version: 6.00 Build 43363)  -->
<!DOCTYPE svg PUBLIC "-//W3C//DTD SVG 1.1//EN" "http://www.w3.org/Graphics/SVG/1.1/DTD/svg11.dtd">
<svg version="1.1" id="Ebene_1" xmlns="http://www.w3.org/2000/svg" xmlns:xlink="http://www.w3.org/1999/xlink" x="0px" y="0px"
	 width="230px" height="150px" viewBox="-13.9 44.957 230 150" enable-background="new -13.9 44.957 230 150" xml:space="preserve">
<g>
	<path fill="#BBCD21" d="M77.984,171.952v-6.015c-4.537,1.763-9.463,2.758-14.62,2.758c-22.449,0-40.629-18.18-40.629-40.631
		c0-22.412,18.18-40.609,40.629-40.609c5.157,0,10.083,0.994,14.62,2.757V54.957H9.746c0,0-13.004,0-13.004,13.003v103.993
		c0,0,0,13.004,13.004,13.004H64.98C64.98,184.956,77.984,184.956,77.984,171.952 M63.36,149.201c5.678,0,10.815-2.258,14.623-5.906
		v-30.437c-3.808-3.648-8.947-5.909-14.623-5.909c-11.667,0-21.133,9.447-21.133,21.115
		C42.228,139.738,51.692,149.201,63.36,149.201"/>
	<path fill="#BBCD21" d="M124.055,90.214V86.94l-2.33-0.48c-0.643-0.107-0.75-0.265-0.75-0.941V54.957h-8.307v3.272l2.33,0.498
		c0.623,0.106,0.749,0.248,0.749,0.943v6.456c-0.696-0.144-4.446-0.853-8.483-0.853c-8.145,0-9.783,5.459-9.783,12.664
		c0,7.469,1.316,12.648,9.354,12.648c2.387,0,3.936-0.268,3.936-0.268l3.379-2.33c0.427-0.266,0.85-0.517,1.385-0.517
		c0.839,0,0.998,0.624,1.05,0.998l0.267,1.743L124.055,90.214L124.055,90.214z M115.747,85.518c0,0-3.452,0.89-6.563,0.89
		c-5.301,0-6.35-1.708-6.35-8.467c0-6.777,1.047-8.538,6.35-8.538c2.687,0,5.979,0.498,6.563,0.533V85.518z M155.258,90.214h-6.742
		l-8.682-10.692c-0.461-0.623-0.941-1.015-1.797-1.015c-0.992,0-1.316,0.481-1.316,1.44v5.569c0,0.677,0.107,0.836,0.729,0.941
		l2.277,0.48v3.273h-11.312V86.94l2.33-0.48c0.568-0.107,0.729-0.265,0.729-0.941V59.671c0-0.696-0.16-0.838-0.729-0.943
		l-2.33-0.498v-3.272h8.307v19.745c0,0.961,0.321,1.423,1.316,1.423c0.75,0,1.334-0.461,1.797-0.941l9.32-9.591h5.516v3.292
		l-2.49,0.481c-0.479,0.107-0.748,0.107-1.117,0.462l-7.205,7.311l7.684,8.522c0.424,0.481,0.639,0.587,1.156,0.693l2.562,0.586
		L155.258,90.214L155.258,90.214z M185.586,90.214V86.94l-2.332-0.48c-0.641-0.107-0.746-0.265-0.746-0.941V54.957h-8.307v3.272
		l2.33,0.498c0.623,0.106,0.746,0.248,0.746,0.943v6.456c-0.691-0.144-4.465-0.853-8.484-0.853c-8.145,0-9.783,5.459-9.783,12.664
		c0,7.469,1.334,12.648,9.375,12.648c2.365,0,3.91-0.268,3.91-0.268l3.383-2.33c0.428-0.266,0.854-0.517,1.387-0.517
		c0.855,0,0.994,0.624,1.049,0.998l0.266,1.743L185.586,90.214L185.586,90.214z M177.278,85.518c0,0-3.451,0.89-6.561,0.89
		c-5.301,0-6.367-1.708-6.367-8.467c0-6.777,1.066-8.538,6.367-8.538c2.682,0,5.975,0.498,6.561,0.533V85.518z"/>
	<path fill="#482819" d="M103.402,111.311l-0.071-0.463c-0.021-0.105-0.054-0.284-0.285-0.284c-0.141,0-0.266,0.072-0.372,0.144
		l-0.907,0.639c0,0-0.426,0.072-1.047,0.072c-2.172,0-2.528-1.404-2.528-3.415c0-1.94,0.446-3.396,2.634-3.396
		c1.084,0,2.1,0.176,2.275,0.231v-1.746c0-0.175-0.033-0.23-0.194-0.249l-0.623-0.142v-0.89h2.224v8.218
		c0,0.195,0.035,0.249,0.195,0.268l0.641,0.121v0.893H103.402z M103.1,105.847c-0.159-0.017-1.031-0.122-1.762-0.122
		c-1.424,0-1.709,0.463-1.709,2.276c0,1.815,0.285,2.277,1.709,2.277c0.837,0,1.762-0.249,1.762-0.249V105.847z"/>
	<path fill="#482819" d="M113.028,108.446c-0.48,0.02-1.39,0.125-2.455,0.125c-0.998,0-1.494-0.106-1.494-0.106l-0.605-0.427
		c-0.105-0.072-0.159-0.107-0.284-0.107c-0.196,0-0.265,0.124-0.265,0.319v0.284c0,0.464,0.088,0.942,0.373,1.282
		c0.444,0.46,1.28,0.46,1.85,0.46c0.871,0,1.548-0.123,2.346-0.265l0.197,1.015c0,0-1.154,0.391-2.685,0.391
		c-2.241,0-3.521-0.5-3.521-3.416c0-0.836,0.124-1.671,0.354-2.171c0.462-0.994,1.462-1.226,3.008-1.226
		c2.488,0,3.219,0.586,3.219,2.899C113.063,107.753,113.063,107.966,113.028,108.446z M109.914,105.69
		c-1.852,0-1.904,0.284-1.992,1.71c0.871,0.139,1.902,0.106,1.902,0.106s1.035,0.017,1.798-0.052
		C111.621,105.847,111.266,105.69,109.914,105.69z"/>
	<path fill="#482819" d="M121.174,105.654c-0.196,0.036-0.248,0.09-0.303,0.25l-1.85,5.408h-2.529l-1.812-5.408
		c-0.054-0.142-0.125-0.215-0.302-0.232l-0.463-0.088v-0.89h2.704v0.89l-0.374,0.071c-0.176,0.036-0.194,0.161-0.159,0.286
		l1.263,3.912c0.088,0.305,0.16,0.5,0.41,0.5c0.283,0,0.334-0.196,0.444-0.5l1.19-3.912c0.052-0.144,0.033-0.25-0.145-0.286
		l-0.391-0.071v-0.89h2.758v0.89L121.174,105.654z"/>
	<path fill="#482819" d="M129.018,108.446c-0.461,0.02-1.385,0.125-2.453,0.125c-1.014,0-1.494-0.106-1.494-0.106l-0.605-0.427
		c-0.106-0.072-0.158-0.107-0.284-0.107c-0.196,0-0.265,0.124-0.265,0.319v0.284c0,0.464,0.088,0.942,0.373,1.282
		c0.445,0.46,1.264,0.46,1.852,0.46c0.871,0,1.546-0.123,2.347-0.265l0.196,1.015c0,0-1.156,0.391-2.686,0.391
		c-2.24,0-3.522-0.5-3.522-3.416c0-0.836,0.126-1.671,0.355-2.171c0.447-0.994,1.461-1.226,3.01-1.226
		c2.487,0,3.217,0.586,3.217,2.899C129.055,107.753,129.035,107.966,129.018,108.446z M125.906,105.69
		c-1.851,0-1.904,0.284-1.993,1.71c0.873,0.139,1.904,0.106,1.904,0.106s1.033,0.017,1.797-0.052
		C127.612,105.847,127.258,105.69,125.906,105.69z"/>
	<path fill="#482819" d="M130.315,111.311v-0.89l0.624-0.121c0.161-0.021,0.196-0.074,0.196-0.269v-6.939
		c0-0.175-0.035-0.23-0.196-0.249l-0.624-0.142v-0.89h2.225v8.218c0,0.195,0.035,0.249,0.217,0.268l0.604,0.121v0.893H130.315z"/>
	<path fill="#482819" d="M137.948,111.417c-2.758,0-3.256-0.604-3.256-3.415c0-2.81,0.498-3.396,3.256-3.396
		c2.779,0,3.258,0.586,3.258,3.396C141.205,110.813,140.725,111.417,137.948,111.417z M137.948,105.69
		c-1.654,0-1.812,0.231-1.812,2.312c0,2.082,0.161,2.314,1.812,2.314c1.672,0,1.832-0.232,1.832-2.314
		C139.78,105.921,139.621,105.69,137.948,105.69z"/>
	<path fill="#482819" d="M146.541,111.417c-0.941,0-1.832-0.268-1.832-0.268v1.728c0,0.179,0.02,0.213,0.195,0.249l0.604,0.143
		v0.872h-3.041v-0.872l0.623-0.143c0.16-0.036,0.195-0.07,0.195-0.249v-6.92c0-0.195-0.035-0.232-0.195-0.267l-0.623-0.106v-0.89
		h1.904l0.072,0.46c0,0.107,0.053,0.285,0.283,0.285c0.123,0,0.248-0.089,0.357-0.161l0.906-0.641c0,0,0.496-0.033,0.852-0.033
		c2.225,0,2.777,0.941,2.777,3.36C149.617,110.421,149.067,111.417,146.541,111.417z M146.469,105.725
		c-0.854,0-1.762,0.178-1.762,0.178v4.233c0,0,0.748,0.142,1.725,0.142c1.424,0,1.742-0.354,1.742-2.277
		C148.176,106.17,147.873,105.725,146.469,105.725z"/>
	<path fill="#482819" d="M162.442,107.131v2.899c0,0.195,0.021,0.249,0.197,0.269l0.605,0.121v0.892h-3.045v-0.891l0.623-0.121
		c0.162-0.021,0.213-0.074,0.213-0.269v-2.775c0-1.335-0.283-1.513-1.6-1.513c-0.693,0-1.404,0.071-1.744,0.142
		c0.107,0.249,0.16,0.569,0.16,0.871v3.272c0,0.195,0.037,0.25,0.195,0.269l0.625,0.121v0.893h-3.043v-0.889l0.623-0.121
		c0.162-0.021,0.195-0.074,0.195-0.269v-2.775c0-1.335-0.266-1.531-1.58-1.531c-0.676,0-1.318,0.106-1.621,0.161v4.145
		c0,0.195,0.02,0.249,0.197,0.269l0.604,0.121v0.892h-3.041v-0.891l0.641-0.121c0.143-0.021,0.197-0.074,0.197-0.269v-4.074
		c0-0.195-0.055-0.232-0.197-0.267l-0.641-0.106v-0.89h1.904l0.072,0.46c0.02,0.107,0.055,0.285,0.283,0.285
		c0.141,0,0.25-0.089,0.375-0.161l0.891-0.622c0.303-0.035,0.496-0.052,0.941-0.052c0.854,0,1.299,0.088,1.939,0.656
		c0.23,0.214,0.32,0.178,0.533,0l0.908-0.623c0,0,0.498-0.033,0.959-0.033C161.873,104.605,162.442,105.119,162.442,107.131z"/>
	<path fill="#482819" d="M171.053,108.446c-0.48,0.02-1.387,0.125-2.455,0.125c-1.012,0-1.492-0.106-1.492-0.106l-0.607-0.427
		c-0.105-0.072-0.158-0.107-0.283-0.107c-0.197,0-0.283,0.124-0.283,0.319v0.284c0,0.464,0.107,0.942,0.393,1.282
		c0.443,0.46,1.264,0.46,1.85,0.46c0.873,0,1.547-0.123,2.35-0.265l0.174,1.015c0,0-1.135,0.391-2.668,0.391
		c-2.242,0-3.523-0.5-3.523-3.416c0-0.836,0.127-1.671,0.357-2.171c0.445-0.994,1.461-1.226,2.988-1.226
		c2.49,0,3.236,0.586,3.236,2.899C171.088,107.753,171.071,107.966,171.053,108.446z M167.94,105.69
		c-1.867,0-1.902,0.284-1.992,1.71c0.873,0.139,1.904,0.106,1.904,0.106s1.031,0.017,1.795-0.052
		C169.647,105.847,169.276,105.69,167.94,105.69z"/>
	<path fill="#482819" d="M177.244,111.311v-0.89l0.621-0.121c0.16-0.021,0.197-0.074,0.197-0.269v-2.775
		c0-1.335-0.268-1.531-1.584-1.531c-0.713,0-1.426,0.106-1.764,0.178v4.126c0,0.195,0.035,0.249,0.217,0.268l0.604,0.121v0.893
		h-3.043v-0.89l0.623-0.121c0.162-0.021,0.195-0.074,0.195-0.269v-4.074c0-0.195-0.033-0.232-0.195-0.267l-0.623-0.106v-0.89h1.908
		l0.051,0.46c0.016,0.107,0.055,0.285,0.285,0.285c0.143,0,0.25-0.089,0.369-0.161l0.893-0.622c0,0,0.59-0.052,0.854-0.052
		c2.049,0,2.633,0.513,2.633,2.525v2.898c0,0.195,0.018,0.25,0.197,0.269l0.604,0.121v0.893L177.244,111.311L177.244,111.311z"/>
	<path fill="#482819" d="M184.182,111.364c-1.727,0-1.941-0.656-1.941-2.188v-3.414h-1.332v-1.069h1.332v-1.778h1.406v1.778h1.957
		v1.068h-1.957v3.628c0,0.748,0.088,0.926,0.891,0.926c0.318,0,0.941-0.107,0.941-0.107l0.125,0.96
		C185.606,111.169,184.948,111.364,184.182,111.364z"/>
	<path fill="#482819" d="M105.254,127.818h-1.815l-2.33-2.877c-0.125-0.179-0.249-0.286-0.48-0.286
		c-0.285,0-0.358,0.143-0.358,0.392v1.493c0,0.177,0.021,0.232,0.198,0.251l0.604,0.14v0.891H98.03v-0.891l0.622-0.14
		c0.16-0.019,0.213-0.073,0.213-0.251v-6.936c0-0.175-0.053-0.231-0.213-0.249l-0.622-0.143v-0.89h2.241v5.318
		c0,0.265,0.072,0.37,0.357,0.37c0.196,0,0.355-0.105,0.48-0.247l2.508-2.562h1.474v0.872l-0.676,0.125
		c-0.121,0.035-0.194,0.035-0.283,0.142l-1.939,1.956l2.063,2.277c0.105,0.143,0.159,0.179,0.302,0.198l0.697,0.158V127.818
		L105.254,127.818z"/>
	<path fill="#482819" d="M109.487,127.907c-2.758,0-3.256-0.587-3.256-3.398c0-2.808,0.498-3.415,3.256-3.415
		c2.777,0,3.272,0.607,3.272,3.415C112.759,127.321,112.262,127.907,109.487,127.907z M109.487,122.198
		c-1.637,0-1.812,0.23-1.812,2.311c0,2.062,0.175,2.313,1.812,2.313c1.672,0,1.832-0.251,1.832-2.313
		C111.319,122.429,111.158,122.198,109.487,122.198z"/>
	<path fill="#482819" d="M125.584,123.639v2.898c0,0.177,0.02,0.232,0.195,0.25l0.605,0.141v0.89h-3.043v-0.89l0.623-0.141
		c0.16-0.018,0.214-0.072,0.214-0.25v-2.775c0-1.333-0.286-1.528-1.601-1.528c-0.693,0-1.404,0.071-1.743,0.14
		c0.106,0.268,0.161,0.567,0.161,0.893v3.271c0,0.177,0.035,0.232,0.197,0.25l0.619,0.141v0.89h-3.042v-0.89l0.624-0.141
		c0.142-0.018,0.195-0.072,0.195-0.25v-2.775c0-1.333-0.265-1.528-1.582-1.528c-0.676,0-1.318,0.106-1.619,0.14v4.164
		c0,0.177,0.021,0.232,0.196,0.25l0.606,0.141v0.89h-3.043v-0.89l0.623-0.141c0.16-0.018,0.213-0.072,0.213-0.25v-4.089
		c0-0.178-0.053-0.215-0.213-0.25l-0.623-0.125v-0.872h1.904l0.072,0.462c0,0.108,0.055,0.266,0.285,0.266
		c0.14,0,0.248-0.07,0.355-0.142l0.908-0.619c0.302-0.035,0.498-0.073,0.94-0.073c0.854,0,1.299,0.107,1.939,0.678
		c0.229,0.212,0.319,0.158,0.534,0l0.906-0.623c0,0,0.498-0.055,0.961-0.055C125.016,121.094,125.584,121.628,125.584,123.639z"/>
	<path fill="#482819" d="M139.053,123.639v2.898c0,0.177,0.033,0.232,0.215,0.25l0.604,0.141v0.89h-3.042v-0.89l0.622-0.141
		c0.16-0.018,0.195-0.072,0.195-0.25v-2.775c0-1.333-0.264-1.528-1.602-1.528c-0.692,0-1.406,0.071-1.742,0.14
		c0.106,0.268,0.178,0.567,0.178,0.893v3.271c0,0.177,0.018,0.232,0.196,0.25l0.604,0.141v0.89h-3.043v-0.89l0.623-0.141
		c0.159-0.018,0.214-0.072,0.214-0.25v-2.775c0-1.333-0.281-1.528-1.582-1.528c-0.695,0-1.332,0.106-1.637,0.14v4.164
		c0,0.177,0.037,0.232,0.215,0.25l0.605,0.141v0.89h-3.043v-0.89l0.623-0.141c0.16-0.018,0.196-0.072,0.196-0.25v-4.089
		c0-0.178-0.036-0.215-0.196-0.25l-0.623-0.125v-0.872h1.904l0.053,0.462c0.02,0.108,0.055,0.266,0.284,0.266
		c0.144,0,0.268-0.07,0.374-0.142l0.891-0.619c0.318-0.035,0.5-0.073,0.941-0.073c0.872,0,1.316,0.107,1.957,0.678
		c0.232,0.212,0.305,0.158,0.518,0l0.922-0.623c0,0,0.502-0.055,0.943-0.055C138.481,121.094,139.053,121.628,139.053,123.639z"/>
	<path fill="#482819" d="M146.807,127.818l-0.072-0.479c-0.016-0.09-0.053-0.265-0.283-0.265c-0.145,0-0.25,0.071-0.371,0.143
		l-0.873,0.622c0,0-0.48,0.054-0.732,0.054c-2.061,0-2.613-0.534-2.613-2.529v-2.915c0-0.178-0.055-0.215-0.195-0.25l-0.641-0.125
		v-0.872h2.24v4.056c0,1.316,0.252,1.53,1.584,1.53c0.695,0,1.316-0.108,1.654-0.178v-4.161c0-0.178-0.033-0.215-0.197-0.25
		l-0.619-0.125v-0.872h2.242v5.338c0,0.177,0.018,0.232,0.195,0.251l0.605,0.14v0.891L146.807,127.818L146.807,127.818z"/>
	<path fill="#482819" d="M154.778,127.818v-0.89l0.639-0.141c0.143-0.018,0.197-0.072,0.197-0.25v-2.775
		c0-1.333-0.268-1.528-1.602-1.528c-0.697,0-1.426,0.106-1.744,0.175v4.129c0,0.177,0.018,0.229,0.195,0.25l0.604,0.141v0.89h-3.043
		v-0.89l0.623-0.141c0.164-0.018,0.215-0.072,0.215-0.25v-4.089c0-0.178-0.051-0.215-0.215-0.25l-0.623-0.125v-0.872h1.906
		l0.072,0.462c0,0.108,0.053,0.266,0.283,0.266c0.125,0,0.25-0.07,0.355-0.142l0.908-0.619c0,0,0.588-0.073,0.838-0.073
		c2.061,0,2.633,0.535,2.633,2.545v2.898c0,0.177,0.037,0.23,0.197,0.25l0.605,0.141v0.891h-3.045V127.818z"/>
	<path fill="#482819" d="M159.063,127.818v-0.89l0.645-0.141c0.141-0.018,0.193-0.072,0.193-0.25v-4.089
		c0-0.178-0.053-0.215-0.193-0.25l-0.645-0.125v-0.872h2.242v5.338c0,0.177,0.037,0.232,0.197,0.251l0.604,0.14v0.891
		L159.063,127.818L159.063,127.818z M159.58,119.992v-1.672h1.725v1.672H159.58z"/>
	<path fill="#482819" d="M170.5,127.818h-1.797l-2.346-2.877c-0.125-0.179-0.25-0.286-0.48-0.286c-0.264,0-0.357,0.143-0.357,0.392
		v1.493c0,0.177,0.037,0.232,0.197,0.251l0.623,0.14v0.891h-3.061v-0.891l0.639-0.14c0.162-0.019,0.197-0.073,0.197-0.251v-6.936
		c0-0.175-0.035-0.231-0.197-0.249l-0.639-0.143v-0.89h2.24v5.318c0,0.265,0.092,0.37,0.357,0.37c0.195,0,0.355-0.105,0.48-0.247
		l2.508-2.562h1.477v0.872l-0.656,0.125c-0.123,0.035-0.197,0.035-0.305,0.142l-1.941,1.956l2.066,2.277
		c0.123,0.143,0.176,0.179,0.316,0.198l0.676,0.158L170.5,127.818L170.5,127.818z"/>
	<path fill="#482819" d="M176.834,127.818l-0.07-0.459c0-0.09-0.051-0.249-0.285-0.249c-0.125,0-0.248,0.071-0.357,0.14
		l-0.891,0.605c0,0-0.602,0.054-1.084,0.054c-2.1,0-2.705-0.445-2.705-2.135c0-1.583,0.535-2.063,2.348-2.082l2.777-0.034v-0.285
		c0-0.513-0.162-0.818-0.57-0.995c-0.301-0.141-0.729-0.161-1.316-0.161c-1.336,0-2.648,0.305-2.648,0.305l-0.195-1.068
		c0,0,1.279-0.357,3.057-0.357c1.016,0,1.766,0.107,2.262,0.395c0.549,0.283,0.816,0.799,0.816,1.71v3.341
		c0,0.177,0.02,0.232,0.195,0.251l0.605,0.14v0.891h-1.939v-0.004H176.834z M176.567,124.652l-2.189,0.054
		c-0.994,0.02-1.512-0.124-1.512,1.067c0,0.979,0.412,1.015,1.426,1.015c1.047,0,2.275-0.25,2.275-0.25V124.652L176.567,124.652z"/>
	<path fill="#482819" d="M182.635,127.853c-1.725,0-1.941-0.655-1.941-2.167v-3.415h-1.332v-1.069h1.332v-1.777h1.406v1.777h1.959
		v1.069H182.1v3.63c0,0.729,0.088,0.924,0.906,0.924c0.303,0,0.926-0.108,0.926-0.108l0.125,0.96
		C184.057,127.675,183.397,127.853,182.635,127.853z"/>
	<path fill="#482819" d="M185.373,127.818v-0.89l0.621-0.141c0.162-0.018,0.197-0.072,0.197-0.25v-4.089
		c0-0.178-0.035-0.215-0.197-0.25l-0.621-0.125v-0.872h2.223v5.338c0,0.177,0.037,0.232,0.215,0.251l0.605,0.14v0.891
		L185.373,127.818L185.373,127.818z M185.889,119.992v-1.672h1.707v1.672H185.889z"/>
	<path fill="#482819" d="M193.004,127.907c-2.756,0-3.258-0.587-3.258-3.398c0-2.808,0.502-3.415,3.258-3.415
		c2.775,0,3.258,0.607,3.258,3.415C196.258,127.321,195.78,127.907,193.004,127.907z M193.004,122.198
		c-1.654,0-1.814,0.23-1.814,2.311c0,2.062,0.162,2.313,1.814,2.313c1.67,0,1.812-0.251,1.812-2.313
		C194.819,122.429,194.674,122.198,193.004,122.198z"/>
	<path fill="#482819" d="M202.414,127.818v-0.89l0.623-0.141c0.16-0.018,0.213-0.072,0.213-0.25v-2.775
		c0-1.333-0.283-1.528-1.602-1.528c-0.695,0-1.424,0.106-1.744,0.175v4.129c0,0.177,0.018,0.229,0.197,0.25l0.604,0.141v0.89h-3.043
		v-0.89l0.623-0.141c0.164-0.018,0.197-0.072,0.197-0.25v-4.089c0-0.178-0.033-0.215-0.197-0.25l-0.623-0.125v-0.872h1.908
		l0.051,0.462c0.021,0.108,0.07,0.266,0.285,0.266c0.143,0,0.266-0.07,0.373-0.142l0.904-0.619c0,0,0.572-0.073,0.842-0.073
		c2.061,0,2.631,0.535,2.631,2.545v2.898c0,0.177,0.018,0.23,0.197,0.25l0.604,0.141v0.891h-3.043V127.818z"/>
	<path fill="#482819" d="M103.402,144.326l-0.071-0.48c-0.021-0.089-0.054-0.267-0.285-0.267c-0.141,0-0.266,0.072-0.372,0.144
		l-0.907,0.62c0,0-0.426,0.073-1.047,0.073c-2.172,0-2.528-1.406-2.528-3.4c0-1.94,0.446-3.413,2.634-3.413
		c1.084,0,2.1,0.195,2.275,0.248v-1.742c0-0.194-0.033-0.249-0.194-0.249l-0.623-0.143v-0.892h2.224v8.218
		c0,0.178,0.035,0.231,0.195,0.252l0.641,0.139v0.893H103.402z M103.1,138.865c-0.159-0.021-1.031-0.143-1.762-0.143
		c-1.424,0-1.709,0.48-1.709,2.294c0,1.814,0.285,2.279,1.709,2.279c0.837,0,1.762-0.252,1.762-0.252V138.865z"/>
	<path fill="#482819" d="M113.028,141.444c-0.48,0.036-1.39,0.124-2.455,0.124c-0.998,0-1.494-0.088-1.494-0.088l-0.605-0.427
		c-0.105-0.071-0.159-0.107-0.284-0.107c-0.196,0-0.265,0.125-0.265,0.321v0.282c0,0.447,0.088,0.941,0.373,1.265
		c0.444,0.48,1.28,0.48,1.85,0.48c0.871,0,1.548-0.144,2.346-0.286l0.197,1.033c0,0-1.154,0.374-2.685,0.374
		c-2.241,0-3.521-0.48-3.521-3.401c0-0.852,0.124-1.669,0.354-2.188c0.462-0.979,1.462-1.228,3.008-1.228
		c2.488,0,3.219,0.604,3.219,2.918C113.063,140.751,113.063,140.983,113.028,141.444z M109.914,138.705
		c-1.852,0-1.904,0.282-1.992,1.709c0.871,0.121,1.902,0.088,1.902,0.088s1.035,0.019,1.798-0.053
		C111.621,138.865,111.266,138.705,109.914,138.705z"/>
	<path fill="#482819" d="M117.758,144.416c-1.812,0-3.15-0.286-3.15-0.286l0.164-1.154c0,0,1.512,0.301,2.826,0.301
		c1.245,0,1.763-0.265,1.763-0.872c0-0.85-0.569-0.711-1.886-0.797c-1.566-0.092-2.92,0-2.92-1.959c0-1.673,0.996-2.045,3.078-2.045
		c1.423,0,2.721,0.303,2.721,0.303l-0.16,1.084c0,0-1.296-0.248-2.543-0.248c-1.316,0-1.723,0.124-1.723,0.854
		c0,0.835,0.816,0.695,2.026,0.747c1.743,0.072,2.812,0.143,2.812,1.958C120.765,143.97,119.573,144.416,117.758,144.416z"/>
	<path fill="#482819" d="M122.203,144.326v-0.893l0.643-0.139c0.145-0.021,0.197-0.072,0.197-0.252v-4.088
		c0-0.179-0.053-0.216-0.197-0.25l-0.643-0.123v-0.891h2.245v5.352c0,0.178,0.034,0.231,0.194,0.252l0.624,0.139v0.893H122.203z
		 M122.721,136.483v-1.657h1.727v1.657H122.721z"/>
	<path fill="#482819" d="M128.092,142.744c0,0.479,0.053,0.587,1.139,0.587h1.852c1.848,0,2.417,0.304,2.417,1.885
		c0,1.476-0.585,1.922-3.751,1.922c-1.528,0-2.846-0.232-2.846-0.232l0.107-1.119c0.017,0,1.601,0.215,2.722,0.215
		c0.48,0,1.388-0.019,1.778-0.109c0.428-0.07,0.604-0.215,0.604-0.676c0-0.533-0.162-0.642-0.642-0.708c-0.197,0-0.424,0-0.642,0
		h-2.062c-0.852,0-2.029,0.052-2.029-1.177c0-0.07,0.02-0.177,0.02-0.249l0.746-0.785c0.054-0.052,0.089-0.105,0.089-0.176
		c0-0.143-0.07-0.176-0.14-0.231c-0.553-0.338-0.766-0.656-0.766-1.886c0-1.85,0.516-2.42,3.115-2.399l4.004,0.034v0.891
		l-1.605,0.072c-0.159,0-0.248,0.072-0.248,0.216c0,0.088,0.072,0.143,0.124,0.212l0.8,0.819c0,0,0.035,0.23,0.035,0.319
		c0,1.813-0.784,2.205-3.185,2.205c-1.069,0-1.585-0.177-1.585-0.177S128.092,142.476,128.092,142.744z M131.35,138.634
		c0,0-0.926-0.035-1.549-0.035c-1.298,0-1.656,0.143-1.656,1.425c0,1.331,0.394,1.37,1.656,1.37c1.244,0,1.67-0.054,1.67-1.405
		C131.473,139.577,131.438,139.025,131.35,138.634z"/>
	<path fill="#482819" d="M139.442,144.326v-0.893l0.625-0.139c0.158-0.021,0.215-0.072,0.215-0.252v-2.79
		c0-1.319-0.285-1.514-1.605-1.514c-0.693,0-1.422,0.106-1.742,0.162v4.142c0,0.178,0.02,0.231,0.195,0.252l0.605,0.139v0.893
		h-3.043v-0.893l0.623-0.139c0.159-0.021,0.197-0.072,0.197-0.252v-4.088c0-0.179-0.038-0.216-0.197-0.25l-0.623-0.123v-0.891h1.904
		l0.053,0.48c0.02,0.086,0.073,0.265,0.285,0.265c0.143,0,0.268-0.071,0.375-0.143l0.906-0.622c0,0,0.568-0.071,0.836-0.071
		c2.062,0,2.635,0.533,2.635,2.542v2.898c0,0.178,0.018,0.231,0.195,0.251l0.604,0.14v0.893L139.442,144.326L139.442,144.326z"/>
</g>
</svg>
