<?xml version="1.0" encoding="utf-8"?>
<!-- Generator: Adobe Illustrator 14.0.0, SVG Export Plug-In . SVG Version: 6.00 Build 43363)  -->
<!DOCTYPE svg PUBLIC "-//W3C//DTD SVG 1.1//EN" "http://www.w3.org/Graphics/SVG/1.1/DTD/svg11.dtd">
<svg version="1.1" id="Ebene_1" xmlns="http://www.w3.org/2000/svg" xmlns:xlink="http://www.w3.org/1999/xlink" x="0px" y="0px"
	 width="300px" height="150px" viewBox="-8.268 -47.429 300 150" enable-background="new -8.268 -47.429 300 150"
	 xml:space="preserve">
<g>
	<g>
		<path fill="#D1003A" d="M236.115,26.238l-25.117-0.009v-5.415l20.137-0.001c1.055,0,1.921-0.865,1.925-1.919l0.013-3.665
			c0.006-1.054-0.857-1.92-1.913-1.92l-20.161-0.008v-5.42l25.116-0.003c1.055,0,1.916-0.862,1.916-1.918V2.266
			c0-1.053-0.861-1.917-1.916-1.917h-30.832c-1.055,0-1.917,0.863-1.917,1.917v29.57c0,1.055,0.862,1.916,1.917,1.916h30.828
			c1.058,0,1.918-0.861,1.92-1.916l0.002-3.684C238.031,27.099,237.17,26.238,236.115,26.238z"/>
		<path fill="#D1003A" d="M36.308,0.373h-3.822c-1.056,0-1.918,0.865-1.918,1.917l-0.005,10.961H9.46L9.451,2.254
			c0-1.054-0.865-1.917-1.918-1.917H3.659C2.604,0.337,1.74,1.2,1.74,2.254v29.635c0,1.055,0.863,1.92,1.919,1.92h3.874
			c1.053,0,1.918-0.865,1.918-1.92l0.004-11.125h21.107l0.005,11.127c0,1.055,0.863,1.914,1.918,1.912l3.822-0.006
			c1.059-0.002,1.919-0.865,1.919-1.922V2.291C38.229,1.238,37.366,0.373,36.308,0.373z"/>
		<path fill="#D1003A" d="M76.037,26.238l-25.116-0.003v-5.412l20.137-0.01c1.054,0,1.919-0.865,1.924-1.919l0.011-3.665
			c0.004-1.054-0.855-1.92-1.911-1.92L50.92,13.304V7.883l25.113-0.005c1.057,0,1.919-0.862,1.919-1.918V2.266
			c0-1.053-0.863-1.917-1.919-1.917H45.204c-1.055,0-1.919,0.863-1.919,1.917v29.57c0,1.055,0.864,1.916,1.919,1.916h30.828
			c1.057,0,1.917-0.861,1.921-1.916v-3.684C77.955,27.099,77.092,26.238,76.037,26.238z"/>
		<path fill="#D1003A" d="M115.899,0.389H83.965c-1.057,0-1.918,0.861-1.918,1.916v3.688c0,1.055,0.861,1.917,1.918,1.917h12.153
			l-0.002,23.958c0,1.055,0.861,1.918,1.918,1.918h4.113c1.055,0,1.917-0.863,1.917-1.918l0.004-23.958h11.829
			c1.056,0,1.917-0.861,1.917-1.917V2.305C117.816,1.251,116.953,0.389,115.899,0.389z"/>
		<path fill="#D1003A" d="M270.623,21.607c2.093-0.499,4.126-1.296,5.506-2.962c0.018-0.019,0.035-0.031,0.052-0.05
			c1.675-2.028,2.53-4.452,2.53-7.207c0-2.304-0.576-4.358-1.713-6.099c-1.918-2.985-4.606-4.591-7.989-4.769
			c-0.019-0.002-1.65-0.044-1.65-0.044c-1.053-0.031-2.779-0.059-3.834-0.061l-19.021-0.037c-1.057-0.003-1.917,0.861-1.917,1.915
			v29.589c0,1.055,0.86,1.918,1.917,1.918h3.63c1.056,0,1.918-0.863,1.918-1.918l-0.009-9.646l8.931-0.013
			c1.059,0,2.521,0.618,3.253,1.378l8.768,8.803c0.732,0.758,1.948,1.377,3.001,1.377l6.73,0.002c1.052,0,1.309-0.613,0.568-1.363
			C281.294,32.421,270.877,21.867,270.623,21.607z M268.18,14.722l-18.112,0.01V7.918l18.112-0.012c1.549,0,2.814,1.268,2.814,2.818
			v0.448c0.002,0.062,0.018,0.115,0.018,0.18c0,0.056-0.014,0.109-0.018,0.165v0.39C270.993,13.453,269.729,14.722,268.18,14.722z"
			/>
		<path fill="#D1003A" d="M155.87,26.123c0,0-21.015-0.004-21.386-0.004l21.068-18.511c0.793-0.696,1.433-2.127,1.429-3.183
			L156.98,2.29c-0.004-1.052-0.873-1.917-1.925-1.917h-31.217c-1.056,0-1.92,0.865-1.92,1.917v3.711c0,1.055,0.864,1.915,1.92,1.915
			c0,0,19.758-0.004,20.122-0.004c-0.256,0.224-20.95,18.37-20.95,18.37c-0.792,0.698-1.439,2.13-1.441,3.185v2.416
			c0,1.055,0.864,1.916,1.917,1.916h32.385c1.054,0,1.917-0.861,1.917-1.916V28.04C157.788,26.986,156.926,26.123,155.87,26.123z"/>
	</g>
	<path fill="#D1003A" d="M236.115,26.238l-25.117-0.009v-5.415l20.137-0.001c1.055,0,1.921-0.865,1.925-1.919l0.013-3.665
		c0.006-1.054-0.857-1.92-1.913-1.92l-20.161-0.008v-5.42l25.116-0.003c1.055,0,1.916-0.862,1.916-1.918V2.266
		c0-1.053-0.861-1.917-1.916-1.917h-30.832c-1.055,0-1.917,0.863-1.917,1.917v29.57c0,1.055,0.862,1.916,1.917,1.916h30.828
		c1.058,0,1.918-0.861,1.92-1.916l0.002-3.684C238.031,27.099,237.17,26.238,236.115,26.238z"/>
	<path fill="#D1003A" d="M36.308,0.373h-3.822c-1.056,0-1.918,0.865-1.918,1.917l-0.005,10.961H9.46L9.451,2.254
		c0-1.054-0.865-1.917-1.918-1.917H3.659C2.604,0.337,1.74,1.2,1.74,2.254v29.635c0,1.055,0.863,1.92,1.919,1.92h3.874
		c1.053,0,1.918-0.865,1.918-1.92l0.004-11.125h21.107l0.005,11.127c0,1.055,0.863,1.914,1.918,1.912l3.822-0.006
		c1.059-0.002,1.919-0.865,1.919-1.922V2.291C38.229,1.238,37.366,0.373,36.308,0.373z"/>
	<path fill="#D1003A" d="M76.037,26.238l-25.116-0.003v-5.412l20.137-0.01c1.054,0,1.919-0.865,1.924-1.919l0.011-3.665
		c0.004-1.054-0.855-1.92-1.911-1.92L50.92,13.304V7.883l25.113-0.005c1.057,0,1.919-0.862,1.919-1.918V2.266
		c0-1.053-0.863-1.917-1.919-1.917H45.204c-1.055,0-1.919,0.863-1.919,1.917v29.57c0,1.055,0.864,1.916,1.919,1.916h30.828
		c1.057,0,1.917-0.861,1.921-1.916v-3.684C77.955,27.099,77.092,26.238,76.037,26.238z"/>
	<path fill="#D1003A" d="M115.899,0.389H83.965c-1.057,0-1.918,0.861-1.918,1.916v3.688c0,1.055,0.861,1.917,1.918,1.917h12.153
		l-0.002,23.958c0,1.055,0.861,1.918,1.918,1.918h4.113c1.055,0,1.917-0.863,1.917-1.918l0.004-23.958h11.829
		c1.056,0,1.917-0.861,1.917-1.917V2.305C117.816,1.251,116.953,0.389,115.899,0.389z"/>
	<path fill="#D1003A" d="M270.623,21.607c2.093-0.499,4.126-1.296,5.506-2.962c0.018-0.019,0.035-0.031,0.052-0.05
		c1.675-2.028,2.53-4.452,2.53-7.207c0-2.304-0.576-4.358-1.713-6.099c-1.918-2.985-4.606-4.591-7.989-4.769
		c-0.019-0.002-1.65-0.044-1.65-0.044c-1.053-0.031-2.779-0.059-3.834-0.061l-19.021-0.037c-1.057-0.003-1.917,0.861-1.917,1.915
		v29.589c0,1.055,0.86,1.918,1.917,1.918h3.63c1.056,0,1.918-0.863,1.918-1.918l-0.009-9.646l8.931-0.013
		c1.059,0,2.521,0.618,3.253,1.378l8.768,8.803c0.732,0.758,1.948,1.377,3.001,1.377l6.73,0.002c1.052,0,1.309-0.613,0.568-1.363
		C281.294,32.421,270.877,21.867,270.623,21.607z M268.18,14.722l-18.112,0.01V7.918l18.112-0.012c1.549,0,2.814,1.268,2.814,2.818
		v0.448c0.002,0.062,0.018,0.115,0.018,0.18c0,0.056-0.014,0.109-0.018,0.165v0.39C270.993,13.453,269.729,14.722,268.18,14.722z"/>
	<path fill="#D1003A" d="M155.87,26.123c0,0-21.015-0.004-21.386-0.004l21.068-18.511c0.793-0.696,1.433-2.127,1.429-3.183
		L156.98,2.29c-0.004-1.052-0.873-1.917-1.925-1.917h-31.217c-1.056,0-1.92,0.865-1.92,1.917v3.711c0,1.055,0.864,1.915,1.92,1.915
		c0,0,19.758-0.004,20.122-0.004c-0.256,0.224-20.95,18.37-20.95,18.37c-0.792,0.698-1.439,2.13-1.441,3.185v2.416
		c0,1.055,0.864,1.916,1.917,1.916h32.385c1.054,0,1.917-0.861,1.917-1.916V28.04C157.788,26.986,156.926,26.123,155.87,26.123z"/>
	<rect x="1.732" y="52.841" fill="#58585A" width="156.068" height="1.828"/>
	<rect x="254.097" y="52.835" fill="#58585A" width="27.635" height="1.828"/>
	<path fill="#58585A" d="M166.356,41.923c-3.244,0-4.629,1.447-4.629,4.838v3.205c0,3.393,1.384,4.84,4.629,4.84h6.752
		c3.243,0,4.628-1.449,4.628-4.84V46.76c0-3.391-1.383-4.838-4.628-4.838H166.356z M164.213,50.567v-4.404
		c0-1.473,0.645-2.045,2.304-2.045h6.431c1.658,0,2.304,0.572,2.304,2.045v4.404c0,1.471-0.646,2.045-2.304,2.045h-6.431
		C164.858,52.612,164.213,52.038,164.213,50.567z"/>
	<path fill="#58585A" d="M193.778,42.053c0,0,0,7.998,0,9.695c-1.312-1.258-10.109-9.695-10.109-9.695h-2.991v12.623h2.482
		c0,0,0-8.002,0-9.697c1.312,1.258,10.11,9.697,10.11,9.697h2.991V42.053H193.778z"/>
	<path fill="#58585A" d="M199.51,42.053v12.623h11.586v-2.195c0,0-8.292,0-9.103,0c0-0.82,0-10.428,0-10.428H199.51z"/>
	<rect x="213.081" y="42.053" fill="#58585A" width="2.482" height="12.621"/>
	<path fill="#58585A" d="M231.965,42.053c0,0,0,7.998,0,9.695c-1.312-1.258-10.107-9.695-10.107-9.695h-2.994v12.623h2.486
		c0,0,0-8.002,0-9.697c1.312,1.258,10.106,9.697,10.106,9.697h2.994V42.053H231.965z"/>
	<path fill="#58585A" d="M237.697,42.053v12.623h12.477v-2.195c0,0-9.174,0-9.992,0c0-0.623,0-2.572,0-3.197c0.814,0,9.54,0,9.54,0
		v-2.195c0,0-8.726,0-9.54,0c0-0.6,0-2.242,0-2.842c0.817,0,9.929,0,9.929,0v-2.193H237.697z"/>
	<path fill="#D1003A" d="M198.929,12.037c-0.005-0.207-0.003-0.453,0.003-0.721c-0.004-2.295-0.58-4.34-1.712-6.074
		c-1.918-2.984-4.672-4.696-8.055-4.874C189.147,0.366,163.7,0.374,163.7,0.374c-1.054,0-1.922,0.865-1.922,1.917v29.585
		c0,1.055,0.868,1.916,1.922,1.916l4.06,0.004c1.043,0,1.897-0.844,1.916-1.887l0.001-23.999l15.107-0.001l0.311,0.001h0.863
		c2.814,0,5.116,2.303,5.116,5.12v0.883c0.001,0.019,0.004,0.037,0.004,0.05c0,0.516,0,0.941-0.003,0.946v16.958
		c0,1.053,0.865,1.916,1.92,1.916h4.017c1.056,0,1.918-0.863,1.918-1.916V19.044l-0.002-3.405L198.929,12.037L198.929,12.037z"/>
</g>
</svg>
