<?xml version="1.0" encoding="utf-8"?>
<!-- Generator: Adobe Illustrator 14.0.0, SVG Export Plug-In . SVG Version: 6.00 Build 43363)  -->
<!DOCTYPE svg PUBLIC "-//W3C//DTD SVG 1.1//EN" "http://www.w3.org/Graphics/SVG/1.1/DTD/svg11.dtd">
<svg version="1.1" id="Layer_1" xmlns="http://www.w3.org/2000/svg" xmlns:xlink="http://www.w3.org/1999/xlink" x="0px" y="0px"
	 width="250px" height="150px" viewBox="0 0 250 150" enable-background="new 0 0 250 150" xml:space="preserve">
<g>
	<path fill="#E32119" d="M124.472,44.318c1.23-12.125,7.824-19.309,7.824-26.296c0-5.086-1.891-9.454-7.824-16.022
		c-5.936,6.568-7.826,10.936-7.826,16.022C116.646,25.01,123.241,32.194,124.472,44.318z"/>
	<path fill="#E32119" d="M111.688,42.778c-3.125,2.761-9.24,0.981-9.24-5.7c0-3.778,3.936-6.998,7.744-6.998
		c7.521,0,10.955,7.991,11.156,11.709c0.156,2.934-1.172,7.565-6.057,7.627c2.287-1.122,3.047-3.873,2.824-5.831
		c-0.262-2.323-1.748-5.361-5.006-5.361c-1.807,0-3.168,1.173-3.168,2.446C109.942,41.803,110.616,42.745,111.688,42.778z"/>
	<path fill="#E32119" d="M137.257,42.778c3.125,2.761,9.24,0.981,9.24-5.7c0-3.778-3.934-6.998-7.74-6.998
		c-7.525,0-10.957,7.991-11.156,11.709c-0.158,2.934,1.168,7.565,6.055,7.627c-2.289-1.122-3.049-3.873-2.826-5.831
		c0.264-2.323,1.748-5.361,5.008-5.361c1.807,0,3.168,1.173,3.168,2.446C139.005,41.803,138.331,42.745,137.257,42.778z"/>
	<path d="M71.138,101.456h-5.584v-39.27h5.584V101.456z"/>
	<path d="M56.755,101.456h-5.584V84.355H27.792v17.101h-5.583v-39.27h5.583v17.102h23.379V62.186h5.584V101.456z"/>
	<path d="M211.036,81.13l16.756,20.326h-6.797l-13.357-16.238l-13.531,16.238h-6.852l16.93-20.326l-15.721-18.944h6.852
		l12.322,14.972l12.266-14.972h6.795L211.036,81.13z"/>
	<path d="M168.013,61.668c12.955,0,21.131,9.213,21.131,20.152c0,10.596-7.945,20.153-21.248,20.153
		c-12.838,0-20.957-9.501-20.957-20.153C146.938,70.938,155.286,61.668,168.013,61.668z M168.013,96.793
		c8.811,0,15.316-6.393,15.316-14.972c0-8.636-6.506-14.97-15.316-14.97c-8.754,0-15.26,6.334-15.26,14.97
		C152.753,90.4,159.259,96.793,168.013,96.793z"/>
	<path d="M141.774,91.523c-2.75,3.267-6.959,5.27-11.889,5.27c-8.754,0-15.26-6.393-15.26-14.972c0-8.636,6.506-14.97,15.26-14.97
		c4.793,0,8.908,1.876,11.658,4.979l2.947-4.96c-3.613-3.219-8.596-5.201-14.605-5.201c-12.727,0-21.076,9.27-21.076,20.152
		c0,10.652,8.119,20.153,20.961,20.153c6.283,0,11.369-2.133,14.99-5.5L141.774,91.523z"/>
	<path d="M101.665,69.515c-3.143-2.679-6.971-3.232-9.619-3.232c-3.998,0-7.498,1.774-7.498,5.117c0,7.542,20.07,7.564,20.07,20.059
		c0,8.138-8.307,10.841-14.703,10.516c-4.35-0.22-7.602-1.066-11.051-3.344v-5.585c3.436,2.225,6.631,3.405,10.281,3.698
		c4.092,0.329,9.957-0.634,9.957-5.466c0-8.118-20.238-8.361-20.238-19.129c0-6.392,5.662-10.491,12.545-10.491
		c4.447,0,7.414,0.962,10.238,2.573L101.665,69.515z"/>
</g>
</svg>
