<?xml version="1.0" encoding="utf-8"?>
<!-- Generator: Adobe Illustrator 14.0.0, SVG Export Plug-In . SVG Version: 6.00 Build 43363)  -->
<!DOCTYPE svg PUBLIC "-//W3C//DTD SVG 1.1//EN" "http://www.w3.org/Graphics/SVG/1.1/DTD/svg11.dtd">
<svg version="1.1" id="Ebene_1" xmlns="http://www.w3.org/2000/svg" xmlns:xlink="http://www.w3.org/1999/xlink" x="0px" y="0px"
	 width="300px" height="150px" viewBox="89.75 69 300 150" enable-background="new 89.75 69 300 150" xml:space="preserve">
<g>
	<rect x="89.75" y="69" fill="#003073" width="300" height="150"/>
	<path fill="#FFFFFF" d="M116.179,131.431h-7.714v25.512c0,1.858-0.046,3.903-2.742,3.903h-1.022v5.855h1.905
		c8.458,0,9.573-4.044,9.573-10.038V131.431L116.179,131.431z"/>
	<polygon fill="#FFFFFF" points="116.179,122.834 108.466,122.834 108.466,128.689 116.179,128.689 	"/>
	<polygon fill="#FFFFFF" points="118.93,131.544 126.831,157.335 133.987,157.335 138.308,140.652 138.402,140.652 142.722,157.335 
		149.879,157.335 157.779,131.544 149.832,131.544 145.976,147.576 145.882,147.576 141.608,131.544 135.101,131.544 
		130.873,147.576 130.78,147.576 126.923,131.544 	"/>
	<polygon fill="#FFFFFF" points="195.49,131.639 187.777,131.639 187.777,157.429 195.49,157.429 	"/>
	<polygon fill="#FFFFFF" points="195.49,123.042 187.777,123.042 187.777,128.897 195.49,128.897 	"/>
	<polygon fill="#FFFFFF" points="199.539,157.369 207.253,157.369 207.253,122.982 199.539,122.982 	"/>
	<path fill="#FFFFFF" d="M242.32,157.599h7.715v-14.033c0-1.58,0-5.391,4.414-5.391c4.043,0,4.043,3.532,4.043,5.345v14.079h7.715
		v-16.124c0-5.065-1.58-7.11-2.975-8.317c-1.394-1.209-4.135-2.231-6.6-2.231c-4.601,0-6.227,2.371-7.017,3.624h-0.093v-2.741
		h-7.203V157.599L242.32,157.599z"/>
	<polygon fill="#FFFFFF" points="301.881,157.476 308.061,157.476 308.061,151.295 301.881,151.295 	"/>
	<path fill="#FFFFFF" d="M312.169,157.558h3.253v-13.986c-0.045-3.299,0.977-5.623,2.369-6.971c1.766-1.719,4.09-2.185,5.531-2.185
		c1.439,0,3.764,0.466,5.529,2.185c1.395,1.348,2.416,3.671,2.416,6.971v13.986h3.252v-13.986c0-4.182-1.253-7.11-3.16-8.969
		c-2.322-2.323-4.924-3.113-8.037-3.113c-4.322,0-6.832,2.37-7.809,3.903h-0.092v-3.253h-3.253V157.558L312.169,157.558z"/>
	<polygon fill="#FFFFFF" points="366.232,157.428 369.485,157.428 369.485,134.937 375.572,134.937 375.572,132.01 369.485,132.01 
		369.485,123.041 366.232,123.041 366.232,132.01 360.887,132.01 360.887,134.937 366.232,134.937 	"/>
	<path fill="#FFFFFF" d="M360.811,137.713c-1.812-3.159-5.763-6.459-11.339-6.505c-7.389,0.139-13.197,6.18-13.197,13.383
		c0,7.527,6.135,13.29,13.244,13.29c5.854,0,10.733-3.855,12.5-8.922h-3.438c-1.161,3.159-4.461,5.902-9.108,5.994
		c-4.972,0-9.619-4.228-9.852-9.2h23.142C362.902,143.289,362.53,140.455,360.811,137.713z M339.621,142.824
		c0.93-5.994,5.9-8.689,9.897-8.689c4.043,0,8.921,2.695,9.944,8.689H339.621z"/>
	<path fill="#FFFFFF" d="M289.545,122.968v10.781c-0.838-0.837-3.021-3.067-7.575-3.067c-6.554,0-12.778,4.973-12.778,13.709
		c0,7.761,5.111,13.801,12.916,13.801c5.205,0,7.064-2.555,7.715-3.624h0.092v2.788h7.342v-34.387L289.545,122.968L289.545,122.968z
		 M283.363,150.989c-3.625,0-6.459-2.649-6.459-6.646c0-2.974,2.092-6.459,6.553-6.459c4.275,0,6.506,3.346,6.506,6.459
		C289.963,147.04,288.196,150.989,283.363,150.989z"/>
	<path fill="#FFFFFF" d="M231.186,131.729v2.741h-0.093c-0.929-1.579-3.299-3.624-7.528-3.624c-6.877,0-12.965,5.298-12.965,13.755
		c0,7.388,4.786,13.801,12.965,13.801c3.021,0,6.228-1.161,7.528-3.67h0.093v2.787h7.714v-25.79H231.186L231.186,131.729z
		 M224.727,151.199c-4.647,0-6.413-4.09-6.413-6.506c0-2.928,1.952-6.645,6.366-6.645c4.369,0,6.506,3.438,6.506,6.552
		C231.186,147.109,229.56,151.199,224.727,151.199z"/>
	<path fill="#FFFFFF" d="M184.925,144.788c0-7.853-5.762-14.08-13.615-14.08s-13.523,6.646-13.523,13.848
		c0,7.668,6.274,13.663,13.662,13.663c2.649,0,5.205-0.791,7.342-2.324c2.185-1.487,3.997-3.718,5.251-6.599h-7.9
		c-1.069,1.347-2.323,2.416-4.693,2.416c-3.021,0-5.577-1.812-6.042-4.879h19.331C184.832,146.229,184.925,145.811,184.925,144.788z
		 M165.501,141.629c0.326-1.534,1.858-4.415,5.855-4.415c3.996,0,5.53,2.881,5.854,4.415H165.501z"/>
</g>
</svg>
