<?xml version="1.0" encoding="utf-8"?>
<!DOCTYPE svg PUBLIC "-//W3C//DTD SVG 1.1//EN" "http://www.w3.org/Graphics/SVG/1.1/DTD/svg11.dtd">
<svg version="1.1" id="Ebene_1" xmlns="http://www.w3.org/2000/svg" xmlns:xlink="http://www.w3.org/1999/xlink" x="0px" y="0px"
	 width="223px" height="85px" viewBox="0 0 223 85" style="enable-background:new 0 0 223 85;" xml:space="preserve">
	<g id="figure" class="logo__figure">
		<path fill="#fff" d="M43.865,39.913c-0.87,0.252-1.564,0.348-2.474,0.348c-7.459,0-18.412-25.706-18.412-34.262
			c0-3.149,0.755-4.201,1.823-5.102C15.674,1.948,4.72,5.253,1.218,9.452C0.461,10.504,0,12.153,0,14.256
			c0,13.355,14.454,43.66,24.65,43.66C29.369,57.917,37.322,50.27,43.865,39.913" />
		<path fill="#fff" d="M39.104,0c9.433,0,18.871,1.5,18.871,6.752c0,10.652-6.851,23.562-10.348,23.562
			c-6.238,0-13.999-17.11-13.999-25.666C33.628,0.748,35.149,0,39.104,0" />
	</g>
	<g id="name" class="logo__name">
		<path fill="#fff" d="M80.038,24.273v33.534h-7.943V24.273h-8.348v-7.007h24.639v7.008L80.038,24.273L80.038,24.273z" />
		<path fill="#fff" d="M100.619,58.327c-2.841,0-7.652-0.869-8.174-0.984v-6.428c1.392,0.289,4.696,0.984,7.247,0.984
			c2.783,0,4.58-1.97,4.58-5.561c0-4.517-1.159-6.428-4.696-6.428h-4.465v-6.312h3.885c3.304,0,4.638-2.027,4.638-5.502
			c0-3.302-1.16-4.923-4.058-4.923c-2.551,0-5.16,0.638-6.841,0.985v-6.428c0.638-0.116,4.638-0.984,7.595-0.984
			c7.42,0,11.015,2.665,11.015,11.525c0,3.475-1.159,7.065-4.348,8.166c3.189,0.636,5.044,3.59,5.044,9.324
			C112.04,55.49,107.053,58.327,100.619,58.327z" />
		<path fill="#fff" d="M131.228,58.386c-4.116,0-10.957-0.579-10.957-0.579V17.266c0,0,7.015-0.579,10.262-0.579
			c9.333,0,14.435,3.127,14.435,20.212C144.969,54.158,140.215,58.386,131.228,58.386z M131.808,23.694
			c-2.145,0-3.594,0.232-3.594,0.232v27.219c0,0,1.102,0.232,3.536,0.232c3.595,0,5.16-2.954,5.16-14.074
			C136.91,24.853,135.286,23.694,131.808,23.694z" />
		<path fill="#fff" d="M162.881,58.386c-4.116,0-10.957-0.579-10.957-0.579V17.266c0,0,7.015-0.579,10.261-0.579
			c9.333,0,14.436,3.127,14.436,20.212C176.621,54.158,171.868,58.386,162.881,58.386z M163.462,23.694
			c-2.145,0-3.594,0.232-3.594,0.232v27.219c0,0,1.102,0.232,3.536,0.232c3.595,0,5.16-2.954,5.16-14.074
			C168.564,24.853,166.94,23.694,163.462,23.694z" />
		<path fill="#fff" d="M184.739,57.807v-4.344h7.015V21.84l-7.594,3.012v-4.691l7.014-2.896h5.508v36.197h5.74v4.344H184.739z" />
		<path fill="#fff" d="M211.406,21.493v11.931h1.16c8.349,0,10.435,3.765,10.435,12.104c0,9.672-3.478,12.684-9.854,12.684
			c-2.957,0-5.508-0.637-7.247-0.984v-4.228c1.044,0.232,4.29,0.985,7.479,0.985c3.421,0,4.638-2.953,4.638-7.877
			c0-6.661-1.334-8.456-5.16-8.456h-6.376V17.266h15.362v4.228L211.406,21.493L211.406,21.493z" />
	</g>
	<g id="location" class="logo__location">
		<path fill="#fff" d="M78.11,84.82l-3.942-16.111V84.82h-2.086V66.804h3.659l3.967,16.111V66.804h2.087V84.82H78.11z" />
		<path fill="#fff" d="M95.708,80.057c0,3.475-1.854,4.942-4.818,4.942c-2.963,0-4.843-1.467-4.843-4.942V66.804h2.241v13.743
			c0,1.801,1.057,2.573,2.602,2.573c1.546,0,2.577-0.772,2.577-2.573V66.804h2.241V80.057z M87.258,65.903v-2.059h2.189v2.059
			H87.258z M92.41,65.903v-2.059H94.6v2.059H92.41z" />
		<path fill="#fff" d="M106.737,76.996l3.529,7.824h-2.473l-3.298-7.464h-2.293v7.464h-2.241V66.804c0,0,2.215-0.18,4.354-0.18
			c3.916,0,4.998,2.084,4.998,5.25C109.312,74.525,108.565,76.276,106.737,76.996z M104.624,68.477
			c-1.417,0-2.422,0.153-2.422,0.153v6.846h2.422c1.443,0,2.396-0.616,2.396-3.422C107.019,69.558,106.452,68.477,104.624,68.477z"
				/>
		<path fill="#fff" d="M119.259,84.82l-3.942-16.111V84.82h-2.086V66.804h3.659l3.967,16.111V66.804h2.086V84.82H119.259z" />
		<path fill="#fff" d="M131.704,85c-2.164,0-4.379-0.18-4.379-0.18V66.804c0,0,2.396-0.18,4.07-0.18
			c3.091,0,4.947,1.261,4.947,4.709c0,2.136-1.032,3.448-2.062,3.886c1.03,0.362,2.5,1.287,2.5,4.17
			C136.78,83.687,134.795,85,131.704,85z M131.704,68.477c-1.237,0-2.138,0.153-2.138,0.153v5.792h2.138
			c1.031,0,2.396-0.182,2.396-2.909C134.1,69.378,133.636,68.477,131.704,68.477z M131.961,76.276h-2.396v6.716
			c0,0,1.288,0.129,2.37,0.129c1.391,0,2.55-0.54,2.55-3.552C134.486,77.332,133.842,76.276,131.961,76.276z" />
		<path fill="#fff" d="M140.516,84.82V66.804h8.451v1.878h-6.209v5.895h5.564v1.878h-5.564v6.485h6.209v1.88H140.516z" />
		<path fill="#fff" d="M159.48,76.996l3.529,7.824h-2.473l-3.297-7.464h-2.293v7.464h-2.241V66.804c0,0,2.215-0.18,4.354-0.18
			c3.916,0,4.999,2.084,4.999,5.25C162.056,74.525,161.308,76.276,159.48,76.996z M157.367,68.477c-1.417,0-2.422,0.153-2.422,0.153
			v6.846h2.422c1.442,0,2.396-0.616,2.396-3.422C159.763,69.558,159.196,68.477,157.367,68.477z" />
		<path fill="#fff" d="M174.605,84.562C173.239,84.82,171.951,85,170.559,85c-3.941,0-5.357-1.802-5.357-9.472
			c0-7.593,1.906-8.905,5.976-8.905c0.875,0,2.241,0.207,2.886,0.361v1.853c-1.083-0.205-2.242-0.334-3.35-0.334
			c-2.215,0-3.22,0.978-3.22,7.206c0,6.485,0.902,7.412,2.937,7.412c0.593,0,1.365-0.078,2.035-0.181v-5.713h-2.293v-1.878h4.432
			V84.562z" />
	</g>
</svg>