<?xml version="1.0" encoding="utf-8"?>
<!-- Generator: Adobe Illustrator 14.0.0, SVG Export Plug-In . SVG Version: 6.00 Build 43363)  -->
<!DOCTYPE svg PUBLIC "-//W3C//DTD SVG 1.1//EN" "http://www.w3.org/Graphics/SVG/1.1/DTD/svg11.dtd">
<svg version="1.1" id="Ebene_1" xmlns="http://www.w3.org/2000/svg" xmlns:xlink="http://www.w3.org/1999/xlink" x="0px" y="0px"
	 width="195px" height="150px" viewBox="511.98 392.76 195 150" enable-background="new 511.98 392.76 195 150"
	 xml:space="preserve">
<g>
	<rect x="511.98" y="392.76" fill="#FFFFFF" width="195" height="150"/>
	<path fill="#FFFFFF" d="M588.996,521.326c0,1.778,0,3.542,0,5.465c0,0.965-0.143,2.13,0.538,2.193
		c0.841,0.078,0.652-1.094,0.652-2.078c0-2.397,0-4.585,0-6.85c0-0.865,0.07-1.681-0.729-1.5
		C588.761,518.713,588.996,520.431,588.996,521.326z"/>
	<path fill="#FFFFFF" d="M607.08,519.634c0.523-0.164,1.313,0.05,1.267-0.616c-0.03-0.44-0.675-0.566-1.229-0.5
		c-1.478,0.175-1.432,1.528-1.421,3.232c-1.36-0.378-1.317,1.445,0.039,1.038c0,0.974,0,1.9,0,3.156
		c0,0.682-0.219,2.688,0.229,2.963c0.312,0.191,0.794-0.011,0.884-0.154c0.162-0.262,0.076-0.991,0.076-1.424
		c0-1.6-0.031-3.146,0.038-4.541c0.402-0.021,0.914,0.07,1.152-0.114c0.495-0.718-0.322-1.101-1.19-0.924
		C606.993,521.06,606.772,520.081,607.08,519.634z"/>
	<path fill="#FFFFFF" d="M627.737,528.831c0.331-0.332,0.152-1.696,0.152-2.425c0-1.766,0-3.481,0-5.156
		c0-1.098,0.35-2.957-0.768-2.732c-0.635,0.128-0.422,1.343-0.422,2.231c0,0.709,0,1.362,0,1.848
		c-0.479-0.628-1.314-1.077-2.343-0.962c-3.621,0.405-3.565,7.845,0.845,7.35c0.676-0.075,1.23-0.538,1.497-0.924
		C626.456,528.778,627.284,529.282,627.737,528.831z"/>
	<path fill="#FFFFFF" d="M665.209,528.831c0.33-0.332,0.15-1.696,0.15-2.425c0-1.766,0-3.481,0-5.156
		c0-1.098,0.352-2.957-0.768-2.732c-0.633,0.128-0.421,1.343-0.421,2.231c0,0.709,0,1.362,0,1.848
		c-0.479-0.628-1.315-1.077-2.342-0.962c-3.622,0.405-3.566,7.845,0.844,7.35c0.677-0.075,1.231-0.538,1.496-0.924
		C663.93,528.778,664.756,529.282,665.209,528.831z"/>
	<path fill="#FFFFFF" d="M640.52,519.941c-0.009,1.04,1.511,0.994,1.498,0c-0.006-0.469-0.31-0.827-0.922-0.692
		C640.722,519.331,640.524,519.555,640.52,519.941z"/>
	<path fill="#FFFFFF" d="M648.122,519.787c-0.229-0.349-0.912-0.29-1.075,0.077c-0.242,0.549,0.137,1.386-0.077,1.886
		c-1.394-0.362-1.341,1.43,0.039,1.038c0,1.513,0,3.04,0,4.619c0,0.429-0.073,1.208,0.115,1.423
		c0.197,0.228,0.845,0.166,0.998-0.076c0.158-0.251,0.077-1.002,0.077-1.424c0-1.522-0.031-3.279,0.037-4.541
		c0.277-0.006,0.587,0.023,0.808-0.039c0.546-0.477,0.038-1.263-0.845-1C648.062,521.095,648.415,520.232,648.122,519.787z"/>
	<path fill="#FFFFFF" d="M548.147,522.943c-0.101-0.317-0.227-1.156-0.576-1.309c-0.875-0.381-1.012,0.969-1.19,1.539
		c-0.396,1.26-0.929,2.951-1.305,3.963c-0.369-1.389-0.84-2.68-1.268-4.078c-0.149-0.486-0.238-1.151-0.5-1.309
		c-0.348-0.21-0.858-0.035-0.959,0.192c-0.187,0.425,0.358,1.479,0.499,1.886c0.424,1.223,0.745,2.285,1.19,3.541
		c0.196,0.557,0.376,1.44,0.806,1.577c0.841,0.269,0.912-0.592,1.113-1.231c0.464-1.467,0.857-2.708,1.382-4.156
		c0.341,1.271,0.872,2.765,1.306,4.118c0.148,0.459,0.248,1.131,0.576,1.27c0.908,0.383,1.02-0.796,1.267-1.501
		c0.446-1.267,0.822-2.326,1.229-3.54c0.2-0.596,0.965-2.076,0.154-2.271c-0.727-0.174-0.836,0.527-1.037,1.192
		c-0.486,1.615-0.81,2.796-1.344,4.311C549.073,525.736,548.597,524.371,548.147,522.943z"/>
	<path fill="#FFFFFF" d="M561.315,522.943c-0.1-0.317-0.226-1.156-0.575-1.309c-0.876-0.381-1.012,0.969-1.19,1.539
		c-0.396,1.26-0.929,2.951-1.306,3.963c-0.368-1.389-0.839-2.68-1.267-4.078c-0.149-0.486-0.238-1.151-0.5-1.309
		c-0.348-0.21-0.859-0.035-0.959,0.192c-0.188,0.425,0.357,1.479,0.499,1.886c0.424,1.223,0.745,2.285,1.189,3.541
		c0.198,0.557,0.376,1.44,0.807,1.577c0.841,0.269,0.911-0.592,1.113-1.231c0.463-1.467,0.857-2.708,1.383-4.156
		c0.34,1.271,0.871,2.765,1.305,4.118c0.147,0.459,0.248,1.131,0.576,1.27c0.908,0.383,1.02-0.796,1.268-1.501
		c0.445-1.267,0.821-2.326,1.229-3.54c0.199-0.596,0.965-2.076,0.153-2.271c-0.727-0.174-0.836,0.527-1.037,1.192
		c-0.487,1.615-0.811,2.796-1.344,4.311C562.242,525.736,561.766,524.371,561.315,522.943z"/>
	<path fill="#FFFFFF" d="M574.484,522.943c-0.1-0.317-0.226-1.156-0.575-1.309c-0.876-0.381-1.012,0.969-1.19,1.539
		c-0.396,1.26-0.93,2.951-1.306,3.963c-0.368-1.389-0.839-2.68-1.267-4.078c-0.149-0.486-0.239-1.151-0.499-1.309
		c-0.349-0.21-0.859-0.035-0.96,0.192c-0.187,0.425,0.357,1.479,0.499,1.886c0.424,1.223,0.745,2.285,1.189,3.541
		c0.197,0.557,0.376,1.44,0.807,1.577c0.841,0.269,0.911-0.592,1.113-1.231c0.463-1.467,0.857-2.708,1.383-4.156
		c0.34,1.271,0.871,2.765,1.306,4.118c0.146,0.459,0.246,1.131,0.575,1.27c0.908,0.383,1.019-0.796,1.267-1.501
		c0.446-1.267,0.823-2.327,1.229-3.54c0.199-0.596,0.965-2.076,0.153-2.271c-0.727-0.174-0.836,0.527-1.036,1.192
		c-0.488,1.615-0.812,2.796-1.345,4.311C575.411,525.736,574.935,524.371,574.484,522.943z"/>
	<path fill="#FFFFFF" d="M594.948,523.443c0,1.75-0.152,3.587,0.538,4.541c0.644,0.889,2.353,1.285,3.57,0.808
		c1.707-0.671,1.573-2.395,1.573-4.849c0-0.697,0.225-2.051-0.307-2.271c-1.232-0.508-0.883,1.867-0.883,2.693
		c0,0.926,0.197,2.108-0.192,2.849c-0.573,1.091-2.433,0.819-2.88-0.039c-0.325-0.626-0.229-2.043-0.229-2.578
		c0-0.946,0.383-3.251-0.769-2.925C594.807,521.833,594.948,522.714,594.948,523.443z"/>
	<path fill="#FFFFFF" d="M615.104,525.79c0.588,0,2.095,0.172,2.419-0.153c0.266-0.267,0.157-1.015,0.038-1.463
		c-0.344-1.3-1.38-2.417-2.688-2.539c-2.368-0.221-3.599,1.933-3.531,3.963c0.035,1.096,0.5,2.024,1.074,2.579
		c1.187,1.144,3.253,0.94,4.415,0.192c0.226-0.146,1.23-1.136,0.346-1.348c-0.409-0.098-0.893,0.53-1.42,0.731
		c-1.624,0.618-3.265-0.275-3.187-1.962C613.448,525.79,614.165,525.791,615.104,525.79z"/>
	<path fill="#FFFFFF" d="M640.674,523.751c0,1.199,0,2.576,0,3.848c0,0.767,0.001,1.337,0.538,1.386
		c0.66,0.062,0.651-0.513,0.651-1.309c0-1.309,0-2.664,0-3.925c0-0.925,0.22-2.36-0.768-2.078
		C640.501,521.843,640.674,522.897,640.674,523.751z"/>
	<path fill="#FFFFFF" d="M673.5,525.79c0.586,0,2.095,0.172,2.42-0.153c0.265-0.267,0.156-1.015,0.037-1.463
		c-0.343-1.3-1.38-2.417-2.688-2.539c-2.367-0.221-3.599,1.933-3.533,3.963c0.038,1.096,0.501,2.024,1.076,2.579
		c1.187,1.144,3.252,0.94,4.415,0.192c0.225-0.146,1.23-1.136,0.346-1.348c-0.409-0.098-0.893,0.53-1.42,0.731
		c-1.624,0.618-3.266-0.275-3.187-1.962C671.846,525.79,672.563,525.791,673.5,525.79z"/>
	<path fill="#FFFFFF" d="M632.381,525.405c0.063,0.532,0.851,0.424,1.688,0.424c0.562,0,1.718,0.134,1.997-0.116
		c0.204-0.183,0.174-0.65,0-0.808c-0.256-0.231-1.303-0.115-1.573-0.115c-0.383,0-1.349-0.095-1.729,0.038
		C632.629,524.876,632.345,525.103,632.381,525.405z"/>
	<path fill="#FFFFFF" d="M583.583,528.984c0.777-0.115,0.751-1.606-0.308-1.347C582.431,527.845,582.777,529.104,583.583,528.984z"
		/>
	<path fill="#FFFFFF" d="M654.113,528.984c0.776-0.115,0.75-1.607-0.308-1.347C652.959,527.845,653.304,529.104,654.113,528.984z"/>
	<path fill="#494543" d="M589.457,518.556c0.8-0.181,0.729,0.635,0.729,1.5c0,2.265,0,4.452,0,6.85c0,0.984,0.188,2.156-0.652,2.078
		c-0.681-0.063-0.538-1.229-0.538-2.193c0-1.923,0-3.687,0-5.465C588.996,520.431,588.761,518.713,589.457,518.556z"/>
	<path fill="#494543" d="M606.926,521.75c0.868-0.177,1.686,0.206,1.19,0.924c-0.238,0.185-0.75,0.095-1.152,0.115
		c-0.069,1.395-0.038,2.94-0.038,4.541c0,0.432,0.086,1.161-0.076,1.424c-0.09,0.143-0.572,0.346-0.884,0.153
		c-0.448-0.275-0.229-2.281-0.229-2.963c0-1.256,0-2.183,0-3.155c-1.356,0.406-1.399-1.417-0.039-1.039
		c-0.011-1.704-0.057-3.058,1.421-3.232c0.554-0.065,1.197,0.06,1.229,0.5c0.047,0.666-0.743,0.452-1.267,0.616
		C606.772,520.081,606.993,521.06,606.926,521.75z"/>
	<path fill="#494543" d="M641.096,519.249c0.612-0.135,0.916,0.224,0.922,0.692c0.013,0.994-1.507,1.04-1.498,0
		C640.524,519.555,640.722,519.331,641.096,519.249z"/>
	<path fill="#494543" d="M648.199,521.75c0.883-0.263,1.392,0.523,0.845,1c-0.221,0.062-0.53,0.033-0.807,0.038
		c-0.069,1.262-0.038,3.02-0.038,4.541c0,0.423,0.081,1.173-0.077,1.424c-0.152,0.243-0.801,0.305-0.998,0.077
		c-0.188-0.215-0.115-0.994-0.115-1.424c0-1.578,0-3.106,0-4.618c-1.38,0.391-1.433-1.4-0.038-1.038
		c0.214-0.5-0.166-1.338,0.076-1.886c0.163-0.367,0.846-0.427,1.075-0.077C648.415,520.232,648.062,521.095,648.199,521.75z"/>
	<path fill="#494543" d="M549.49,527.136c0.534-1.515,0.857-2.694,1.344-4.31c0.201-0.665,0.311-1.366,1.037-1.192
		c0.811,0.194,0.046,1.674-0.154,2.271c-0.406,1.213-0.782,2.273-1.229,3.54c-0.247,0.705-0.358,1.884-1.267,1.501
		c-0.328-0.139-0.428-0.811-0.576-1.271c-0.434-1.353-0.965-2.847-1.306-4.117c-0.524,1.448-0.918,2.689-1.382,4.155
		c-0.201,0.641-0.272,1.5-1.113,1.232c-0.43-0.138-0.609-1.021-0.806-1.578c-0.445-1.256-0.767-2.317-1.19-3.54
		c-0.141-0.407-0.686-1.462-0.499-1.886c0.101-0.229,0.611-0.402,0.959-0.192c0.262,0.157,0.351,0.821,0.5,1.309
		c0.428,1.397,0.898,2.689,1.268,4.078c0.376-1.012,0.909-2.703,1.305-3.963c0.179-0.571,0.315-1.92,1.19-1.539
		c0.35,0.151,0.476,0.991,0.576,1.308C548.597,524.371,549.073,525.736,549.49,527.136z"/>
	<path fill="#494543" d="M562.658,527.136c0.533-1.514,0.856-2.694,1.344-4.31c0.201-0.665,0.311-1.366,1.037-1.192
		c0.812,0.194,0.046,1.674-0.153,2.271c-0.407,1.213-0.783,2.273-1.229,3.54c-0.248,0.705-0.359,1.884-1.268,1.501
		c-0.328-0.139-0.429-0.811-0.576-1.271c-0.434-1.353-0.965-2.847-1.305-4.117c-0.525,1.448-0.92,2.689-1.383,4.155
		c-0.202,0.641-0.272,1.5-1.113,1.232c-0.43-0.138-0.608-1.021-0.807-1.578c-0.444-1.256-0.766-2.317-1.189-3.54
		c-0.142-0.407-0.687-1.462-0.499-1.886c0.1-0.229,0.611-0.402,0.959-0.192c0.262,0.157,0.351,0.821,0.5,1.309
		c0.428,1.397,0.898,2.689,1.267,4.078c0.377-1.012,0.91-2.703,1.306-3.963c0.179-0.571,0.314-1.92,1.19-1.539
		c0.35,0.151,0.476,0.991,0.575,1.308C561.766,524.371,562.242,525.736,562.658,527.136z"/>
	<path fill="#494543" d="M575.827,527.136c0.533-1.514,0.856-2.694,1.345-4.31c0.2-0.665,0.31-1.366,1.036-1.192
		c0.812,0.194,0.046,1.674-0.153,2.271c-0.407,1.213-0.783,2.273-1.229,3.54c-0.248,0.705-0.358,1.884-1.267,1.501
		c-0.329-0.139-0.429-0.811-0.575-1.271c-0.435-1.353-0.966-2.847-1.306-4.117c-0.525,1.448-0.92,2.689-1.383,4.155
		c-0.202,0.641-0.272,1.5-1.113,1.232c-0.431-0.138-0.609-1.021-0.807-1.578c-0.444-1.256-0.766-2.317-1.189-3.54
		c-0.142-0.407-0.686-1.462-0.499-1.886c0.101-0.229,0.611-0.402,0.96-0.192c0.26,0.157,0.35,0.821,0.499,1.309
		c0.428,1.397,0.898,2.689,1.267,4.078c0.376-1.012,0.91-2.703,1.306-3.963c0.179-0.571,0.314-1.92,1.19-1.539
		c0.35,0.151,0.476,0.991,0.575,1.308C574.935,524.371,575.411,525.736,575.827,527.136z"/>
	<path fill="#494543" d="M595.369,521.673c1.151-0.326,0.769,1.979,0.769,2.925c0,0.535-0.096,1.952,0.229,2.578
		c0.447,0.858,2.307,1.13,2.88,0.038c0.39-0.739,0.192-1.922,0.192-2.848c0-0.827-0.35-3.202,0.883-2.693
		c0.531,0.22,0.307,1.573,0.307,2.271c0,2.454,0.134,4.178-1.573,4.849c-1.218,0.478-2.927,0.081-3.57-0.808
		c-0.69-0.954-0.538-2.792-0.538-4.542C594.948,522.714,594.807,521.833,595.369,521.673z"/>
	<path fill="#494543" d="M641.096,521.673c0.987-0.282,0.768,1.152,0.768,2.078c0,1.261,0,2.616,0,3.925
		c0,0.796,0.01,1.37-0.651,1.309c-0.537-0.05-0.538-0.619-0.538-1.386c0-1.271,0-2.648,0-3.848
		C640.674,522.897,640.501,521.843,641.096,521.673z"/>
	<path fill="#494543" d="M617.177,527.021c-0.409-0.098-0.893,0.53-1.42,0.731c-1.624,0.618-3.265-0.275-3.187-1.963
		c0.878,0,1.596,0.001,2.533,0c0.588,0,2.095,0.172,2.419-0.153c0.266-0.267,0.157-1.015,0.038-1.463
		c-0.344-1.3-1.38-2.417-2.688-2.539c-2.368-0.221-3.599,1.933-3.531,3.963c0.035,1.096,0.5,2.024,1.074,2.579
		c1.187,1.144,3.253,0.94,4.415,0.192C617.057,528.223,618.062,527.233,617.177,527.021z M615.832,523.135
		c0.417,0.39,0.595,0.961,0.654,1.731c-1.306,0-2.611,0-3.916,0C612.35,523.005,614.644,522.019,615.832,523.135z"/>
	<path fill="#494543" d="M627.889,521.25c0-1.099,0.35-2.958-0.768-2.732c-0.635,0.128-0.422,1.343-0.422,2.231
		c0,0.709,0,1.362,0,1.848c-0.479-0.629-1.314-1.077-2.343-0.962c-3.621,0.405-3.565,7.845,0.845,7.35
		c0.676-0.075,1.23-0.538,1.497-0.924c-0.242,0.718,0.586,1.222,1.037,0.771c0.331-0.332,0.153-1.696,0.153-2.425
		C627.889,524.64,627.889,522.925,627.889,521.25z M625.624,527.791c-0.365,0.164-0.982,0.272-1.575,0
		c-1.439-0.661-1.434-3.716-0.345-4.694c0.234-0.211,0.503-0.332,0.959-0.385C627.153,522.427,627.542,526.928,625.624,527.791z"/>
	<path fill="#494543" d="M665.36,521.25c0-1.099,0.352-2.958-0.768-2.732c-0.633,0.128-0.421,1.343-0.421,2.231
		c0,0.709,0,1.362,0,1.848c-0.479-0.628-1.315-1.077-2.342-0.962c-3.622,0.405-3.566,7.845,0.844,7.35
		c0.677-0.075,1.231-0.538,1.496-0.924c-0.241,0.718,0.587,1.222,1.038,0.771c0.33-0.332,0.152-1.696,0.152-2.425
		C665.36,524.64,665.36,522.925,665.36,521.25z M663.097,527.791c-0.365,0.164-0.983,0.272-1.575,0
		c-1.44-0.661-1.434-3.716-0.346-4.694c0.234-0.211,0.503-0.332,0.959-0.385C664.626,522.427,665.014,526.928,663.097,527.791z"/>
	<path fill="#494543" d="M675.573,527.021c-0.409-0.098-0.893,0.53-1.42,0.731c-1.624,0.618-3.266-0.275-3.187-1.963
		c0.879,0,1.596,0.001,2.533,0c0.586,0,2.095,0.172,2.42-0.153c0.265-0.267,0.156-1.015,0.037-1.463
		c-0.343-1.3-1.38-2.417-2.688-2.539c-2.367-0.221-3.599,1.933-3.533,3.963c0.038,1.096,0.501,2.024,1.076,2.579
		c1.187,1.144,3.252,0.94,4.415,0.192C675.452,528.223,676.458,527.233,675.573,527.021z M674.229,523.135
		c0.417,0.39,0.595,0.961,0.652,1.731c-1.303,0-2.608,0-3.914,0C670.747,523.005,673.04,522.019,674.229,523.135z"/>
	<path fill="#494543" d="M632.765,524.828c0.38-0.132,1.346-0.038,1.729-0.038c0.271,0,1.317-0.116,1.573,0.115
		c0.174,0.157,0.204,0.625,0,0.809c-0.279,0.249-1.436,0.115-1.997,0.115c-0.838,0-1.625,0.108-1.688-0.423
		C632.345,525.103,632.629,524.876,632.765,524.828z"/>
	<path d="M583.276,527.637c1.059-0.261,1.085,1.231,0.308,1.347C582.777,529.104,582.431,527.845,583.276,527.637z"/>
	<path fill="#494543" d="M653.805,527.637c1.058-0.261,1.084,1.231,0.308,1.347C653.304,529.104,652.959,527.845,653.805,527.637z"
		/>
	<rect x="511.98" y="536.68" fill="#EF8500" width="195" height="6.08"/>
	<path fill="#EF8500" d="M554.609,473.912c-1.396,0-2.448,1.206-2.448,2.808c0,1.598,1.009,2.758,2.397,2.758
		c1.541,0,2.498-1.057,2.498-2.758C557.056,475.04,556.073,473.912,554.609,473.912z"/>
	<path fill="#EF8500" d="M544.802,473.912c-1.396,0-2.448,1.206-2.448,2.808c0,1.598,1.009,2.758,2.397,2.758
		c1.541,0,2.498-1.057,2.498-2.758C547.249,475.04,546.266,473.912,544.802,473.912z"/>
	<path fill="#EF8500" d="M554.609,455.315c-1.396,0-2.448,1.207-2.448,2.808c0,1.598,1.009,2.758,2.397,2.758
		c1.541,0,2.498-1.057,2.498-2.758C557.056,456.443,556.073,455.315,554.609,455.315z"/>
	<path fill="#EF8500" d="M544.802,455.315c-1.396,0-2.448,1.207-2.448,2.808c0,1.598,1.009,2.758,2.397,2.758
		c1.541,0,2.498-1.057,2.498-2.758C547.249,456.443,546.266,455.315,544.802,455.315z"/>
	<polygon fill="#EF8500" points="647.727,479.658 647.727,438.678 652.398,438.678 652.398,479.658 	"/>
	<polygon fill="#EF8500" points="669.262,442.874 669.262,479.658 664.59,479.658 664.59,442.874 657.128,442.874 657.128,438.678 
		676.723,438.678 676.723,442.874 	"/>
	<path fill="#494543" d="M571.724,454.706v15.427c0,6.375,1.87,9.345,5.886,9.345c2.701,0,4.501-1.854,5.138-2.95l0.024-0.04h0.218
		l0.304,2.584h3.233c-0.017-0.578-0.044-1.194-0.071-1.846c-0.06-1.388-0.129-2.962-0.129-4.763v-17.757h-3.732v16.085
		c0,0.915-0.066,1.65-0.204,2.248c-0.207,1.141-1.221,3.305-3.566,3.305c-2.967,0-3.366-3.422-3.366-6.77v-14.868L571.724,454.706
		L571.724,454.706z"/>
	<path fill="#494543" d="M592.754,479.072h3.733v-21.587h4.449v-2.779h-4.449v-1.651c0-4.122,1.184-6.211,3.518-6.211
		c0.981,0,1.642,0.193,2.114,0.375l0.576-2.886c-0.555-0.268-1.503-0.573-2.943-0.573c-0.901,0-3.177,0.2-4.845,2.051
		c-1.489,1.706-2.153,3.971-2.153,7.345v1.55h-3.084v2.779h3.084V479.072L592.754,479.072z"/>
	<rect x="562.169" y="444.166" fill="#494543" width="3.733" height="34.906"/>
	<path fill="#494543" d="M636.363,477.652c-0.062-1.419-0.139-3.186-0.139-4.379v-29.107h-3.684v13.074h-0.23l-0.022-0.047
		c-1.087-2.349-3.007-2.842-4.427-2.842c-3.608,0-7.251,3.908-7.251,12.639c0,3.867,0.688,7.077,1.992,9.283
		c1.238,2.097,2.969,3.204,5.006,3.204c3.236,0,4.71-2.603,5.084-3.4l0.021-0.046h0.276l0.253,3.04h3.18
		C636.407,478.677,636.386,478.188,636.363,477.652z M632.381,470.487c0,0.607-0.052,1.162-0.149,1.603
		c-0.667,2.75-1.899,4.145-3.664,4.145c-2.997,0-4.065-4.775-4.065-9.244c0-2.794,0.416-9.294,4.268-9.294
		c1.769,0,3.299,2.017,3.562,4.691c0.05,0.503,0.05,1.119,0.05,1.614V470.487z"/>
	<path fill="#494543" d="M617.221,467.163c0.051-0.616,0.096-1.252,0.096-2.149c0-5.155-1.812-10.663-6.896-10.663
		c-2.4,0-4.447,1.188-5.918,3.435c-1.501,2.292-2.294,5.527-2.294,9.356c0,7.774,3.214,12.233,8.818,12.233
		c1.915,0,3.945-0.431,5.317-1.129l-0.62-2.676c-0.808,0.41-2.132,0.874-3.99,0.874c-3.877,0-5.843-3.096-5.843-9.202v-0.08H617.221
		L617.221,467.163z M610.016,457.392c0.669,0,1.307,0.289,1.846,0.834c1.123,1.138,1.731,3.284,1.715,6.049h-7.472
		C606.275,460.944,607.564,457.392,610.016,457.392z"/>
</g>
</svg>
