<?xml version="1.0" encoding="utf-8"?>
<!-- Generator: Adobe Illustrator 14.0.0, SVG Export Plug-In . SVG Version: 6.00 Build 43363)  -->
<!DOCTYPE svg PUBLIC "-//W3C//DTD SVG 1.1//EN" "http://www.w3.org/Graphics/SVG/1.1/DTD/svg11.dtd">
<svg version="1.1" id="Ebene_1" xmlns="http://www.w3.org/2000/svg" xmlns:xlink="http://www.w3.org/1999/xlink" x="0px" y="0px"
	 width="200px" height="60px" viewBox="0 0 200 60" enable-background="new 0 0 200 60" xml:space="preserve">
<polygon fill="#FFFFFF" points="175.616,17.811 178.142,24.476 172.647,32.417 189.337,32.677 186.708,25.231 190.952,17.655 "/>
<polygon fill="#FFFFFF" points="165.048,13.515 172.546,13.567 169.239,32.677 161.403,32.677 "/>
<g>
	<defs>
		<rect id="SVGID_1_" x="7.875" y="5.033" width="184.251" height="49.933"/>
	</defs>
	<clipPath id="SVGID_2_">
		<use xlink:href="#SVGID_1_"  overflow="visible"/>
	</clipPath>
	<path clip-path="url(#SVGID_2_)" fill="#FFFFFF" d="M145.892,32.859l-0.832,4.634c0,0,5.467,0.963,7.186,0.417
		c1.717-0.547,3.67-1.616,4.008-2.578c0.34-0.963,1.666-6.691,1.875-7.68c0.207-0.99,1.666-9.112,1.666-9.425
		c0-0.312,0.285-0.598,0.285-0.598s-11.688,0.078-12.443,0.442c-0.756,0.364-2.082,1.302-2.656,1.874
		c-0.572,0.573-1.717,2.135-1.848,2.89c-0.131,0.756-0.887,2.604-0.781,3.567c0.104,0.963-0.209,2.578,0.26,3.437
		s0.535,1.236,1.172,1.875C144.421,32.351,145.892,32.859,145.892,32.859"/>
	<path clip-path="url(#SVGID_2_)" fill="#FFFFFF" d="M127.228,19.373c0,0-2.629,2.785-2.785,4.634
		c-0.156,1.848-0.572,3.619-0.156,5.025c0.416,1.405,1.275,2.838,2.656,3.307c1.379,0.469,3.045,1.094,4.998,0.702
		c1.953-0.391,4.635-1.458,5.52-2.343c0.885-0.885,2.76-4.191,2.604-5.858c-0.156-1.666,0.025-4.608-1.066-5.389
		c-1.096-0.781-2.916-2.083-4.557-2.083s-3.594-0.052-4.791,0.573S127.228,19.373,127.228,19.373"/>
	<polygon clip-path="url(#SVGID_2_)" fill="#FFFFFF" points="115.132,13.402 122.597,13.402 119.21,32.729 111.634,32.729 	"/>
	<path clip-path="url(#SVGID_2_)" fill="#FFFFFF" d="M100.18,17.395l8.434-3.827l-0.598,3.983l3.072,0.13l-0.73,4.765l-3.436,0.286
		l-1.797,10.05c0,0-5.519,0.677-5.884-0.286c-0.364-0.964-1.692-3.49-1.379-4.089C98.174,27.809,100.18,17.395,100.18,17.395"/>
	<path clip-path="url(#SVGID_2_)" fill="#FFFFFF" d="M84.793,18.097c-0.781,0.391-2.474,1.25-2.969,1.979
		c-0.494,0.728-1.821,2.707-1.978,3.931c-0.157,1.224-0.755,4.036-0.157,5.233c0.6,1.197,0.859,2.448,2.344,2.942
		c1.483,0.494,3.515,1.302,5.676,0.807c2.16-0.495,4.556-1.275,5.311-2.421c0.755-1.146,1.614-2.422,1.926-3.619
		c0.313-1.198,1.146-4.088,0.573-5.051c-0.573-0.963-2.056-3.463-2.785-3.723c-0.729-0.26-2.422-0.885-3.645-0.885
		C87.865,17.29,84.793,18.097,84.793,18.097"/>
	<path clip-path="url(#SVGID_2_)" fill="#FFFFFF" d="M62.273,17.759l-2.552,14.734l15.049,0.236c0,0,2.499-11.716,1.952-12.498
		c-0.547-0.781-1.927-2.343-2.629-2.447C73.39,17.681,62.273,17.759,62.273,17.759"/>
	<path clip-path="url(#SVGID_2_)" fill="#71A81D" d="M23.056,21.853c2.374-1.001,4.94-1.656,7.646-1.893
		c5.175-0.453,10.123,0.686,14.362,3.009c0.952-6.167-0.386-12.594-3.952-17.935C32.571,7.13,25.732,13.556,23.056,21.853"/>
	<path clip-path="url(#SVGID_2_)" fill="#0068AE" d="M58.145,42.987c-0.768-8.761-5.907-16.087-13.081-20.019
		c-0.738,4.777-2.847,9.396-6.355,13.228c-3.511,3.83-7.93,6.332-12.624,7.482c4.542,6.805,12.289,11.288,21.084,11.288
		c3.495,0,6.825-0.707,9.854-1.989C58.034,49.849,58.45,46.47,58.145,42.987"/>
	<path clip-path="url(#SVGID_2_)" fill="#EE7F00" d="M26.085,43.679c-2.684-4.02-4.248-8.848-4.248-14.044
		c0-2.714,0.428-5.329,1.219-7.782C15.025,25.242,9.218,32.614,7.875,41.305C13.504,44.392,20.024,45.163,26.085,43.679"/>
	<path clip-path="url(#SVGID_2_)" fill="#EE7F00" d="M67.319,39.112c0,0,0.039-0.22,0.26-0.22h0.938l0.394,2.717
		c0.101,0.685,0.103,1.115,0.103,1.115s0.144-0.442,0.457-1.093l1.195-2.52c0.085-0.165,0.127-0.22,0.26-0.22h1.039l-1.325,7.51
		c-0.039,0.222-0.039,0.222-1.309,0.222l0.517-2.617c0.268-1.338,0.789-2.785,0.789-2.785h-0.011
		c-0.319,0.74-0.74,1.691-0.907,2.011l-0.789,1.469c-0.034,0.067-0.092,0.078-0.135,0.078h-0.509l-0.246-1.547
		c-0.057-0.31-0.132-1.259-0.186-2.021l-0.013,0.01c0,0,0.015,1.48-0.187,2.751l-0.396,2.43c-0.039,0.222-0.116,0.222-1.265,0.222
		L67.319,39.112z"/>
	<path clip-path="url(#SVGID_2_)" fill="#EE7F00" d="M76.241,45.519c-0.183,1.039-0.195,1.105-0.416,1.105h-2.573l1.325-7.512
		c0,0,0.05-0.221,0.259-0.221h2.651c-0.176,0.994-0.195,1.105-0.415,1.105h-1.414l-0.332,1.877h1.337
		C76.5,42.802,76.464,43,76.254,43h-1.127l-0.443,2.519H76.241z"/>
	<path clip-path="url(#SVGID_2_)" fill="#EE7F00" d="M81.288,38.893c1.469,0,2.052,0.64,1.574,3.347
		c-0.543,3.082-1.391,4.385-2.883,4.385h-1.424l1.324-7.512c0.024-0.143,0.105-0.22,0.348-0.22H81.288z M81.167,40.019h-0.21
		L80,45.442l0.22,0.01c0.342,0,0.724-0.408,1.219-3.213C81.786,40.262,81.564,40.019,81.167,40.019"/>
	<path clip-path="url(#SVGID_2_)" fill="#EE7F00" d="M85.323,42.757c0.29-1.645,0.564-3.323,0.564-3.323
		c0.096-0.541,0.118-0.541,1.354-0.541c0,0-0.414,2.22-0.704,3.864c-0.345,1.957-0.62,3.646-0.62,3.646
		c-0.039,0.222-0.051,0.222-1.298,0.222C84.62,46.624,84.978,44.714,85.323,42.757"/>
	<path clip-path="url(#SVGID_2_)" fill="#EE7F00" d="M91.656,44.867h-1.446l-0.604,1.548c-0.06,0.153-0.106,0.23-0.604,0.23
		c-0.166,0-0.495-0.012-0.777-0.044l3.167-7.5c0.063-0.165,0.352-0.231,0.538-0.231c0.21,0,0.43,0.01,0.578,0.045l0.52,7.51
		c0.009,0.144-0.094,0.221-0.592,0.221c-0.165,0-0.396,0-0.713-0.021L91.656,44.867z M90.649,43.751h0.961l-0.04-1.026
		c-0.018-0.585-0.012-1.06,0.057-1.757c-0.179,0.697-0.352,1.172-0.575,1.757L90.649,43.751z"/>
	<path clip-path="url(#SVGID_2_)" fill="#1A171B" d="M58.886,33.278l2.851-16.163h9.549c2.578,0,4.301,0.446,5.168,1.339
		c0.867,0.892,1.101,2.465,0.705,4.72l-1.782,10.104H58.886z M60.495,32.149h6.116l1.781-10.103h0.209
		c0.391,0,0.676,0.07,0.855,0.212c0.18,0.14,0.247,0.342,0.201,0.605c-0.007,0.038-0.017,0.116-0.026,0.233
		c-0.011,0.117-0.023,0.213-0.036,0.288l-1.546,8.764h6.102l1.603-9.088c0.321-1.821,0.163-3.081-0.474-3.776
		c-0.637-0.694-1.936-1.043-3.894-1.043h-8.439L60.495,32.149z"/>
	<path clip-path="url(#SVGID_2_)" fill="#1A171B" d="M85.892,33.659c-2.718,0-4.71-0.748-5.976-2.241
		c-1.265-1.494-1.664-3.565-1.197-6.214c0.469-2.659,1.6-4.736,3.392-6.229c1.793-1.493,4.048-2.24,6.766-2.24
		c2.719,0,4.715,0.747,5.991,2.24c1.275,1.493,1.679,3.57,1.21,6.229c-0.467,2.649-1.603,4.72-3.404,6.214
		C90.872,32.911,88.612,33.659,85.892,33.659 M86.625,25.513h7.974l0.068-0.379c0.398-2.265,0.064-4.042-1.001-5.335
		c-1.066-1.291-2.729-1.937-4.988-1.937c-2.268,0-4.156,0.648-5.664,1.944s-2.464,3.096-2.87,5.398
		c-0.401,2.273-0.073,4.058,0.982,5.354c1.055,1.296,2.712,1.944,4.971,1.944c1.969,0,3.682-0.517,5.137-1.55
		c1.457-1.033,2.48-2.46,3.072-4.282h-6.475l-0.301,1.704c-0.042,0.235-0.142,0.428-0.298,0.577c-0.156,0.15-0.34,0.225-0.55,0.225
		c-0.219,0-0.379-0.072-0.478-0.218c-0.1-0.146-0.127-0.34-0.085-0.584L86.625,25.513z M87.352,21.385
		c0.041-0.235,0.141-0.428,0.296-0.578c0.157-0.151,0.341-0.226,0.551-0.226c0.199,0,0.354,0.072,0.465,0.212
		c0.108,0.141,0.146,0.32,0.107,0.535l-0.01,0.057l-0.315,1.789h-1.409L87.352,21.385z"/>
	<path clip-path="url(#SVGID_2_)" fill="#1A171B" d="M99.528,17.114l9.897-4.269l-0.752,4.269h3.4l-1.057,6.004h-3.402
		l-1.811,10.273c-0.605,0.082-1.176,0.148-1.707,0.195c-0.533,0.047-1.016,0.071-1.445,0.071c-2.217,0-3.703-0.437-4.453-1.312
		c-0.75-0.873-0.926-2.438-0.529-4.691L99.528,17.114z M104.577,32.347l1.816-10.299h3.402l0.682-3.861h-3.402l0.59-3.353
		l-6.844,2.943l-1.747,9.907c-0.326,1.85-0.215,3.117,0.335,3.798c0.549,0.681,1.648,1.021,3.295,1.021
		c0.371,0,0.705-0.011,1.004-0.034S104.296,32.404,104.577,32.347"/>
	<path clip-path="url(#SVGID_2_)" fill="#1A171B" d="M110.888,33.278l3.605-20.433h8.963l-3.602,20.433H110.888z M112.497,32.149
		h6.146l3.205-18.176h-6.146L112.497,32.149z"/>
	<path clip-path="url(#SVGID_2_)" fill="#1A171B" d="M133.489,16.734c2.719,0,4.717,0.748,5.99,2.241
		c1.275,1.493,1.68,3.57,1.211,6.229c-0.467,2.649-1.602,4.72-3.404,6.214c-1.803,1.493-4.062,2.239-6.781,2.239
		s-4.709-0.746-5.977-2.239c-1.264-1.494-1.664-3.565-1.195-6.214c0.467-2.659,1.598-4.736,3.391-6.229
		C128.515,17.482,130.771,16.734,133.489,16.734 M133.29,17.862c-2.268,0-4.156,0.648-5.664,1.944
		c-1.508,1.297-2.463,3.096-2.869,5.398c-0.402,2.272-0.074,4.058,0.98,5.354c1.057,1.297,2.713,1.944,4.973,1.944
		c2.258,0,4.148-0.649,5.672-1.951c1.523-1.301,2.484-3.083,2.885-5.347c0.406-2.302,0.078-4.101-0.982-5.398
		C137.224,18.51,135.56,17.862,133.29,17.862 M133.229,22.372l-0.996,5.649c-0.041,0.235-0.145,0.43-0.312,0.586
		c-0.168,0.154-0.355,0.233-0.566,0.233c-0.219,0-0.379-0.076-0.477-0.226c-0.1-0.15-0.127-0.348-0.082-0.593l0.996-5.649
		c0.043-0.244,0.141-0.44,0.297-0.586c0.156-0.145,0.34-0.218,0.549-0.218s0.371,0.075,0.484,0.225
		C133.235,21.944,133.271,22.137,133.229,22.372"/>
	<path clip-path="url(#SVGID_2_)" fill="#1A171B" d="M160.749,17.114l-2.412,13.683c-0.521,2.959-1.438,4.984-2.75,6.073
		c-1.311,1.09-3.426,1.635-6.344,1.635c-0.779,0-1.578-0.032-2.396-0.099c-0.816-0.067-1.674-0.169-2.566-0.31l0.873-4.959
		c-1.484-0.49-2.5-1.34-3.049-2.551c-0.553-1.212-0.65-2.829-0.293-4.848c0.34-1.925,0.881-3.504,1.621-4.734
		c0.742-1.231,1.721-2.18,2.939-2.848c0.674-0.374,1.51-0.641,2.508-0.802c0.998-0.159,2.457-0.24,4.375-0.24H160.749z
		 M159.128,18.243h-6.506c-1.539,0-2.742,0.075-3.609,0.225c-0.865,0.151-1.578,0.394-2.137,0.733
		c-0.949,0.563-1.719,1.372-2.309,2.424s-1.027,2.386-1.312,4.001c-0.416,2.358-0.227,4.085,0.562,5.179
		c0.791,1.094,2.236,1.642,4.336,1.642c0.09,0,0.203-0.005,0.34-0.015c0.137-0.009,0.348-0.028,0.631-0.056l1.586-8.99
		c0.104-0.582,0.246-0.951,0.428-1.106c0.182-0.156,0.492-0.233,0.934-0.233h0.285l-1.711,9.695
		c-0.139,0.78-0.371,1.258-0.703,1.438c-0.33,0.179-0.996,0.268-1.996,0.268c-0.189,0-0.42-0.007-0.693-0.021
		c-0.271-0.015-0.564-0.035-0.881-0.064l-0.662,3.748c0.953,0.104,1.729,0.175,2.326,0.212s1.145,0.057,1.645,0.057
		c2.33,0,3.992-0.392,4.99-1.176c0.998-0.785,1.715-2.412,2.15-4.884L159.128,18.243z"/>
	<path clip-path="url(#SVGID_2_)" fill="#1A171B" d="M160.839,33.277l3.602-20.432h8.965l-3.602,20.432H160.839z M162.446,32.15
		h6.146l2.457-13.935h-6.146L162.446,32.15z M165.089,17.171h6.145l0.564-3.199h-6.146L165.089,17.171z"/>
	<path clip-path="url(#SVGID_2_)" fill="#1A171B" d="M170.942,33.278l6.504-8.654l-2.799-7.51h17.479l-4.768,7.99l2.98,8.174
		H170.942z M178.958,28.374l0.961-1.451l1.881,5.227h6.625l-2.547-6.975l4.145-6.932h-5.35l1.209,2.916l-0.924,1.409l-1.785-4.325
		h-6.596l2.373,6.355l-5.635,7.552h7L178.958,28.374z"/>
</g>
</svg>
