<?xml version="1.0" encoding="utf-8"?>
<!-- Generator: Adobe Illustrator 15.0.3, SVG Export Plug-In  -->
<!DOCTYPE svg PUBLIC "-//W3C//DTD SVG 1.1 Tiny//EN" "http://www.w3.org/Graphics/SVG/1.1/DTD/svg11-tiny.dtd" [
	<!ENTITY ns_flows "http://ns.adobe.com/Flows/1.0/">
]>
<svg version="1.1" baseProfile="tiny"
	 xmlns="http://www.w3.org/2000/svg" xmlns:xlink="http://www.w3.org/1999/xlink" xmlns:a="http://ns.adobe.com/AdobeSVGViewerExtensions/3.0/"
	 x="0px" y="0px" width="313px" height="86px" viewBox="28 27.732 313 86" xml:space="preserve">
<defs>
</defs>
<rect fill="none" width="368.505" height="141.732"/>
<path fill="#71A81D" d="M54.613,56.834c4.021-1.695,8.369-2.805,12.951-3.207c8.766-0.766,17.146,1.162,24.326,5.098
c1.611-10.445-0.654-21.332-6.693-30.378C70.73,31.896,59.146,42.781,54.613,56.834z" />
<path fill="#0068AE" d="M114.047,92.631c-1.299-14.838-10.006-27.248-22.156-33.906c-1.25,8.09-4.82,15.914-10.764,22.404
c-5.947,6.486-13.432,10.725-21.383,12.674c7.691,11.525,20.814,19.119,35.711,19.119c5.92,0,11.561-1.197,16.691-3.369
C113.859,104.254,114.563,98.531,114.047,92.631z" />
<path fill="#EE7F00" d="M59.744,93.803c-4.545-6.809-7.195-14.986-7.195-23.787c0-4.598,0.725-9.027,2.064-13.182
c-13.604,5.74-23.439,18.229-25.715,32.947C38.436,95.01,49.479,96.318,59.744,93.803z" />
<path d="M114.212,76.143l4.85-27.509h16.252c4.388,0,7.321,0.76,8.796,2.278c1.476,1.52,1.875,4.195,1.199,8.033l-3.032,17.197
	H114.212z M116.948,74.223h10.41l3.032-17.195h0.357c0.664,0,1.148,0.119,1.454,0.359s0.42,0.584,0.342,1.031
	c-0.012,0.064-0.026,0.197-0.044,0.396s-0.038,0.363-0.061,0.49l-2.631,14.918h10.384l2.728-15.469
	c0.546-3.102,0.278-5.244-0.807-6.426c-1.083-1.184-3.293-1.775-6.625-1.775h-14.364L116.948,74.223z"/>
<path d="M160.176,76.789c-4.627,0-8.018-1.27-10.171-3.813s-2.833-6.068-2.038-10.576c0.798-4.525,2.723-8.061,5.771-10.602
	c3.053-2.542,6.889-3.813,11.517-3.813c4.626,0,8.024,1.271,10.196,3.813c2.171,2.541,2.857,6.076,2.061,10.602
	c-0.795,4.508-2.728,8.033-5.795,10.576C168.65,75.52,164.803,76.789,160.176,76.789z M161.421,62.928h13.573l0.113-0.646
	c0.681-3.854,0.112-6.879-1.702-9.078c-1.815-2.199-4.646-3.299-8.489-3.299c-3.861,0-7.074,1.104-9.641,3.311
	c-2.566,2.205-4.194,5.268-4.885,9.186c-0.684,3.869-0.126,6.906,1.671,9.113c1.797,2.205,4.617,3.309,8.462,3.309
	c3.35,0,6.264-0.879,8.743-2.639c2.479-1.758,4.222-4.188,5.228-7.289h-11.021l-0.512,2.902c-0.07,0.398-0.24,0.727-0.504,0.982
	c-0.268,0.256-0.58,0.383-0.938,0.383c-0.372,0-0.645-0.123-0.814-0.371c-0.168-0.248-0.215-0.58-0.143-0.994L161.421,62.928z
	 M162.66,55.9c0.07-0.4,0.238-0.727,0.505-0.984c0.266-0.256,0.577-0.383,0.935-0.383c0.341,0,0.604,0.121,0.793,0.359
	c0.186,0.24,0.248,0.545,0.183,0.912l-0.017,0.096l-0.537,3.045h-2.398L162.66,55.9z"/>
<path d="M183.383,48.634l16.844-7.267l-1.28,7.267h5.79l-1.802,10.218h-5.79l-3.081,17.482c-1.03,0.143-1.999,0.256-2.905,0.336
	s-1.727,0.119-2.457,0.119c-3.776,0-6.303-0.744-7.58-2.23s-1.576-4.148-0.9-7.986L183.383,48.634z M191.977,74.559l3.092-17.531
	h5.79l1.16-6.57h-5.79l1.004-5.708l-11.649,5.011l-2.974,16.861c-0.555,3.15-0.364,5.303,0.57,6.463
	c0.936,1.16,2.806,1.738,5.611,1.738c0.631,0,1.199-0.02,1.708-0.061C191.008,74.723,191.5,74.654,191.977,74.559z"/>
<path d="M202.719,76.143l6.133-34.775h15.258l-6.134,34.775H202.719z M205.457,74.223h10.46l5.454-30.938h-10.46L205.457,74.223z"/>
<path d="M241.186,47.986c4.626,0,8.024,1.271,10.195,3.813c2.171,2.541,2.857,6.076,2.061,10.602
	c-0.795,4.508-2.728,8.033-5.795,10.576s-6.914,3.813-11.54,3.813c-4.628,0-8.018-1.27-10.172-3.813
	c-2.153-2.543-2.832-6.068-2.037-10.576c0.797-4.525,2.722-8.061,5.771-10.602C232.719,49.257,236.558,47.986,241.186,47.986z
	 M240.846,49.904c-3.86,0-7.073,1.104-9.64,3.311c-2.567,2.205-4.194,5.268-4.885,9.186c-0.684,3.869-0.126,6.906,1.67,9.113
	c1.798,2.205,4.618,3.309,8.462,3.309c3.843,0,7.062-1.105,9.654-3.32c2.595-2.215,4.229-5.25,4.91-9.102
	c0.691-3.918,0.134-6.98-1.672-9.186C247.54,51.008,244.708,49.904,240.846,49.904z M240.744,57.58l-1.696,9.615
	c-0.07,0.4-0.247,0.732-0.533,0.996c-0.285,0.264-0.604,0.396-0.962,0.396c-0.375,0-0.646-0.129-0.813-0.383
	c-0.169-0.256-0.216-0.592-0.142-1.01l1.696-9.615c0.072-0.416,0.241-0.748,0.506-0.996s0.577-0.371,0.935-0.371
	c0.356,0,0.632,0.127,0.824,0.383C240.754,56.852,240.814,57.18,240.744,57.58z"/>
<path d="M287.582,48.634l-4.105,23.286c-0.889,5.037-2.449,8.482-4.681,10.338c-2.231,1.854-5.831,2.781-10.798,2.781
	c-1.327,0-2.685-0.057-4.078-0.168c-1.392-0.113-2.848-0.287-4.371-0.527l1.488-8.441c-2.524-0.83-4.255-2.279-5.191-4.342
	c-0.938-2.063-1.104-4.813-0.498-8.25c0.578-3.277,1.499-5.963,2.761-8.059c1.262-2.094,2.929-3.709,5.001-4.844
	c1.148-0.639,2.573-1.094,4.271-1.366s4.181-0.408,7.446-0.408H287.582z M284.821,50.553h-11.073c-2.62,0-4.667,0.128-6.141,0.383
	c-1.474,0.256-2.687,0.672-3.639,1.248c-1.615,0.959-2.924,2.334-3.929,4.125c-1.005,1.789-1.749,4.061-2.233,6.811
	c-0.709,4.012-0.389,6.951,0.957,8.814c1.347,1.861,3.808,2.793,7.38,2.793c0.153,0,0.346-0.008,0.577-0.023
	c0.233-0.016,0.593-0.049,1.075-0.096l2.698-15.303c0.175-0.99,0.418-1.617,0.729-1.881c0.31-0.266,0.838-0.396,1.588-0.396h0.484
	l-2.91,16.5c-0.233,1.328-0.632,2.143-1.195,2.445c-0.565,0.305-1.698,0.457-3.397,0.457c-0.323,0-0.716-0.014-1.182-0.035
	c-0.463-0.025-0.961-0.061-1.497-0.109l-1.127,6.379c1.619,0.176,2.938,0.297,3.957,0.361c1.017,0.063,1.95,0.096,2.801,0.096
	c3.964,0,6.794-0.668,8.492-2.002c1.699-1.336,2.918-4.105,3.66-8.313L284.821,50.553z"/>
<path d="M287.733,76.143l6.131-34.775h15.258l-6.132,34.775H287.733z M290.47,74.223h10.46l4.183-23.717h-10.461L290.47,74.223z
	 M294.966,48.73h10.46l0.96-5.445h-10.46L294.966,48.73z"/>
<path d="M304.93,76.143l11.069-14.727l-4.764-12.782h29.749l-8.113,13.597l5.073,13.912H304.93z M318.571,67.797l1.635-2.471
	l3.203,8.896h11.277l-4.338-11.871l7.058-11.799h-9.108l2.059,4.963l-1.571,2.398l-3.038-7.361h-11.227l4.037,10.816l-9.589,12.854
	h11.915L318.571,67.797z"/>
</svg>
