<?xml version="1.0" encoding="utf-8"?>
<!-- Generator: Adobe Illustrator 14.0.0, SVG Export Plug-In . SVG Version: 6.00 Build 43363)  -->
<!DOCTYPE svg PUBLIC "-//W3C//DTD SVG 1.1//EN" "http://www.w3.org/Graphics/SVG/1.1/DTD/svg11.dtd">
<svg version="1.1" id="Ebene_1" xmlns="http://www.w3.org/2000/svg" xmlns:xlink="http://www.w3.org/1999/xlink" x="0px" y="0px"
	 width="300px" height="150px" viewBox="6.5 -32 300 150" enable-background="new 6.5 -32 300 150" xml:space="preserve">
<g>
	<path fill="#71A81D" d="M39.571,30.618c3.607-1.521,7.508-2.517,11.62-2.877c7.864-0.688,15.382,1.042,21.825,4.573
		c1.444-9.371-0.587-19.139-6.005-27.254C54.031,8.244,43.638,18.01,39.571,30.618z"/>
	<path fill="#0068AE" d="M92.894,62.734c-1.165-13.312-8.977-24.446-19.877-30.42c-1.121,7.258-4.325,14.277-9.658,20.101
		c-5.335,5.819-12.051,9.622-19.185,11.371c6.901,10.341,18.675,17.153,32.04,17.153c5.312,0,10.373-1.074,14.976-3.022
		C92.726,73.163,93.358,68.028,92.894,62.734z"/>
	<path fill="#EE7F00" d="M44.174,63.786c-4.078-6.108-6.456-13.445-6.456-21.342c0-4.125,0.651-8.099,1.853-11.826
		c-12.206,5.15-21.03,16.354-23.071,29.56C25.057,64.869,34.965,66.043,44.174,63.786z"/>
	<path d="M93.042,47.941l4.352-24.681h14.581c3.937,0,6.568,0.683,7.892,2.044c1.324,1.363,1.682,3.765,1.076,7.208l-2.721,15.429
		H93.042L93.042,47.941z M95.497,46.219h9.34l2.72-15.427h0.32c0.596,0,1.03,0.106,1.305,0.322c0.274,0.215,0.376,0.523,0.307,0.925
		c-0.011,0.058-0.023,0.177-0.04,0.355c-0.016,0.179-0.034,0.326-0.054,0.44l-2.36,13.384h9.316l2.447-13.879
		c0.49-2.783,0.25-4.705-0.724-5.766c-0.972-1.062-2.955-1.592-5.944-1.592H99.242L95.497,46.219z"/>
	<path d="M134.28,48.521c-4.151,0-7.193-1.139-9.125-3.421c-1.931-2.281-2.542-5.444-1.829-9.488
		c0.717-4.061,2.444-7.232,5.178-9.513c2.739-2.28,6.181-3.421,10.333-3.421c4.15,0,7.199,1.141,9.147,3.421s2.563,5.451,1.85,9.513
		c-0.714,4.044-2.448,7.207-5.2,9.488C141.884,47.383,138.432,48.521,134.28,48.521z M135.397,36.085h12.178l0.102-0.579
		c0.611-3.458,0.101-6.172-1.526-8.145c-1.629-1.973-4.169-2.961-7.617-2.961c-3.463,0-6.347,0.991-8.649,2.972
		c-2.302,1.979-3.763,4.727-4.382,8.242c-0.614,3.471-0.113,6.196,1.499,8.176c1.612,1.979,4.142,2.969,7.592,2.969
		c3.005,0,5.619-0.789,7.844-2.367c2.224-1.577,3.788-3.758,4.69-6.54h-9.888l-0.46,2.604c-0.062,0.356-0.215,0.652-0.452,0.88
		c-0.24,0.23-0.521,0.345-0.841,0.345c-0.334,0-0.579-0.11-0.73-0.333s-0.193-0.521-0.128-0.892L135.397,36.085z M136.51,29.78
		c0.062-0.359,0.214-0.652,0.453-0.883c0.239-0.229,0.518-0.344,0.839-0.344c0.306,0,0.542,0.108,0.712,0.322
		c0.166,0.215,0.223,0.489,0.163,0.818l-0.015,0.086l-0.481,2.732h-2.152L136.51,29.78z"/>
	<path d="M155.101,23.261l15.113-6.52l-1.149,6.52h5.195l-1.616,9.167h-5.195l-2.764,15.686c-0.925,0.128-1.794,0.229-2.607,0.302
		c-0.812,0.071-1.549,0.106-2.204,0.106c-3.388,0-5.654-0.668-6.801-2.001c-1.146-1.334-1.414-3.721-0.807-7.165L155.101,23.261z
		 M162.812,46.521l2.774-15.729h5.194l1.041-5.895h-5.194l0.9-5.121l-10.452,4.496l-2.668,15.127
		c-0.497,2.826-0.326,4.758,0.512,5.799c0.84,1.041,2.518,1.559,5.034,1.559c0.565,0,1.075-0.018,1.532-0.054
		C161.942,46.668,162.385,46.606,162.812,46.521z"/>
	<path d="M172.449,47.941l5.504-31.199h13.688l-5.503,31.199H172.449z M174.906,46.219h9.385l4.894-27.757H179.8L174.906,46.219z"/>
	<path d="M206.963,22.68c4.15,0,7.198,1.141,9.146,3.421c1.949,2.279,2.564,5.451,1.85,9.512c-0.713,4.045-2.447,7.207-5.199,9.488
		c-2.752,2.282-6.203,3.422-10.354,3.422c-4.151,0-7.194-1.14-9.126-3.422c-1.932-2.281-2.541-5.443-1.827-9.488
		c0.715-4.06,2.441-7.232,5.177-9.512C199.365,23.82,202.81,22.68,206.963,22.68z M206.657,24.4c-3.463,0-6.346,0.99-8.649,2.971
		c-2.303,1.979-3.762,4.726-4.382,8.241c-0.613,3.472-0.113,6.196,1.498,8.176c1.612,1.979,4.144,2.969,7.592,2.969
		c3.447,0,6.336-0.991,8.662-2.978c2.327-1.987,3.793-4.711,4.405-8.167c0.619-3.516,0.119-6.262-1.5-8.241
		C212.663,25.391,210.122,24.4,206.657,24.4z M206.565,31.287l-1.521,8.627c-0.062,0.359-0.222,0.657-0.478,0.894
		s-0.543,0.355-0.863,0.355c-0.336,0-0.58-0.116-0.729-0.344c-0.152-0.23-0.194-0.532-0.127-0.907l1.521-8.626
		c0.064-0.373,0.217-0.671,0.454-0.894c0.238-0.223,0.518-0.333,0.839-0.333c0.319,0,0.567,0.114,0.74,0.345
		C206.574,30.634,206.629,30.929,206.565,31.287z"/>
	<path d="M248.588,23.261l-3.683,20.893c-0.798,4.519-2.197,7.61-4.2,9.274c-2.001,1.663-5.231,2.496-9.688,2.496
		c-1.19,0-2.408-0.052-3.659-0.151c-1.248-0.102-2.555-0.258-3.922-0.473l1.336-7.574c-2.265-0.744-3.817-2.044-4.657-3.895
		c-0.842-1.851-0.991-4.318-0.446-7.402c0.518-2.939,1.345-5.35,2.477-7.23c1.132-1.878,2.628-3.327,4.486-4.346
		c1.03-0.572,2.31-0.98,3.832-1.226c1.523-0.244,3.752-0.366,6.681-0.366H248.588L248.588,23.261z M246.111,24.982h-9.935
		c-2.352,0-4.188,0.116-5.51,0.344c-1.323,0.229-2.411,0.603-3.266,1.119c-1.448,0.861-2.623,2.095-3.524,3.701
		c-0.901,1.605-1.569,3.645-2.003,6.111c-0.637,3.6-0.35,6.235,0.858,7.907c1.208,1.67,3.416,2.506,6.621,2.506
		c0.137,0,0.311-0.007,0.518-0.02c0.209-0.016,0.532-0.045,0.964-0.087l2.421-13.729c0.157-0.889,0.375-1.451,0.654-1.688
		c0.278-0.238,0.752-0.355,1.425-0.355h0.434l-2.609,14.803c-0.21,1.192-0.568,1.924-1.073,2.194
		c-0.507,0.273-1.523,0.41-3.048,0.41c-0.289,0-0.642-0.013-1.06-0.031c-0.416-0.022-0.862-0.055-1.344-0.098l-1.011,5.723
		c1.452,0.158,2.636,0.267,3.55,0.324c0.912,0.057,1.75,0.086,2.513,0.086c3.557,0,6.096-0.599,7.619-1.796
		c1.524-1.198,2.618-3.683,3.284-7.459L246.111,24.982z"/>
	<path d="M248.723,47.941l5.501-31.199h13.688l-5.501,31.199H248.723z M251.179,46.219h9.385l3.752-21.278h-9.385L251.179,46.219z
		 M255.213,23.348h9.385l0.861-4.886h-9.385L255.213,23.348z"/>
	<path d="M264.153,47.941l9.93-13.212l-4.273-11.469h26.69L289.22,35.46l4.552,12.481H264.153z M276.391,40.454l1.466-2.217
		l2.874,7.981h10.117l-3.892-10.65l6.333-10.586h-8.172l1.848,4.453l-1.41,2.15l-2.726-6.604h-10.072l3.621,9.704l-8.603,11.532
		h10.689L276.391,40.454z"/>
</g>
</svg>
