<?xml version="1.0" encoding="utf-8"?>
<!-- Generator: Adobe Illustrator 14.0.0, SVG Export Plug-In . SVG Version: 6.00 Build 43363)  -->
<!DOCTYPE svg PUBLIC "-//W3C//DTD SVG 1.1//EN" "http://www.w3.org/Graphics/SVG/1.1/DTD/svg11.dtd">
<svg version="1.1" id="Ebene_1" xmlns="http://www.w3.org/2000/svg" xmlns:xlink="http://www.w3.org/1999/xlink" x="0px" y="0px"
	 width="25px" height="40px" viewBox="37.5 30 25 40" enable-background="new 37.5 30 25 40" xml:space="preserve">
<g id="pin">
	<path fill="#FF8700" d="M50,30c-6.904,0-12.5,5.325-12.5,11.892C37.5,48.461,50,70,50,70s12.5-21.539,12.5-28.108
		C62.5,35.325,56.901,30,50,30z"/>
</g>
<g id="typo3">
	<path fill="#FFFFFF" d="M54.618,47.406c-0.267,0.079-0.483,0.106-0.767,0.106c-2.313,0-5.718-7.989-5.718-10.646
		c0-0.98,0.236-1.307,0.567-1.587c-2.835,0.327-6.236,1.354-7.322,2.66C41.145,38.265,41,38.776,41,39.432
		C41,43.583,45.487,53,48.652,53C50.118,53,52.589,50.622,54.618,47.406"/>
	<path fill="#FFFFFF" d="M53.139,35C56.071,35,59,35.466,59,37.098c0,3.312-2.127,7.323-3.212,7.323
		c-1.938,0-4.348-5.318-4.348-7.975C51.44,35.233,51.911,35,53.139,35"/>
</g>
</svg>
