<?xml version="1.0" encoding="utf-8"?>
<!-- Generator: Adobe Illustrator 14.0.0, SVG Export Plug-In . SVG Version: 6.00 Build 43363)  -->
<!DOCTYPE svg PUBLIC "-//W3C//DTD SVG 1.1//EN" "http://www.w3.org/Graphics/SVG/1.1/DTD/svg11.dtd">
<svg version="1.1" id="Logo_plus_guides" xmlns="http://www.w3.org/2000/svg" xmlns:xlink="http://www.w3.org/1999/xlink" x="0px"
	 y="0px" width="300px" height="150px" viewBox="15.992 -35.108 300 150" enable-background="new 15.992 -35.108 300 150"
	 xml:space="preserve">
<g>
	<g>
		<path d="M127.515,52.669c-2.421,0-4.553-0.482-6.02-0.834v8.194c0,0.555-0.235,0.832-0.787,0.926l-4.493,0.834h-0.186
			c-0.417,0-0.751-0.275-0.751-0.744V32.382c0-2.406,0.84-3.103,2.929-3.751c2.781-0.973,6.343-1.482,9.445-1.482
			c8.942,0,10.1,5.418,10.1,12.787C137.753,47.253,136.136,52.669,127.515,52.669z M126.361,31.506
			c-2.135,0-4.865,0.739-4.865,0.739v15.611c0,0,1.899,0.551,4.401,0.551c4.212,0,5.513-1.571,5.513-8.611
			C131.41,32.289,129.878,31.506,126.361,31.506z"/>
		<path d="M153.582,52.669c-7.506,0-10.88-2.453-10.88-8.987V28.91c0-0.558,0.271-0.834,0.787-0.922l4.535-0.839h0.19
			c0.458,0,0.69,0.278,0.69,0.742V44.01c0,2.963,1.062,4.446,4.677,4.446c4.075,0,4.585-1.993,4.585-4.496V28.956
			c0-0.604,0.233-0.88,0.788-0.968l4.538-0.792c0.046-0.047,0.138-0.047,0.187-0.047c0.417,0,0.693,0.278,0.693,0.787v15.703
			C164.373,49.377,161.737,52.669,153.582,52.669z"/>
		<path d="M191.385,52.066h-4.771c-0.414,0-0.746-0.274-0.746-0.692V35.023c0-2.685-1.019-3.607-3.472-3.607
			c-2.777,0-5.791,0.782-5.791,0.782v19.176c0,0.416-0.277,0.692-0.692,0.692h-4.726c-0.463,0-0.787-0.274-0.787-0.692V31.416
			c0-1.765,0.88-2.368,3.479-3.064c2.354-0.647,6.25-1.203,9.21-1.203c5.793,0,8.987,1.482,8.987,7.044v17.182
			C192.075,51.79,191.799,52.066,191.385,52.066z"/>
		<path d="M220.38,51.652c0,0.184-0.19,0.412-0.462,0.412h-6.213c-0.231,0-0.46,0-0.692-0.274l-7.181-9.771h-1.57v9.355
			c0,0.416-0.236,0.692-0.699,0.692h-4.771c-0.414,0-0.739-0.274-0.739-0.692V18.998c0-0.556,0.226-0.831,0.783-0.973l4.543-0.778
			h0.186c0.414,0,0.698,0.269,0.698,0.778v19.827h1.57l7.322-9.775c0.187-0.279,0.37-0.323,0.599-0.323l5.652,0.14
			c0.324,0,0.465,0.23,0.465,0.415c0,0.097-0.049,0.141-0.102,0.23l-8.749,11.028l9.268,11.849
			C220.33,51.461,220.38,51.558,220.38,51.652z"/>
		<path d="M237.937,50.909c0,0.323-0.191,0.602-0.56,0.694c-0.787,0.232-2.829,0.879-5.791,0.879c-5.277,0-7.92-2.036-7.92-7.27
			V21.359c0-0.551,0.274-0.833,0.79-0.972l4.539-0.836h0.229c0.415,0,0.648,0.233,0.648,0.742v7.46h6.625
			c0.413,0,0.691,0.275,0.691,0.694v3.15c0,0.416-0.277,0.647-0.691,0.647h-6.625v12.826c0,2.038,0.84,2.871,3.245,2.871
			c1.388,0,2.732-0.232,3.521-0.413h0.186c0.275,0,0.46,0.182,0.511,0.506l0.552,2.638
			C237.885,50.766,237.937,50.817,237.937,50.909z"/>
		<path d="M251.244,51.281c0,0.462-0.366,0.785-0.918,0.785h-5.516c-0.557,0-0.928-0.323-0.928-0.785v-4.444
			c0-0.418,0.371-0.787,0.928-0.787h5.516c0.553,0,0.918,0.369,0.918,0.787V51.281z"/>
		<path d="M275.44,51.652c-2.037,0.552-4.63,1.018-7.731,1.018c-9.082,0-11.954-3.194-11.954-12.64c0-8.2,2.13-12.881,10.283-12.881
			c3.202,0,5.19,0.675,5.979,0.906v-9.058c0-0.556,0.232-0.882,0.791-0.973l4.492-0.778h0.229c0.415,0,0.692,0.269,0.692,0.732
			v30.058C278.22,49.377,278.084,50.909,275.44,51.652z M272.016,31.968c0,0-2.27-0.512-4.444-0.512
			c-3.94,0-5.467,0.926-5.467,8.294c0,7.779,1.758,8.615,5.654,8.615c2.266,0,4.257-0.558,4.257-0.558V31.968z"/>
		<path d="M305.992,41.693c0,0.515-0.261,1.069-0.955,1.069h-15.52c0,2.128,0.602,3.286,1.847,4.257
			c1.209,0.975,2.972,1.387,5.467,1.387c2.87,0,5.054-0.695,6.489-1.109c0.093-0.045,0.144-0.045,0.228-0.045
			c0.281,0,0.514,0.184,0.65,0.647l0.602,2.361c0,0.046,0.05,0.139,0.05,0.229c0,0.37-0.231,0.558-0.557,0.696
			c-1.576,0.649-4.723,1.483-8.388,1.483c-9.069,0-12.644-3.567-12.644-12.64c0-8.709,2.416-12.881,11.441-12.881
			c4.684,0,7.554,1.203,9.223,3.428c1.57,2.084,2.066,5.05,2.066,8.896V41.693L305.992,41.693z M299.478,34.794
			c-0.605-2.549-1.996-3.379-4.726-3.379c-3.106,0-4.403,0.923-4.912,3.238c-0.322,1.297-0.322,2.64-0.369,4.17l10.377-0.047
			C299.847,37.294,299.798,36.044,299.478,34.794z"/>
	</g>
	<path fill="#CF003D" d="M51.202,20.504c0.403,1.671,1.209,2.592,3.054,2.592H65.03c17.975,0,21.374,3.918,21.374,17.17
		c0,13.136-5.07,16.42-21.374,16.42h-6.915l2.478,11.351c0.346,1.67,1.152,2.594,2.996,2.594h1.268
		c20.511,0,38.027-3.4,38.027-30.364c0-26.503-14.577-31.112-40.619-31.112H48.84L51.202,20.504z M39.967,9.154
		c1.844,0,2.651,0.922,2.996,2.592l4.264,20.8H33.252c-1.845,0-2.65-0.921-3.054-2.593L25.992,9.154H39.967z"/>
</g>
</svg>
