<?xml version="1.0" encoding="utf-8"?>
<!-- Generator: Adobe Illustrator 14.0.0, SVG Export Plug-In . SVG Version: 6.00 Build 43363)  -->
<!DOCTYPE svg PUBLIC "-//W3C//DTD SVG 1.1//EN" "http://www.w3.org/Graphics/SVG/1.1/DTD/svg11.dtd">
<svg version="1.1" id="Ebene_1" xmlns="http://www.w3.org/2000/svg" xmlns:xlink="http://www.w3.org/1999/xlink" x="0px" y="0px"
	 width="300px" height="150px" viewBox="-58 -37 300 150" enable-background="new -58 -37 300 150" xml:space="preserve">
<g>
	<g>
		<path fill="#A3D9EC" d="M50.075,35.324l0.174-0.274c0.949-1.46,1.503-3.206,1.503-5.081c0-3.286-1.684-6.171-4.234-7.857
			l-0.372-0.245l0.1-0.435c0.159-0.683,0.25-1.385,0.25-2.11c0-3.376-1.782-6.325-4.453-7.993l-0.286-0.176l-0.016-0.334
			c-0.062-1.271-0.397-2.462-0.919-3.548c-0.687,1.473-1.407,2.422-2.113,3.005c0.171-0.474,0.906-2.68,1.026-3.027
			c0.273-0.788,0.72-2.562,0.799-2.81c0.552-1.715,1.08-3.947,1.524-6.895c0.019-0.579,0.027-1.183,0.027-1.802
			c0-4.743-0.476-10.35-0.708-12.825c-0.879,0.842-2.291,2.255-3.857,4.069c-1.857,2.146-3.911,4.851-5.534,7.773
			c-0.107,0.189-0.205,0.384-0.305,0.576c-0.101,0.192-0.207,0.382-0.303,0.576c-0.414,0.819-0.799,1.649-1.12,2.49
			c-0.872,2.286-1.144,3.12-1.542,5.005c-0.401,1.883-0.538,3.252-0.571,3.501c-0.35-0.562-0.598-1.379-0.595-2.514
			c0-1.479,0.395-3.523,1.513-6.451c0.36-0.938,0.79-1.86,1.252-2.767c-1.41-0.851-3.055-1.349-4.823-1.349
			c-0.643,0-1.264,0.064-1.871,0.184l-0.408,0.082l-0.241-0.338c-1.703-2.389-4.492-3.949-7.653-3.949
			c-1.143,0-2.242,0.216-3.266,0.593l-0.391,0.141l-0.287-0.297c-1.708-1.729-4.075-2.804-6.697-2.804
			c-1.942,0-3.744,0.587-5.243,1.591l-0.307,0.206l-0.33-0.158c-1.231-0.59-2.603-0.927-4.059-0.93
			c-2.714,0.003-5.145,1.154-6.864,2.989l-0.263,0.28l-0.371-0.101c-0.787-0.208-1.6-0.33-2.439-0.33
			c-3.662,0-6.825,2.099-8.382,5.153l-0.232,0.455l-0.491-0.124c-0.726-0.177-1.477-0.277-2.246-0.277
			c-0.927,0.001-1.816,0.152-2.662,0.405c0.384,0.539,0.758,1.075,1.106,1.594c2.827,5.58,3.726,9.069,3.733,11.354
			c0.003,0.684-0.103,1.237-0.25,1.728c-0.116-0.432-0.25-0.922-0.397-1.449c-0.223-0.808-0.883-3.127-1.438-4.511
			c-0.547-1.757-1.055-3.396-2.754-6.476c-0.687-1.006-0.805-1.18-1.241-1.787c-0.161-0.219-0.324-0.442-0.488-0.664
			c-0.293-0.396-0.589-0.793-0.891-1.189c-0.058-0.077-0.115-0.154-0.174-0.229c-0.29-0.382-0.583-0.761-0.877-1.138
			c-0.046-0.061-0.094-0.122-0.141-0.183c-0.307-0.387-0.608-0.771-0.91-1.146c-0.036-0.049-0.073-0.095-0.11-0.142
			c-0.308-0.384-0.611-0.757-0.909-1.123c-0.03-0.034-0.059-0.07-0.087-0.106c-0.307-0.376-0.605-0.739-0.896-1.085
			c-0.013-0.018-0.031-0.041-0.046-0.057c-0.298-0.362-0.583-0.699-0.853-1.018c-0.003-0.008-0.009-0.014-0.013-0.019
			c-0.265-0.314-0.512-0.603-0.739-0.869c-0.007-0.011-0.018-0.021-0.027-0.032c-0.235-0.274-0.446-0.521-0.63-0.736
			c-0.378,1.977-1.038,6.074-1.037,10.62c0,0.66,0.016,1.328,0.046,2.001c0.095,2.001,0.342,4.033,0.803,5.961
			c0.039,0.155,0.062,0.316,0.103,0.472c0.071,0.276,0.145,0.532,0.217,0.786c0.656,2.308,2.072,5.009,2.142,5.179
			c0.226,0.548,1.304,2.1,1.583,2.377c-1.386-0.155-3.309-1.503-4.89-6.946c-2.693,1.652-4.492,4.613-4.492,8.006
			c0.001,1.043,0.177,2.044,0.492,2.982l0.156,0.468l-0.414,0.27c-2.562,1.688-4.258,4.577-4.258,7.874
			c0,1.396,0.315,2.717,0.864,3.914l0.115,0.247l-0.1,0.254c-0.409,1.055-0.641,2.193-0.641,3.391c0,2.193,0.752,4.197,2.011,5.801
			l0.228,0.29l-0.138,0.347c-0.435,1.08-0.68,2.26-0.68,3.501c0,2.794,1.231,5.306,3.177,7.026l0.256,0.22l-0.044,0.341
			c-0.048,0.39-0.076,0.771-0.076,1.158c0,4.094,2.618,7.57,6.275,8.864l0.375,0.133l0.046,0.397c0.089,0.743,0.262,1.46,0.512,2.14
			c0.233,0.631,0.539,1.23,0.896,1.789c0.794,1.247,1.866,2.297,3.136,3.052c-4.946-10.003-6.709-19.125-6.709-19.125l74.018,11.156
			c0,0-0.5,3.54-2.123,8.32c0.942-1.112,1.633-2.448,1.98-3.915c0.117-0.49,0.195-0.99,0.23-1.508l0.028-0.418l0.396-0.142
			c3.449-1.238,5.962-4.432,6.204-8.248l0.023-0.339l0.292-0.17c2.796-1.642,4.684-4.664,4.684-8.132
			c0-0.659-0.07-1.301-0.198-1.919l-0.065-0.321l0.212-0.238c1.5-1.675,2.414-3.863,2.414-6.276c0-1.173-0.22-2.291-0.616-3.331
			L50.075,35.324"/>
		<path fill="#FFFFFF" d="M51.497,35.472c0.973-1.6,1.538-3.492,1.538-5.505c0-3.572-1.755-6.737-4.445-8.677
			c0.12-0.635,0.188-1.293,0.188-1.971c0-3.716-1.906-6.984-4.78-8.901c-0.137-1.716-0.689-3.309-1.541-4.695
			c0.705-1.95,1.354-4.564,1.875-8.069c0.025-0.667,0.031-1.284,0.031-1.914c0-6.393-0.837-14.235-0.839-14.246l-0.132-1.232
			l-0.928,0.819c-0.023,0.032-6.49,5.708-10.548,12.961c-1.59-0.945-3.437-1.5-5.425-1.501c-0.583,0-1.157,0.047-1.718,0.137
			c-1.952-2.525-5.014-4.158-8.455-4.158c-1.16,0-2.279,0.195-3.324,0.538c-1.911-1.797-4.489-2.904-7.317-2.904
			c-2.075,0-4.014,0.59-5.655,1.614c-1.307-0.576-2.754-0.905-4.283-0.905c-2.945,0-5.607,1.199-7.538,3.119
			c-0.768-0.178-1.569-0.283-2.399-0.283c-3.983,0.003-7.453,2.187-9.29,5.416c-0.667-0.133-1.355-0.208-2.062-0.206
			c-1.212,0-2.372,0.213-3.457,0.586c-3.635-4.93-8.121-9.992-8.128-10.004l-0.821-0.924l-0.283,1.206
			c-0.006,0.027-1.327,5.623-1.328,12.164c0.001,2.796,0.25,5.765,0.949,8.558c-3.239,1.833-5.433,5.288-5.433,9.279
			c0,1.015,0.146,1.997,0.412,2.925c-2.683,1.942-4.435,5.097-4.438,8.669c0,1.491,0.317,2.912,0.872,4.2
			c-0.403,1.125-0.632,2.335-0.631,3.604c-0.001,2.355,0.771,4.535,2.059,6.3c-0.408,1.133-0.643,2.354-0.64,3.639
			c-0.003,3.056,1.297,5.818,3.363,7.761c-0.031,0.323-0.049,0.648-0.049,0.984c0,4.516,2.799,8.365,6.755,9.934
			c0.594,3.836,3.22,6.992,6.742,8.34c5.812,10.94,15.477,22.311,30.842,23.59C20.446,97.32,29.54,83.562,33.639,73.202
			c2.414-1.729,4.08-4.432,4.417-7.54c3.623-1.461,6.255-4.848,6.638-8.893c3.015-1.891,5.029-5.236,5.029-9.059
			c0-0.637-0.058-1.259-0.164-1.861c1.57-1.863,2.528-4.266,2.528-6.891C52.088,37.736,51.873,36.563,51.497,35.472 M48.39,45.232
			l-0.212,0.238l0.065,0.318c0.128,0.618,0.198,1.26,0.198,1.918c0,3.469-1.887,6.491-4.684,8.133l-0.292,0.168l-0.023,0.341
			c-0.241,3.816-2.755,7.01-6.204,8.248l-0.396,0.142l-0.028,0.418c-0.036,0.518-0.113,1.018-0.23,1.508
			c-0.347,1.47-1.038,2.803-1.98,3.916c0-0.001,0-0.001,0-0.001c1.623-4.78,2.123-8.32,2.123-8.32l-74.018-11.156
			c0,0,1.763,9.122,6.709,19.125c0,0,0,0,0.002,0.003c-1.272-0.758-2.344-1.809-3.138-3.055c-0.357-0.559-0.662-1.158-0.896-1.789
			c-0.25-0.68-0.422-1.396-0.512-2.14l-0.046-0.397l-0.375-0.133c-3.657-1.294-6.275-4.773-6.275-8.864
			c0-0.387,0.028-0.769,0.076-1.158l0.044-0.341l-0.256-0.219c-1.945-1.721-3.177-4.23-3.177-7.027c0-1.238,0.245-2.418,0.68-3.501
			l0.138-0.345l-0.228-0.292c-1.258-1.603-2.011-3.607-2.011-5.8c0-1.197,0.232-2.335,0.641-3.391l0.1-0.252l-0.115-0.247
			c-0.549-1.197-0.864-2.519-0.864-3.914c0-3.297,1.695-6.186,4.258-7.874l0.414-0.27l-0.156-0.468
			c-0.315-0.938-0.491-1.938-0.492-2.982c0-3.393,1.798-6.354,4.492-8.006c1.581,5.443,3.504,6.791,4.89,6.946
			c-0.278-0.277-1.356-1.829-1.583-2.377c-0.07-0.17-1.486-2.871-2.142-5.179c-0.073-0.253-0.146-0.509-0.217-0.786
			c-0.04-0.156-0.064-0.317-0.103-0.472c-0.461-1.928-0.711-3.957-0.803-5.961c-0.03-0.673-0.046-1.341-0.046-2.001
			c-0.001-4.546,0.659-8.643,1.037-10.621c0.184,0.215,0.396,0.461,0.63,0.736c0.009,0.011,0.02,0.022,0.027,0.032
			c0.228,0.268,0.475,0.557,0.739,0.871c0.004,0.004,0.01,0.01,0.013,0.017c0.27,0.318,0.555,0.657,0.853,1.018
			c0.015,0.018,0.033,0.039,0.046,0.057c0.29,0.347,0.589,0.708,0.896,1.085c0.028,0.037,0.058,0.073,0.087,0.108
			c0.298,0.366,0.601,0.738,0.909,1.123c0.038,0.045,0.075,0.092,0.11,0.14c0.302,0.376,0.604,0.76,0.91,1.146
			c0.047,0.061,0.095,0.122,0.141,0.183c0.294,0.376,0.587,0.755,0.877,1.138c0.06,0.074,0.116,0.152,0.174,0.229
			c0.302,0.396,0.598,0.793,0.891,1.189c0.164,0.222,0.327,0.445,0.488,0.664c0.436,0.607,0.554,0.781,1.241,1.787
			c1.7,3.08,2.207,4.719,2.754,6.476c0.555,1.384,1.215,3.703,1.438,4.511c0.147,0.526,0.281,1.017,0.397,1.449
			c0.147-0.491,0.252-1.043,0.25-1.728c-0.007-2.285-0.906-5.774-3.733-11.354c-0.348-0.519-0.723-1.055-1.106-1.594
			c0.846-0.253,1.735-0.404,2.662-0.405c0.769,0,1.52,0.1,2.246,0.277l0.491,0.124l0.232-0.455c1.557-3.055,4.721-5.153,8.382-5.153
			c0.839,0,1.652,0.122,2.439,0.33l0.371,0.101l0.263-0.28c1.719-1.835,4.149-2.986,6.864-2.989c1.456,0.003,2.827,0.34,4.059,0.93
			l0.33,0.158l0.307-0.205c1.499-1.004,3.3-1.591,5.243-1.591c2.622,0,4.99,1.076,6.697,2.804l0.287,0.297l0.391-0.143
			c1.024-0.376,2.124-0.593,3.266-0.593c3.162,0,5.95,1.56,7.653,3.949l0.241,0.338l0.408-0.083c0.607-0.12,1.229-0.184,1.871-0.184
			c1.768,0,3.413,0.498,4.823,1.349c-0.462,0.907-0.893,1.83-1.252,2.767c-1.118,2.928-1.513,4.971-1.513,6.451
			c-0.003,1.135,0.246,1.952,0.595,2.514c0.033-0.249,0.169-1.618,0.571-3.501c0.399-1.885,0.671-2.719,1.542-5.005
			c0.321-0.841,0.707-1.671,1.12-2.49c0.097-0.193,0.202-0.384,0.303-0.576c0.1-0.192,0.198-0.387,0.305-0.576
			c1.623-2.922,3.677-5.627,5.534-7.773c1.566-1.813,2.978-3.227,3.857-4.069c0.232,2.475,0.708,8.082,0.708,12.825
			c0,0.619-0.008,1.223-0.027,1.802c-0.445,2.947-0.973,5.18-1.524,6.894c-0.079,0.249-0.525,2.023-0.799,2.811
			c-0.121,0.347-0.855,2.554-1.026,3.027c0.707-0.583,1.426-1.532,2.113-3.005c0.522,1.086,0.857,2.277,0.919,3.548l0.016,0.334
			l0.286,0.176c2.671,1.668,4.453,4.617,4.453,7.993c0,0.725-0.091,1.427-0.25,2.11l-0.1,0.435l0.372,0.246
			c2.551,1.686,4.234,4.572,4.234,7.857c0,1.875-0.555,3.62-1.503,5.081l-0.174,0.274l0.113,0.303
			c0.396,1.039,0.616,2.158,0.616,3.331C50.804,41.369,49.889,43.558,48.39,45.232z"/>
	</g>
	<path d="M-24.111,63.273c0,0,5.592,27.41,26.566,29.064c20.971,1.65,24.469-21.799,24.469-21.799L-24.111,63.273"/>
	<path fill="#FFFFFF" d="M21.067,15.54C18.457,7.407,12.342,2.098,7.411,3.682c-2.487,0.798-4.194,3.195-4.945,6.416
		c-1.327-2.514-3.257-4.191-5.57-4.491c-5.134-0.668-9.179,5.655-10.28,14.123c-1.102,8.469,1.154,13.847,6.29,14.514
		c4.88,0.638,9.682-3.217,11.095-10.865c2.912,6.913,8.375,11.193,12.863,9.746C21.796,31.543,23.676,23.671,21.067,15.54"/>
	<path d="M6.644,7.209c-1.901,0-3.529,1.165-4.215,2.82C1.315,8.692-0.345,7.826-2.22,7.826c-3.361,0-6.084,2.722-6.084,6.083
		c0,3.363,2.723,6.079,6.084,6.079c2.903,0,5.321-2.032,5.928-4.75c0.795,0.675,1.812,1.097,2.936,1.097
		c2.519,0,4.564-2.042,4.564-4.564C11.208,9.253,9.163,7.209,6.644,7.209"/>
	<path fill="#3E3D40" d="M94.627,35.089L81.97,21.018c-0.736-0.245-1.468-0.553-2.142-0.921v14.992h-4.896V-3.459h8.323
		c7.707,0,14.307,3.364,14.307,11.869c0,6.062-3.302,11.383-9.535,12.609l11.368,12.604v1.467H94.627 M83.255,0.458h-3.427v15.604
		c1.466,0.672,2.875,1.284,4.527,1.284c5.265,0,8.317-3.916,8.317-8.995C92.673,2.785,88.333,0.458,83.255,0.458z"/>
	<polyline fill="#3E3D40" points="129.587,20.648 118.758,20.648 118.758,35.089 113.923,35.089 113.923,3.641 118.758,3.641 
		118.758,16.673 129.587,16.673 129.587,3.641 134.425,3.641 134.425,35.089 129.587,35.089 129.587,20.648 	"/>
	<polyline fill="#3E3D40" points="152.866,3.641 170.121,3.641 170.121,7.553 157.698,7.553 157.698,16.673 167.242,16.673 
		167.242,20.712 157.698,20.712 157.698,31.053 170.666,31.053 170.666,35.089 152.866,35.089 152.866,3.641 	"/>
	<rect x="187.09" y="3.641" fill="#3E3D40" width="5.02" height="31.45"/>
	<path fill="#3E3D40" d="M215.5,11.594c0.062,1.593,0.126,1.957,0.126,2.264V35.09h-4.835V3.579h5.995l10.036,21.844
		c-0.061-1.591-0.061-1.958-0.061-2.204V3.579h4.832V35.09h-4.771L215.5,11.594"/>
	<path fill="#3E3D40" d="M75.026,74.047l2.144-3.367c0.428,0.31,1.224,0.857,2.265,1.47c1.161,0.616,2.506,1.226,3.792,1.226
		c2.876,0,5.14-1.896,5.14-4.957c0-1.711-1.348-3.486-3.185-4.65l-5.812-3.489c-2.57-1.592-4.834-4.282-4.834-8.079
		c0-5.387,3.732-8.387,9.302-8.387c4.711,0,7.405,3.184,8.012,4.044l-2.872,2.32c-0.552-0.61-2.448-2.567-5.14-2.567
		c-2.572,0-4.588,1.407-4.588,4.033c0,2.331,1.529,4.043,3.427,5.144l5.262,3.242c3.305,1.963,5.075,4.716,5.075,8.45
		c0,5.322-4.404,8.748-9.849,8.748C79.492,77.23,75.884,74.661,75.026,74.047"/>
	<path fill="#3E3D40" d="M100.107,60.524c0-4.408,1.163-8.566,3.245-11.507c2.203-3.245,5.564-5.205,9.605-5.205
		c3.979,0,7.037,1.286,8.689,2.327l-1.77,3.183c-2.39-1.225-4.348-1.771-6.92-1.771c-2.201,0-4.894,1.83-6.299,4.713
		c-1.104,2.199-1.723,5.321-1.723,8.441c0,2.877,0.369,5.875,1.476,8.017c1.408,2.815,3.484,4.652,6.608,4.652
		c3.303,0,6.183-1.775,6.975-2.323l2.144,3.12c-0.921,0.671-4.346,3.059-9.303,3.059C103.352,77.23,100.107,68.236,100.107,60.524"
		/>
	<polyline fill="#3E3D40" points="145.758,61.807 134.927,61.807 134.927,76.248 130.095,76.248 130.095,44.792 134.927,44.792 
		134.927,57.828 145.758,57.828 145.758,44.792 150.596,44.792 150.596,76.248 145.758,76.248 145.758,61.807 	"/>
	<path fill="#3E3D40" d="M174.708,66.339h-8.998l-3.24,9.909h-5.082l10.342-31.456h4.956l10.402,31.456h-5.076L174.708,66.339
		 M166.634,62.423h7.152l-3.544-11.818L166.634,62.423z"/>
	<polyline fill="#3E3D40" points="194.842,57.828 203.591,57.828 203.591,61.869 194.842,61.869 194.842,76.248 190.009,76.248 
		190.009,44.792 205.919,44.792 205.919,48.713 194.842,48.713 194.842,57.828 	"/>
	<polyline fill="#3E3D40" points="214.118,44.792 231.375,44.792 231.375,48.713 218.953,48.713 218.953,57.828 228.499,57.828 
		228.499,61.869 218.953,61.869 218.953,72.212 231.926,72.212 231.926,76.248 214.118,76.248 214.118,44.792 	"/>
</g>
</svg>
