<?xml version="1.0" encoding="utf-8"?>
<!-- Generator: Adobe Illustrator 14.0.0, SVG Export Plug-In . SVG Version: 6.00 Build 43363)  -->
<!DOCTYPE svg PUBLIC "-//W3C//DTD SVG 1.1//EN" "http://www.w3.org/Graphics/SVG/1.1/DTD/svg11.dtd">
<svg version="1.1" id="Ebene_1" xmlns="http://www.w3.org/2000/svg" xmlns:xlink="http://www.w3.org/1999/xlink" x="0px" y="0px"
	 width="300px" height="150px" viewBox="111.5 37.5 300 150" enable-background="new 111.5 37.5 300 150" xml:space="preserve">
<g>
	<rect x="111.5" y="47.851" fill="#F5A200" width="300" height="129.299"/>
	<path fill="#FFFFFF" d="M156.967,104.416h-8.197c-0.746,0-1.349-0.595-1.37-1.336c-0.001-0.013-0.005-0.026-0.005-0.039v-8.168
		c0-0.76-0.615-1.375-1.375-1.375h-6.408c-0.759,0-1.375,0.615-1.375,1.375v8.166c0,0.76-0.616,1.376-1.376,1.376h-8.182
		c-0.031,0-0.059,0.007-0.089,0.009h0.099c-0.75,0.011-1.357,0.62-1.359,1.371v6.414c0-0.001,0-0.002,0-0.003v-6.408
		c0-0.001,0-0.002,0-0.003v-0.109c-0.002,0.033-0.009,0.065-0.009,0.099v6.414c0.002,0.759,0.616,1.372,1.375,1.372h8.164
		c0.76,0,1.374,0.615,1.374,1.375l0.003,8.166c0,0.76,0.616,1.376,1.375,1.376h6.408c0.76,0,1.375-0.616,1.375-1.376l-0.004-8.167
		c0-0.759,0.616-1.375,1.375-1.375h8.179c0.741-0.005,1.339-0.597,1.36-1.335v-6.487
		C158.285,105.018,157.698,104.432,156.967,104.416"/>
	<path fill="#FFFFFF" d="M389.191,95.382v4.43h4.819c0.777,0.03,1.405,0.778,1.405,1.586c0,0,0,0,0,0.029
		c0,0.778-0.568,1.467-1.316,1.587h-4.908v10.293c0.031,2.246,0.09,3.592,0.18,4.101c0.06,0.509,0.299,1.018,0.719,1.497
		c0.448,0.599,1.167,0.987,2.094,1.257c0.569,0.149,1.287,0.239,2.186,0.3c0.599,0.209,1.047,0.838,1.047,1.526v0.179
		c0,0.808-0.598,1.526-1.347,1.616c-1.676-0.09-3.022-0.3-4.1-0.599c-1.436-0.418-2.515-1.107-3.202-2.034
		c-0.509-0.719-0.868-1.526-1.048-2.425c-0.179-0.927-0.27-2.304-0.27-4.189v-11.521h-4.519c-0.748-0.12-1.285-0.809-1.285-1.587
		c0-0.029,0-0.029,0-0.029c0-0.809,0.598-1.557,1.376-1.586h4.429v-4.31c-0.029-0.838,0.719-1.556,1.616-1.556h0.509
		C388.414,93.946,389.161,94.575,389.191,95.382"/>
	<path fill="#FFFFFF" d="M322.128,123.781v-3.292c0.51,0.03,1.077,0.03,1.646,0.03c2.693,0,4.668-0.149,5.926-0.39
		c1.227-0.239,2.155-0.688,2.782-1.376c0.24-0.239,0.42-0.599,0.54-1.077c0.03-0.03,0.06-0.06,0.06-0.09
		c0.27-0.719,0.958-1.347,1.825-1.347h0.6c0.868,0,1.646,0.688,1.585,1.526v0.208c-0.389,1.916-1.316,3.293-2.813,4.161
		c-1.914,1.106-5.296,1.676-10.084,1.676C323.474,123.812,322.787,123.812,322.128,123.781"/>
	<path fill="#FFFFFF" d="M322.128,112.5v-3.231l10.205,0.03c0.448,0,0.808-0.359,0.808-0.809v-0.06h0.03
		c0-2.304-0.629-3.053-1.826-3.98c-0.808-0.598-1.915-1.047-3.382-1.287c-1.346-0.209-3.291-0.329-5.835-0.359v-3.292
		c3.89,0,6.704,0.209,8.469,0.658c1.796,0.419,3.263,1.257,4.34,2.484c0.897,1.048,1.526,2.245,1.855,3.592
		c0.27,1.137,0.449,2.783,0.508,4.908c-0.089,0.659-0.658,1.197-1.347,1.317l-7.002,0.029H322.128"/>
	<path fill="#FFFFFF" d="M352.352,117.259c0.061,0.599,0.179,1.076,0.359,1.406c0.27,0.539,0.808,0.958,1.615,1.286
		c1.107,0.359,4.22,0.568,9.367,0.568c3.203,0,5.447-0.089,6.704-0.209c1.257-0.149,2.155-0.42,2.693-0.838
		c0.748-0.568,1.138-1.437,1.138-2.634c0-1.437-0.449-2.394-1.348-2.933c-0.897-0.509-2.543-0.777-4.938-0.748
		c-0.748,0-4.339-0.031-10.804-0.15c-1.676-0.03-3.021-0.15-4.039-0.389c-1.018-0.24-1.825-0.599-2.515-1.137
		c-1.257-0.987-1.885-2.634-1.885-4.968c0-2.454,0.778-4.25,2.364-5.357c0.838-0.598,2.215-1.017,4.1-1.287
		c1.885-0.24,4.638-0.359,8.2-0.359c3.98,0,6.912,0.209,8.798,0.628c1.886,0.449,3.293,1.197,4.16,2.304
		c0.419,0.538,0.718,1.107,0.838,1.706c0.09,0.358,0.119,0.927,0.149,1.646c-0.12,0.749-0.837,1.287-1.645,1.287h-0.779
		c-0.688,0-1.286-0.389-1.556-0.958c-0.09-0.897-0.299-1.496-0.658-1.854c-0.509-0.509-1.497-0.898-2.992-1.108
		c-1.497-0.239-3.621-0.359-6.435-0.359c-5.146,0-8.259,0.359-9.336,1.078c-0.809,0.509-1.227,1.437-1.227,2.693
		c0,1.287,0.479,2.155,1.406,2.574c0.928,0.418,2.812,0.598,5.655,0.539c2.783-0.029,6.404,0.03,10.863,0.209
		c2.693,0.09,4.638,0.688,5.835,1.766c1.196,1.078,1.795,2.814,1.795,5.147c0,1.437-0.209,2.574-0.627,3.441
		c-0.42,0.897-1.108,1.616-2.036,2.185c-0.808,0.509-2.154,0.868-3.979,1.047c-1.855,0.24-4.549,0.33-8.051,0.33
		c-3.891,0-6.792-0.12-8.679-0.359c-1.915-0.21-3.292-0.629-4.189-1.258c-0.868-0.598-1.525-1.316-1.885-2.154
		c-0.209-0.51-0.359-1.138-0.448-1.886v-0.389c-0.061-0.868,0.747-1.587,1.676-1.587h0.747
		C351.456,116.182,352.113,116.631,352.352,117.259"/>
	<path fill="#FFFFFF" d="M342.328,99.842h1.167c0.688,0,1.257,0.569,1.257,1.287v21.068c0,0.719-0.567,1.286-1.257,1.286h-1.167
		c-0.688,0-1.286-0.567-1.286-1.286v-21.068C341.041,100.41,341.639,99.842,342.328,99.842"/>
	<path fill="#FFFFFF" d="M342.328,89.368h1.167c0.688,0,1.257,0.599,1.257,1.287v2.035c0,0.718-0.567,1.287-1.257,1.287h-1.167
		c-0.688,0-1.286-0.569-1.286-1.287v-2.035C341.041,89.966,341.639,89.368,342.328,89.368"/>
	<path fill="#FFFFFF" d="M322.128,99.512v3.292c-0.18,0-0.329,0-0.479,0c-2.454,0-4.279,0.12-5.566,0.359
		c-1.287,0.209-2.274,0.599-2.993,1.167c-1.167,0.927-1.855,1.706-2.035,4.1h0.03c0,0.449,0.39,0.808,0.838,0.808l10.205,0.031
		v3.231h-8.858v0.031h-1.466c-0.479,0-0.839,0.388-0.839,0.837l0.061,0.359c-0.03,0.03-0.03,0.06-0.03,0.09
		c0.209,2.244,0.778,3.83,1.676,4.758c0.719,0.748,1.855,1.258,3.441,1.526c1.316,0.239,3.322,0.359,6.015,0.389v3.292
		c-2.962-0.03-5.297-0.179-6.973-0.419c-2.065-0.329-3.592-0.838-4.638-1.586c-2.424-1.676-3.622-5.027-3.622-10.056
		c0-3.5,0.51-6.165,1.526-7.9c0.958-1.705,2.364-2.843,4.19-3.411c1.825-0.599,4.877-0.898,9.127-0.898
		C321.858,99.512,321.978,99.512,322.128,99.512"/>
	<path fill="#FFFFFF" d="M287.863,132.341v-3.292c2.993-0.03,5.207-0.179,6.644-0.448c1.616-0.3,2.754-0.869,3.413-1.707
		c0.508-0.658,0.837-1.437,1.047-2.364c0.179-0.896,0.299-2.543,0.388-4.967h-0.238c-1.047,1.286-2.275,2.124-3.682,2.513
		c-1.376,0.359-3.891,0.54-7.57,0.569v-3.322c4.668,0,7.66-0.389,8.947-1.196c0.927-0.599,1.586-1.467,1.975-2.604
		c0.39-1.138,0.6-2.753,0.6-4.818c0-1.975-0.21-3.501-0.689-4.548c-0.449-1.047-1.196-1.826-2.273-2.335
		c-1.376-0.688-4.07-1.017-8.109-1.017c-0.15,0-0.3,0-0.448,0v-3.292c0.148,0,0.298,0,0.448,0c2.573,0,4.458,0.06,5.625,0.209
		c1.138,0.15,2.125,0.449,2.934,0.898c0.957,0.539,1.766,1.317,2.334,2.244h0.21l-0.03-2.035c0.208-0.539,0.777-0.958,1.437-1.017
		h0.957c0.658,0.06,1.196,0.509,1.376,1.077v16.668c0,3.742-0.179,6.555-0.567,8.47c-0.358,1.795-1.316,3.262-2.843,4.398
		c-1.048,0.749-2.424,1.227-4.189,1.496C293.879,132.191,291.304,132.312,287.863,132.341"/>
	<path fill="#FFFFFF" d="M287.863,99.512v3.292c-4.369,0.03-7.271,0.419-8.738,1.167c-1.856,0.927-2.753,3.321-2.753,7.152
		c0,3.891,1.017,6.314,3.112,7.302c1.257,0.6,4.01,0.898,8.349,0.898c0,0,0,0,0.03,0v3.322c-0.12,0-0.209,0-0.329,0
		c-3.201,0-5.656-0.15-7.422-0.449c-1.766-0.27-3.082-0.749-4.01-1.437c-1.286-0.957-2.244-2.215-2.844-3.771
		c-0.598-1.557-0.897-3.562-0.897-5.986c0-5.267,1.616-8.647,4.85-10.204c1.017-0.479,2.363-0.809,3.979-0.987
		C282.746,99.603,284.961,99.512,287.863,99.512"/>
	<path fill="#FFFFFF" d="M287.863,129.049v3.292c-0.24,0-0.479,0-0.718,0c-3.951,0-6.884-0.27-8.799-0.748
		c-1.915-0.509-3.322-1.406-4.279-2.664c-0.449-0.598-0.719-1.167-0.868-1.765c-0.089-0.3-0.149-0.688-0.179-1.167
		c0.09-0.749,0.838-1.317,1.676-1.317h0.598c0.658,0,1.347,0.359,1.677,0.897c0.029,0.239,0.09,0.42,0.149,0.63v0.028
		c0.061,0.15,0.12,0.329,0.209,0.449c0.24,0.479,0.689,0.897,1.257,1.227c1.316,0.749,4.07,1.138,8.14,1.138
		C287.115,129.049,287.505,129.049,287.863,129.049"/>
	<path fill="#FFFFFF" d="M253.03,124.141v-5.806c2.005,0,2.783-0.09,3.801-0.24c0.987-0.149,1.676-0.418,2.035-0.777
		c0.09-0.09,0.149-0.15,0.209-0.27c0,0.03,0.03,0.03,0.03,0.06c0.359-0.477,0.929-0.897,1.556-0.987h6.793
		c0.809,0.09,1.497,0.748,1.437,1.557v0.269c-0.419,1.526-1.077,2.694-2.034,3.501c-1.167,1.019-2.813,1.707-4.939,2.096
		C259.913,123.932,256.95,124.111,253.03,124.141 M253.03,113.367v-4.878l6.434,0.03c0.45,0,0.809-0.389,0.809-0.837h0.059
		c0-0.419-0.029-0.659-0.059-0.778v-0.03c0-0.15-0.031-0.209-0.09-0.419c-0.089-0.359-0.269-0.658-0.539-0.958
		c-0.778-0.807-2.873-1.196-6.284-1.196c-0.12,0-0.209,0-0.329,0v-5.626c0.06,0,0.149,0,0.209,0c4.041,0,6.883,0.15,8.528,0.449
		c2.933,0.479,4.938,1.585,6.045,3.262c1.107,1.706,1.646,4.548,1.646,8.528c0,0.27,0,0.718-0.029,1.347
		c-0.18,0.629-0.839,1.078-1.526,1.078l-2.305,0.029H253.03z M204.67,89.397h6.165c0.838,0,1.526,0.688,1.526,1.526v3.831
		c0,0.838-0.688,1.526-1.526,1.526h-6.165c-0.838,0-1.526-0.688-1.526-1.526v-3.831C203.144,90.086,203.832,89.397,204.67,89.397z
		 M253.03,98.674v5.626c-2.843,0.03-4.758,0.299-5.716,0.809c-0.957,0.539-1.525,0.867-1.586,2.573h0.09
		c0.03,0.419,0.389,0.748,0.809,0.778l6.403,0.029v4.878h-7.271c0,1.229,0.059,2.125,0.239,2.665
		c0.15,0.509,0.479,0.957,0.928,1.316c0.898,0.658,2.933,0.986,6.105,0.986v5.807c-0.239,0-0.479,0-0.718,0
		c-3.501,0-6.194-0.18-8.079-0.509c-1.886-0.359-3.382-0.928-4.49-1.766c-1.136-0.897-1.945-2.064-2.394-3.532
		c-0.418-1.496-0.628-3.739-0.628-6.822c0-2.304,0.06-4.009,0.239-5.177c0.18-1.167,0.479-2.184,0.958-3.142
		c0.958-1.915,2.693-3.172,5.237-3.771C245.279,98.944,248.571,98.705,253.03,98.674z M204.67,99.244h6.165
		c0.838,0,1.526,0.688,1.526,1.526v21.218c0,0.838-0.688,1.525-1.526,1.525h-6.165c-0.838,0-1.526-0.688-1.526-1.525v-21.218
		C203.144,99.931,203.832,99.244,204.67,99.244z M229.897,117.349h2.574c0.838,0,1.526,0.688,1.526,1.556v3.621
		c0,0.838-0.688,1.676-1.526,1.556l-0.808,0.06c-0.09,0-0.18,0-0.239,0c-2.904,0-5.058-0.179-6.465-0.479
		c-1.406-0.329-2.543-0.897-3.441-1.766c-0.658-0.629-1.108-1.347-1.407-2.095c-0.27-0.748-0.449-1.765-0.509-3.082
		c-0.03-0.479-0.06-1.795-0.06-3.891v-7.033h-3.263c-0.808,0-1.466-0.658-1.466-1.466v-3.622c0-0.807,0.658-1.465,1.466-1.465h3.263
		c0-0.09-0.031-0.18-0.031-0.27v-3.831c0-0.838,0.688-1.526,1.526-1.526h6.166c0.837,0,1.526,0.688,1.526,1.526v3.831
		c0,0.12,0,0.209-0.03,0.329h2.963v0.03h0.897c0.808,0,1.437,0.629,1.437,1.437v3.561c0,0.808-0.628,1.466-1.437,1.466h-3.95v7.033
		c0,1.884,0.12,3.083,0.388,3.562C229.239,116.81,229.478,117.139,229.897,117.349z M176.75,116.959
		c0.21,0.448,0.509,0.778,1.137,0.988c1.047,0.388,2.993,0.567,5.836,0.567c2.932,0,4.907-0.149,5.984-0.479
		c1.048-0.299,1.587-0.897,1.587-1.765c0-0.839-0.51-1.377-1.526-1.676c-0.479-0.12-3.053-0.21-7.721-0.27
		c-4.369,0-7.033-0.09-8.05-0.24c-2.842-0.359-4.758-1.286-5.746-2.753c-0.778-1.107-1.136-2.604-1.136-4.459
		c0-3.561,1.316-5.896,3.95-6.973c1.975-0.808,6.225-1.228,12.748-1.228c4.13,0,7.123,0.15,8.978,0.479
		c1.855,0.299,3.322,0.897,4.339,1.766c0.659,0.508,1.108,1.167,1.376,1.915c0.18,0.479,0.299,1.077,0.419,1.825
		c0.031,0.718-0.479,1.317-1.166,1.497h-7.273c-0.479-0.12-0.867-0.419-1.047-0.808c0-0.09-0.03-0.149-0.09-0.239
		c-0.03-0.061-0.06-0.09-0.089-0.12c-0.749-0.45-2.664-0.688-5.716-0.688c-2.812,0-4.758,0.149-5.805,0.419
		c-1.048,0.299-1.587,0.808-1.587,1.556c0,0.987,0.718,1.525,2.186,1.615c1.137,0.09,5.236,0.15,12.329,0.21
		c3.412,0,5.866,0.598,7.362,1.706c1.526,1.137,2.304,3.083,2.304,5.836c0,1.825-0.299,3.321-0.897,4.458
		c-0.598,1.138-1.526,2.005-2.813,2.574c-2.125,0.958-6.644,1.467-13.556,1.467c-4.399,0-7.572-0.18-9.486-0.509
		c-1.916-0.359-3.412-1.018-4.519-2.035c-0.868-0.777-1.466-1.854-1.825-3.202l-0.03-0.598c-0.031-0.839,0.718-1.525,1.616-1.525
		h6.464C175.852,116.271,176.45,116.57,176.75,116.959z"/>
</g>
</svg>
