<?xml version="1.0" encoding="utf-8"?>
<!-- Generator: Adobe Illustrator 14.0.0, SVG Export Plug-In . SVG Version: 6.00 Build 43363)  -->
<!DOCTYPE svg PUBLIC "-//W3C//DTD SVG 1.1//EN" "http://www.w3.org/Graphics/SVG/1.1/DTD/svg11.dtd">
<svg version="1.1" id="Ebene_1" xmlns="http://www.w3.org/2000/svg" xmlns:xlink="http://www.w3.org/1999/xlink" x="0px" y="0px"
	 width="300px" height="150px" viewBox="0 0 300 150" enable-background="new 0 0 300 150" xml:space="preserve">
<g>
	<g>
		<g>
			<g>
				<defs>
					<rect id="SVGID_1_" x="10" y="45.312" width="280" height="59.375"/>
				</defs>
				<clipPath id="SVGID_2_">
					<use xlink:href="#SVGID_1_"  overflow="visible"/>
				</clipPath>
				<path clip-path="url(#SVGID_2_)" fill="#134094" d="M175.406,94.173c-0.719,0.084-1.52,0.151-2.064,0.151
					c-2.441,0-3.379-1.894-3.379-4.129v-1.143c0-2.27,0.938-4.076,3.379-4.076c0.545,0,1.348,0.068,2.064,0.153
					c0.254,0.033,0.32,0.12,0.32,0.308v0.119c0,0.17-0.117,0.238-0.271,0.238h-0.086c-0.803-0.104-1.467-0.154-2.027-0.154
					c-1.947,0-2.629,1.35-2.629,3.412v1.143c0,2.064,0.682,3.465,2.629,3.465c0.561,0,1.229-0.053,2.027-0.153h0.086
					c0.154,0,0.271,0.067,0.271,0.239v0.119C175.728,94.054,175.66,94.139,175.406,94.173"/>
			</g>
		</g>
		<g>
			<g>
				<defs>
					<rect id="SVGID_3_" x="10" y="45.312" width="280" height="59.375"/>
				</defs>
				<clipPath id="SVGID_4_">
					<use xlink:href="#SVGID_3_"  overflow="visible"/>
				</clipPath>
				<path clip-path="url(#SVGID_4_)" fill="#134094" d="M180.619,85.641c-0.648,0-1.363,0.152-2.369,0.785v7.471
					c0,0.174-0.158,0.326-0.326,0.326h-0.102c-0.174,0-0.324-0.152-0.324-0.326v-8.492c0-0.188,0.119-0.342,0.307-0.342h0.137
					c0.188,0,0.311,0.153,0.311,0.342v0.356c0.867-0.562,1.531-0.784,2.369-0.784c0.273,0,0.463,0.049,0.463,0.256v0.137
					C181.078,85.59,180.892,85.641,180.619,85.641"/>
			</g>
		</g>
		<g>
			<g>
				<defs>
					<rect id="SVGID_5_" x="10" y="45.312" width="280" height="59.375"/>
				</defs>
				<clipPath id="SVGID_6_">
					<use xlink:href="#SVGID_5_"  overflow="visible"/>
				</clipPath>
				<path clip-path="url(#SVGID_6_)" fill="#134094" d="M188.48,89.822h-5.77v0.357c0,2.865,1.383,3.48,3.09,3.48
					c0.748,0,1.689-0.119,2.523-0.291c0.033,0,0.068-0.016,0.102-0.016c0.139,0,0.258,0.067,0.258,0.237v0.12
					c0,0.188-0.068,0.271-0.324,0.322c-0.818,0.172-1.789,0.289-2.559,0.289c-2.115,0-3.84-0.922-3.84-4.145v-1.127
					c0-2.354,1.195-4.076,3.445-4.076c2.354,0,3.395,1.639,3.395,4.061v0.462C188.802,89.686,188.65,89.822,188.48,89.822
					 M188.054,89.035c0-2.148-0.719-3.395-2.646-3.395c-1.891,0-2.695,1.383-2.695,3.411v0.085h5.342V89.035L188.054,89.035z"/>
			</g>
		</g>
		<g>
			<g>
				<defs>
					<rect id="SVGID_7_" x="10" y="45.312" width="280" height="59.375"/>
				</defs>
				<clipPath id="SVGID_8_">
					<use xlink:href="#SVGID_7_"  overflow="visible"/>
				</clipPath>
				<path clip-path="url(#SVGID_8_)" fill="#134094" d="M196.244,94.223h-0.084c-0.188,0-0.342-0.152-0.342-0.341v-0.428
					c-0.834,0.462-1.842,0.87-2.9,0.87c-1.277,0-2.605-0.612-2.605-2.747v-0.22c0-1.76,1.104-2.629,4.213-2.629h1.312v-0.611
					c0-1.776-0.494-2.477-2.148-2.477c-1.127,0-1.623,0.068-2.424,0.152h-0.068c-0.154,0-0.322-0.066-0.322-0.254v-0.102
					c0-0.188,0.137-0.273,0.391-0.308c0.717-0.085,1.297-0.153,2.424-0.153c2.305,0,2.9,1.297,2.9,3.141v5.766
					C196.588,94.07,196.435,94.223,196.244,94.223 M195.836,89.395h-1.312c-2.576,0-3.465,0.512-3.465,1.963v0.221
					c0,1.588,0.838,2.082,1.859,2.082c0.957,0,1.773-0.258,2.918-0.87V89.395z"/>
			</g>
		</g>
		<g>
			<g>
				<defs>
					<rect id="SVGID_9_" x="10" y="45.312" width="280" height="59.375"/>
				</defs>
				<clipPath id="SVGID_10_">
					<use xlink:href="#SVGID_9_"  overflow="visible"/>
				</clipPath>
				<path clip-path="url(#SVGID_10_)" fill="#134094" d="M202.863,94.273c-0.258,0.037-0.602,0.051-0.891,0.051
					c-1.211,0-1.928-0.375-1.928-1.842v-6.72h-1.688c-0.188,0-0.322-0.106-0.322-0.274v-0.17c0-0.172,0.135-0.256,0.322-0.256h1.688
					v-1.759c0-0.17,0.105-0.323,0.289-0.323h0.191c0.168,0,0.27,0.153,0.27,0.323v1.759h2.029c0.188,0,0.324,0.084,0.324,0.256v0.17
					c0,0.168-0.137,0.274-0.324,0.274h-2.029v6.72c0,1.023,0.426,1.178,1.176,1.178h0.82c0.254,0,0.357,0.084,0.357,0.238v0.104
					C203.152,94.139,203.099,94.24,202.863,94.273"/>
			</g>
		</g>
		<g>
			<g>
				<defs>
					<rect id="SVGID_11_" x="10" y="45.312" width="280" height="59.375"/>
				</defs>
				<clipPath id="SVGID_12_">
					<use xlink:href="#SVGID_11_"  overflow="visible"/>
				</clipPath>
				<path clip-path="url(#SVGID_12_)" fill="#134094" d="M205.392,83.373h-0.104c-0.172,0-0.324-0.137-0.324-0.322v-1.264
					c0-0.172,0.154-0.325,0.324-0.325h0.104c0.172,0,0.322,0.153,0.322,0.325v1.264C205.717,83.236,205.564,83.373,205.392,83.373
					 M205.392,94.223h-0.104c-0.172,0-0.324-0.152-0.324-0.324v-8.514c0-0.169,0.154-0.322,0.324-0.322h0.104
					c0.172,0,0.322,0.153,0.322,0.322v8.514C205.717,94.07,205.564,94.223,205.392,94.223"/>
			</g>
		</g>
		<g>
			<g>
				<defs>
					<rect id="SVGID_13_" x="10" y="45.312" width="280" height="59.375"/>
				</defs>
				<clipPath id="SVGID_14_">
					<use xlink:href="#SVGID_13_"  overflow="visible"/>
				</clipPath>
				<path clip-path="url(#SVGID_14_)" fill="#134094" d="M214.193,94.223h-0.117c-0.174,0-0.309-0.152-0.309-0.324v-5.662
					c0-1.946-1.027-2.594-2.307-2.594c-0.869,0-1.842,0.291-2.693,0.699V93.9c0,0.172-0.154,0.324-0.324,0.324h-0.104
					c-0.172,0-0.322-0.152-0.322-0.324v-8.494c0-0.188,0.117-0.342,0.309-0.342h0.135c0.188,0,0.311,0.152,0.311,0.342v0.271
					c0.887-0.425,1.855-0.698,2.746-0.698c1.637,0,3,0.887,3,3.26V93.9C214.517,94.07,214.381,94.223,214.193,94.223"/>
			</g>
		</g>
		<g>
			<g>
				<defs>
					<rect id="SVGID_15_" x="10" y="45.312" width="280" height="59.375"/>
				</defs>
				<clipPath id="SVGID_16_">
					<use xlink:href="#SVGID_15_"  overflow="visible"/>
				</clipPath>
				<path clip-path="url(#SVGID_16_)" fill="#134094" d="M223.492,85.794h-0.887c0.342,0.272,0.938,0.872,0.938,2.117v0.136
					c0,1.621-0.852,2.78-3.531,2.78c-0.885,0-1.449-0.138-2.08-0.392c-0.357,0.153-0.58,0.392-0.58,0.731
					c0,0.223,0.104,0.428,0.494,0.528l3.07,0.805c1.826,0.477,2.732,0.921,2.732,2.302v0.152c0,1.536-0.922,2.646-3.617,2.646
					c-2.627,0-3.617-1.093-3.617-2.646v-0.152c0-1.194,0.717-2.116,1.279-2.455l-0.119-0.036c-0.631-0.188-0.902-0.633-0.902-1.145
					c0-0.41,0.223-0.868,0.717-1.092c-0.562-0.463-0.887-1.125-0.887-2.03v-0.136c0-1.312,0.598-2.85,3.512-2.85h3.482
					c0.17,0,0.322,0.102,0.322,0.273v0.188C223.816,85.71,223.662,85.794,223.492,85.794 M222.894,94.804
					c0-0.954-0.357-1.194-2.148-1.653l-2.354-0.614c-0.75,0.493-1.246,1.126-1.246,2.269v0.152c0,1.229,0.699,2.015,2.883,2.015
					c2.268,0,2.867-0.751,2.867-2.015v-0.153H222.894z M222.81,87.911c0-1.229-0.58-2.201-2.801-2.201
					c-2.354,0-2.764,1.108-2.764,2.201v0.136c0,0.854,0.428,2.132,2.764,2.132c2.254,0,2.801-0.954,2.801-2.132V87.911z"/>
			</g>
		</g>
		<g>
			<g>
				<defs>
					<rect id="SVGID_17_" x="10" y="45.312" width="280" height="59.375"/>
				</defs>
				<clipPath id="SVGID_18_">
					<use xlink:href="#SVGID_17_"  overflow="visible"/>
				</clipPath>
				<path clip-path="url(#SVGID_18_)" fill="#134094" d="M232.125,94.324c-0.768,0-1.857-0.117-2.473-0.237
					c-0.238-0.051-0.375-0.119-0.375-0.274v-0.186c0-0.172,0.117-0.24,0.273-0.24h0.102c0.818,0.137,1.809,0.273,2.508,0.273
					c1.229,0,2.166-0.322,2.166-1.705c0-0.7-0.373-1.075-1.807-1.859l-1.096-0.599c-1.279-0.696-2.062-1.261-2.062-2.421
					c0-1.588,1.264-2.1,2.609-2.1c1.229,0,1.859,0.086,2.439,0.153c0.24,0.033,0.359,0.138,0.359,0.29v0.137
					c0,0.204-0.139,0.271-0.311,0.271h-0.051c-0.441-0.051-1.432-0.188-2.369-0.188c-1.094,0-1.93,0.222-1.93,1.435
					c0,0.75,0.613,1.193,1.656,1.771l1.143,0.633c1.416,0.784,2.166,1.348,2.166,2.476
					C235.076,93.779,233.711,94.324,232.125,94.324"/>
			</g>
		</g>
		<g>
			<g>
				<defs>
					<rect id="SVGID_19_" x="10" y="45.312" width="280" height="59.375"/>
				</defs>
				<clipPath id="SVGID_20_">
					<use xlink:href="#SVGID_19_"  overflow="visible"/>
				</clipPath>
				<path clip-path="url(#SVGID_20_)" fill="#134094" d="M240.244,94.324c-2.338,0-3.514-1.5-3.514-4.075v-1.195
					c0-2.575,1.176-4.075,3.514-4.075s3.514,1.5,3.514,4.075v1.195C243.758,92.824,242.58,94.324,240.244,94.324 M243.006,89.054
					c0-2.097-0.766-3.409-2.764-3.409c-1.996,0-2.764,1.312-2.764,3.409v1.195c0,2.099,0.768,3.412,2.764,3.412
					c1.998,0,2.764-1.313,2.764-3.412V89.054L243.006,89.054z"/>
			</g>
		</g>
		<g>
			<g>
				<defs>
					<rect id="SVGID_21_" x="10" y="45.312" width="280" height="59.375"/>
				</defs>
				<clipPath id="SVGID_22_">
					<use xlink:href="#SVGID_21_"  overflow="visible"/>
				</clipPath>
				<path clip-path="url(#SVGID_22_)" fill="#134094" d="M246.297,94.223h-0.174c-0.17,0-0.289-0.152-0.289-0.324V81.871
					c0-0.169,0.119-0.324,0.289-0.324h0.174c0.168,0,0.289,0.155,0.289,0.324v12.027C246.586,94.07,246.465,94.223,246.297,94.223"
					/>
			</g>
		</g>
		<g>
			<g>
				<defs>
					<rect id="SVGID_23_" x="10" y="45.312" width="280" height="59.375"/>
				</defs>
				<clipPath id="SVGID_24_">
					<use xlink:href="#SVGID_23_"  overflow="visible"/>
				</clipPath>
				<path clip-path="url(#SVGID_24_)" fill="#134094" d="M255.066,94.223h-0.137c-0.188,0-0.309-0.152-0.309-0.341v-0.274
					c-0.885,0.429-1.861,0.701-2.746,0.701c-1.639,0-3.004-0.906-3.004-3.26v-5.664c0-0.169,0.137-0.322,0.326-0.322h0.115
					c0.174,0,0.311,0.153,0.311,0.322v5.664c0,1.928,1.006,2.594,2.271,2.594h0.031c0.869,0,1.844-0.306,2.695-0.699v-7.559
					c0-0.169,0.154-0.322,0.324-0.322h0.102c0.172,0,0.324,0.153,0.324,0.322v8.497C255.371,94.07,255.252,94.223,255.066,94.223"/>
			</g>
		</g>
		<g>
			<g>
				<defs>
					<rect id="SVGID_25_" x="10" y="45.312" width="280" height="59.375"/>
				</defs>
				<clipPath id="SVGID_26_">
					<use xlink:href="#SVGID_25_"  overflow="visible"/>
				</clipPath>
				<path clip-path="url(#SVGID_26_)" fill="#134094" d="M261.945,94.273c-0.254,0.037-0.6,0.051-0.887,0.051
					c-1.211,0-1.928-0.375-1.928-1.842v-6.72h-1.688c-0.189,0-0.326-0.106-0.326-0.274v-0.17c0-0.172,0.137-0.256,0.326-0.256h1.688
					v-1.759c0-0.17,0.102-0.323,0.289-0.323h0.189c0.172,0,0.271,0.153,0.271,0.323v1.759h2.029c0.186,0,0.322,0.084,0.322,0.256
					v0.17c0,0.168-0.139,0.274-0.322,0.274h-2.029v6.72c0,1.023,0.426,1.178,1.176,1.178h0.818c0.254,0,0.357,0.084,0.357,0.238
					v0.104C262.232,94.139,262.183,94.24,261.945,94.273"/>
			</g>
		</g>
		<g>
			<g>
				<defs>
					<rect id="SVGID_27_" x="10" y="45.312" width="280" height="59.375"/>
				</defs>
				<clipPath id="SVGID_28_">
					<use xlink:href="#SVGID_27_"  overflow="visible"/>
				</clipPath>
				<path clip-path="url(#SVGID_28_)" fill="#134094" d="M264.476,83.373h-0.104c-0.172,0-0.322-0.137-0.322-0.322v-1.264
					c0-0.172,0.152-0.325,0.322-0.325h0.104c0.172,0,0.322,0.153,0.322,0.325v1.264C264.799,83.236,264.646,83.373,264.476,83.373
					 M264.476,94.223h-0.104c-0.172,0-0.322-0.152-0.322-0.324v-8.514c0-0.169,0.152-0.322,0.322-0.322h0.104
					c0.172,0,0.322,0.153,0.322,0.322v8.514C264.799,94.07,264.646,94.223,264.476,94.223"/>
			</g>
		</g>
		<g>
			<g>
				<defs>
					<rect id="SVGID_29_" x="10" y="45.312" width="280" height="59.375"/>
				</defs>
				<clipPath id="SVGID_30_">
					<use xlink:href="#SVGID_29_"  overflow="visible"/>
				</clipPath>
				<path clip-path="url(#SVGID_30_)" fill="#134094" d="M270.363,94.324c-2.336,0-3.512-1.5-3.512-4.075v-1.195
					c0-2.575,1.176-4.075,3.512-4.075c2.34,0,3.516,1.5,3.516,4.075v1.195C273.879,92.824,272.703,94.324,270.363,94.324
					 M273.127,89.054c0-2.097-0.768-3.409-2.764-3.409s-2.766,1.312-2.766,3.409v1.195c0,2.099,0.77,3.412,2.766,3.412
					s2.764-1.313,2.764-3.412V89.054L273.127,89.054z"/>
			</g>
		</g>
		<g>
			<g>
				<defs>
					<rect id="SVGID_31_" x="10" y="45.312" width="280" height="59.375"/>
				</defs>
				<clipPath id="SVGID_32_">
					<use xlink:href="#SVGID_31_"  overflow="visible"/>
				</clipPath>
				<path clip-path="url(#SVGID_32_)" fill="#134094" d="M282.051,94.223h-0.119c-0.174,0-0.307-0.152-0.307-0.324v-5.662
					c0-1.946-1.023-2.594-2.305-2.594c-0.871,0-1.844,0.291-2.695,0.699V93.9c0,0.172-0.154,0.324-0.326,0.324h-0.102
					c-0.17,0-0.324-0.152-0.324-0.324v-8.494c0-0.188,0.121-0.342,0.312-0.342h0.135c0.188,0,0.307,0.152,0.307,0.342v0.271
					c0.889-0.425,1.859-0.698,2.748-0.698c1.637,0,3,0.887,3,3.26V93.9C282.373,94.07,282.238,94.223,282.051,94.223"/>
			</g>
		</g>
		<g>
			<g>
				<defs>
					<rect id="SVGID_33_" x="10" y="45.312" width="280" height="59.375"/>
				</defs>
				<clipPath id="SVGID_34_">
					<use xlink:href="#SVGID_33_"  overflow="visible"/>
				</clipPath>
				<path clip-path="url(#SVGID_34_)" fill="#134094" d="M287.051,94.324c-0.77,0-1.861-0.117-2.475-0.237
					c-0.24-0.051-0.377-0.119-0.377-0.274v-0.186c0-0.172,0.121-0.24,0.273-0.24h0.104c0.818,0.137,1.811,0.273,2.508,0.273
					c1.229,0,2.166-0.322,2.166-1.705c0-0.7-0.377-1.075-1.807-1.859l-1.096-0.599c-1.279-0.696-2.064-1.261-2.064-2.421
					c0-1.588,1.264-2.1,2.611-2.1c1.227,0,1.857,0.086,2.438,0.153c0.242,0.033,0.359,0.138,0.359,0.29v0.137
					c0,0.204-0.139,0.271-0.311,0.271h-0.051c-0.441-0.051-1.43-0.188-2.371-0.188c-1.092,0-1.926,0.222-1.926,1.435
					c0,0.75,0.611,1.193,1.656,1.771l1.141,0.633c1.418,0.784,2.166,1.348,2.166,2.476C290,93.779,288.633,94.324,287.051,94.324"/>
			</g>
		</g>
		<g>
			<g>
				<defs>
					<rect id="SVGID_35_" x="10" y="45.312" width="280" height="59.375"/>
				</defs>
				<clipPath id="SVGID_36_">
					<use xlink:href="#SVGID_35_"  overflow="visible"/>
				</clipPath>
				<path clip-path="url(#SVGID_36_)" fill="#134094" d="M202.511,71.302h-2.256c-0.193,0-0.389-0.155-0.389-0.391V57.112
					c0-1.828-1.359-3.421-3.074-3.421h-3.029c-1.67,0-3.07,1.593-3.07,3.421l0.037,13.799c0,0.236-0.193,0.391-0.391,0.391h-2.254
					c-0.232,0-0.387-0.155-0.387-0.391V57.112c0-1.323,0.346-2.488,0.971-3.421h-3.656c-0.232,0-0.387-0.195-0.387-0.389v-1.905
					c0-0.233,0.154-0.39,0.387-0.39h11.779c3.385,0,6.104,2.528,6.104,6.104V70.91C202.9,71.147,202.744,71.302,202.511,71.302"/>
			</g>
		</g>
		<g>
			<g>
				<defs>
					<rect id="SVGID_37_" x="10" y="45.312" width="280" height="59.375"/>
				</defs>
				<clipPath id="SVGID_38_">
					<use xlink:href="#SVGID_37_"  overflow="visible"/>
				</clipPath>
				<path clip-path="url(#SVGID_38_)" fill="#134094" d="M236.482,71.302h-3.029c-3.381,0-6.102-2.528-6.102-6.104V51.359
					c0-0.194,0.152-0.351,0.387-0.351h2.254c0.234,0,0.389,0.157,0.389,0.351v13.839c0,1.828,1.363,3.421,3.072,3.421h3.031
					c1.674,0,3.074-1.593,3.033-3.421V51.359c0-0.194,0.193-0.351,0.391-0.351h2.252c0.234,0,0.393,0.157,0.393,0.351v13.839
					C242.549,68.774,239.828,71.302,236.482,71.302"/>
			</g>
		</g>
		<g>
			<g>
				<defs>
					<rect id="SVGID_39_" x="10" y="45.312" width="280" height="59.375"/>
				</defs>
				<clipPath id="SVGID_40_">
					<use xlink:href="#SVGID_39_"  overflow="visible"/>
				</clipPath>
				<path clip-path="url(#SVGID_40_)" fill="#134094" d="M252.912,71.302c-2.256,0-3.887-0.04-5.832-0.818
					c-0.156-0.079-0.271-0.233-0.271-0.388v-1.671c0-0.193,0.156-0.428,0.389-0.389c2.525,0.7,3.852,0.583,5.715,0.583
					c1.67,0,3.035-1.166,3.035-2.994s-1.521-2.293-3.035-2.994c-3.42-1.595-6.104-2.332-6.104-5.869
					c0-3.576,2.721-5.755,6.104-5.755c2.217,0,3.771,0.041,5.713,0.819c0.16,0.077,0.273,0.193,0.273,0.387v1.673
					c0,0.193-0.193,0.428-0.43,0.388c-2.486-0.701-3.729-0.584-5.559-0.584c-1.709,0-3.072,1.166-3.072,2.994
					c0,1.828,1.52,2.333,3.072,2.994c3.303,1.477,6.062,2.332,6.062,5.869C258.972,69.124,256.254,71.302,252.912,71.302"/>
			</g>
		</g>
		<g>
			<g>
				<defs>
					<rect id="SVGID_41_" x="10" y="45.312" width="280" height="59.375"/>
				</defs>
				<clipPath id="SVGID_42_">
					<use xlink:href="#SVGID_41_"  overflow="visible"/>
				</clipPath>
				<path clip-path="url(#SVGID_42_)" fill="#134094" d="M271.445,71.183l-1.631,0.119c-3.383,0.271-6.105-2.528-6.105-6.064V46.304
					c0-0.194,0.193-0.349,0.391-0.349l2.254-0.391c0.234-0.035,0.389,0.158,0.389,0.351v5.092h4.707c0.23,0,0.389,0.157,0.389,0.351
					v1.905c0,0.232-0.156,0.389-0.389,0.389h-4.707v11.586c0,1.826,1.361,3.419,3.074,3.419h1.633c0.23,0,0.389,0.156,0.389,0.351
					v1.788C271.832,71.029,271.676,71.183,271.445,71.183"/>
			</g>
		</g>
		<g>
			<g>
				<defs>
					<rect id="SVGID_43_" x="10" y="45.312" width="280" height="59.375"/>
				</defs>
				<clipPath id="SVGID_44_">
					<use xlink:href="#SVGID_43_"  overflow="visible"/>
				</clipPath>
				<path clip-path="url(#SVGID_44_)" fill="#134094" d="M289.42,71.302h-8.746c-3.383,0-6.104-2.527-6.104-6.104
					c0-3.538,2.721-6.064,6.104-6.064h6.064v-2.061c0-1.826-1.361-3.421-3.033-3.421c-1.67,0-3.264-0.079-5.09,0.349
					c-0.197,0.04-0.354-0.155-0.354-0.388v-1.75c0-0.233,0.115-0.311,0.354-0.388c1.514-0.467,3.264-0.467,5.09-0.467
					c3.342,0,6.066,2.488,6.066,6.064v13.841C289.769,71.106,289.615,71.302,289.42,71.302 M286.738,61.815h-6.064
					c-1.711,0-3.072,1.595-3.072,3.381c0,1.828,1.361,3.421,3.072,3.421h6.064V61.815z"/>
			</g>
		</g>
		<g>
			<g>
				<defs>
					<rect id="SVGID_45_" x="10" y="45.312" width="280" height="59.375"/>
				</defs>
				<clipPath id="SVGID_46_">
					<use xlink:href="#SVGID_45_"  overflow="visible"/>
				</clipPath>
				<path clip-path="url(#SVGID_46_)" fill="#134094" d="M208.125,51.008h8.746c3.383,0,6.105,2.528,6.105,6.104
					c0,3.539-2.723,6.063-6.105,6.063h-6.061v2.062c0,1.824,1.357,3.421,3.027,3.421c1.674,0,3.268,0.076,5.092-0.351
					c0.197-0.04,0.354,0.156,0.354,0.387v1.751c0,0.231-0.115,0.309-0.354,0.387c-1.514,0.468-3.264,0.468-5.092,0.468
					c-3.344,0-6.062-2.488-6.062-6.064V51.397C207.777,51.202,207.929,51.008,208.125,51.008 M210.81,60.495h6.061
					c1.713,0,3.072-1.595,3.072-3.383c0-1.828-1.359-3.421-3.072-3.421h-6.061V60.495z"/>
			</g>
		</g>
		<g>
			<g>
				<defs>
					<rect id="SVGID_47_" x="10" y="45.312" width="280" height="59.375"/>
				</defs>
				<clipPath id="SVGID_48_">
					<use xlink:href="#SVGID_47_"  overflow="visible"/>
				</clipPath>
				<path clip-path="url(#SVGID_48_)" fill="#134094" d="M98.898,71.188l-1.635,0.117c-3.38,0.272-6.104-2.528-6.104-6.065V46.3
					c0-0.194,0.194-0.35,0.391-0.35l2.257-0.389c0.232-0.038,0.389,0.155,0.389,0.35v5.096h4.707c0.233,0,0.389,0.154,0.389,0.349
					v1.906c0,0.233-0.156,0.388-0.389,0.388h-4.707v11.59c0,1.826,1.359,3.423,3.073,3.423h1.633c0.233,0,0.389,0.154,0.389,0.349
					V70.8C99.288,71.034,99.132,71.188,98.898,71.188"/>
			</g>
		</g>
		<g>
			<g>
				<defs>
					<rect id="SVGID_49_" x="10" y="45.312" width="280" height="59.375"/>
				</defs>
				<clipPath id="SVGID_50_">
					<use xlink:href="#SVGID_49_"  overflow="visible"/>
				</clipPath>
				<path clip-path="url(#SVGID_50_)" fill="#134094" d="M135.731,71.307h-8.754c-3.382,0-6.105-2.529-6.105-6.107
					c0-3.537,2.725-6.065,6.105-6.065h6.066v-2.062c0-1.826-1.363-3.421-3.033-3.421c-1.671,0-3.268-0.078-5.096,0.35
					c-0.193,0.04-0.349-0.155-0.349-0.389v-1.75c0-0.233,0.115-0.311,0.349-0.388c1.521-0.467,3.266-0.467,5.096-0.467
					c3.346,0,6.065,2.488,6.065,6.065v13.844C136.077,71.111,135.921,71.307,135.731,71.307 M133.045,61.817h-6.066
					c-1.711,0-3.072,1.595-3.072,3.383c0,1.83,1.361,3.423,3.072,3.423h6.066V61.817z"/>
			</g>
		</g>
		<g>
			<g>
				<defs>
					<rect id="SVGID_51_" x="10" y="45.312" width="280" height="59.375"/>
				</defs>
				<clipPath id="SVGID_52_">
					<use xlink:href="#SVGID_51_"  overflow="visible"/>
				</clipPath>
				<path clip-path="url(#SVGID_52_)" fill="#134094" d="M103.826,51.007h8.75c3.385,0,6.104,2.529,6.104,6.105
					c0,3.539-2.721,6.067-6.104,6.067h-6.065v2.062c0,1.826,1.363,3.421,3.033,3.421c1.672,0,3.269,0.077,5.094-0.349
					c0.195-0.04,0.351,0.154,0.351,0.389v1.751c0,0.231-0.115,0.31-0.351,0.389c-1.517,0.466-3.266,0.466-5.094,0.466
					c-3.346,0-6.066-2.49-6.066-6.065V51.396C103.477,51.201,103.631,51.007,103.826,51.007 M106.508,60.496h6.065
					c1.712,0,3.073-1.596,3.073-3.384c0-1.828-1.361-3.421-3.073-3.421h-6.065V60.496z"/>
			</g>
		</g>
		<g>
			<g>
				<defs>
					<rect id="SVGID_53_" x="10" y="45.312" width="280" height="59.375"/>
				</defs>
				<clipPath id="SVGID_54_">
					<use xlink:href="#SVGID_53_"  overflow="visible"/>
				</clipPath>
				<path clip-path="url(#SVGID_54_)" fill="#134094" d="M169.929,71.307h-2.254c-0.234,0-0.391-0.154-0.391-0.389V57.112
					c0-1.828-1.359-3.421-3.031-3.421h-3.072c-1.672,0-3.033,1.555-3.033,3.381v0.041v13.804c0,0.079,0,0.117-0.039,0.157
					c-0.037,0.155-0.193,0.232-0.352,0.232h-2.293c-0.193,0-0.35-0.154-0.35-0.389V57.112v-0.041c0-1.826-1.361-3.381-3.072-3.381
					h-3.033c-1.673,0-3.074,1.593-3.074,3.421l0.038,13.805c0,0.235-0.193,0.389-0.39,0.389h-2.293
					c-0.196,0-0.389-0.154-0.389-0.389l0.038-13.805c0-1.323,0.351-2.488,0.972-3.421h-3.656c-0.233,0-0.39-0.195-0.39-0.391v-1.906
					c0-0.233,0.157-0.387,0.39-0.387h11.783c1.826,0,3.461,0.738,4.59,1.983c1.09-1.245,2.721-1.983,4.551-1.983h3.068
					c3.348,0,6.07,2.529,6.07,6.105v13.806C170.322,71.15,170.164,71.307,169.929,71.307"/>
			</g>
		</g>
	</g>
	<g>
		<g>
			<g>
				<defs>
					<path id="SVGID_55_" d="M43.037,47.822l-0.002-0.005c-0.064,0.103-4.721,6.239-4.721,6.239
						c-1.135,1.49-3.476,2.115-5.204,1.385c0,0-11.356-4.802-11.461-4.863c-1.102-0.46-2.195-0.825-3.439-0.825
						c-4.1,0-7.43,3.33-7.43,7.433c0,3.77,2.515,6.513,6.44,7.366l10.233,2.058c1.378,0.278,1.45,0.957,0.16,1.519
						c0,0-7.81,3.379-7.867,3.399c-5.772,2.854-9.748,8.801-9.748,15.681c0,9.654,7.829,17.479,17.483,17.479
						c9.655,0,17.478-7.824,17.478-17.479c0-0.413,0.01-11.169,0.01-11.169c0.01-2.807,1.766-3.615,3.907-1.795l10.105,8.606
						l0.001-0.002c2.189,1.873,5.033,3.006,8.141,3.006c6.922,0,12.535-5.61,12.535-12.538c0.002-6.924-5.611-12.541-12.533-12.541
						c-0.133,0-13.427,1.133-13.427,1.133c-1.871,0.163-2.898-1.156-2.295-2.929c0,0,2.327-6.987,2.327-7.79
						c0-3.247-2.631-5.879-5.879-5.879C45.857,45.312,44.098,46.306,43.037,47.822"/>
				</defs>
				<clipPath id="SVGID_56_">
					<use xlink:href="#SVGID_55_"  overflow="visible"/>
				</clipPath>
				
					<radialGradient id="SVGID_57_" cx="-422.0188" cy="827.0254" r="1.7043" gradientTransform="matrix(33.4397 0 0 -33.4397 14162.1895 27737.791)" gradientUnits="userSpaceOnUse">
					<stop  offset="0" style="stop-color:#0068B4"/>
					<stop  offset="0.0854" style="stop-color:#0666B2"/>
					<stop  offset="0.204" style="stop-color:#185FAD"/>
					<stop  offset="0.3419" style="stop-color:#3655A5"/>
					<stop  offset="0.4945" style="stop-color:#5F469A"/>
					<stop  offset="0.6576" style="stop-color:#93348B"/>
					<stop  offset="0.953" style="stop-color:#712082"/>
					<stop  offset="1" style="stop-color:#712082"/>
				</radialGradient>
				<rect x="10" y="45.312" clip-path="url(#SVGID_56_)" fill="url(#SVGID_57_)" width="69.66" height="59.375"/>
			</g>
		</g>
	</g>
</g>
</svg>
