<?xml version="1.0" encoding="utf-8"?>
<!-- Generator: Adobe Illustrator 14.0.0, SVG Export Plug-In . SVG Version: 6.00 Build 43363)  -->
<!DOCTYPE svg PUBLIC "-//W3C//DTD SVG 1.1//EN" "http://www.w3.org/Graphics/SVG/1.1/DTD/svg11.dtd">
<svg version="1.1" id="Ebene_1" xmlns="http://www.w3.org/2000/svg" xmlns:xlink="http://www.w3.org/1999/xlink" x="0px" y="0px"
	 width="24.024px" height="24px" viewBox="0 0 24.024 24" enable-background="new 0 0 24.024 24" xml:space="preserve">
<g id="figure">
	<path d="M17.658,16.162c-0.331,0.095-0.594,0.132-0.939,0.132c-2.831,0-6.987-9.765-6.987-13.015c0-1.197,0.287-1.596,0.692-1.938
		c-3.464,0.4-7.621,1.655-8.95,3.25C1.187,4.99,1.012,5.617,1.012,6.415C1.012,11.489,6.497,23,10.366,23
		C12.157,23,15.175,20.095,17.658,16.162"/>
	<path d="M15.852,1c3.579,0,7.161,0.57,7.161,2.564c0,4.046-2.6,8.951-3.927,8.951c-2.367,0-5.312-6.5-5.312-9.749
		C13.773,1.285,14.35,1,15.852,1"/>
</g>
</svg>
